<?xml version="1.0" standalone="no"?>
<!DOCTYPE svg PUBLIC "-//W3C//DTD SVG 1.1//EN" "http://www.w3.org/Graphics/SVG/1.1/DTD/svg11.dtd" >
<svg xmlns="http://www.w3.org/2000/svg" xmlns:xlink="http://www.w3.org/1999/xlink" version="1.1">
<metadata>
Created by FontForge 20170731 at Thu May 20 01:14:05 2021
 By Aleksey,,,
Copyright (c) 2010 Linotype GmbH, www.linotype.com. All rights reserved. This font software may not be reproduced, modified, disclosed or transferred without the express written approval of Linotype GmbH.
</metadata>
<defs>
<font id="DINNextCYR-Medium" horiz-adv-x="1124" >
  <font-face 
    font-family="DIN Next CYR Medium"
    font-weight="500"
    font-stretch="normal"
    units-per-em="2048"
    panose-1="2 11 6 3 2 2 3 5 2 3"
    ascent="1599"
    descent="-449"
    x-height="987"
    cap-height="1393"
    bbox="-321.235 -467 2103 1884"
    underline-thickness="102"
    underline-position="-307"
    unicode-range="U+000D-FB04"
  />
<missing-glyph horiz-adv-x="989" 
d="M0 20v1352q0 21 20 21h949q20 0 20 -21v-1352q0 -20 -20 -20h-949q-20 0 -20 20zM121 1268v-1143q0 -12 12 -12h723q12 0 12 12v1143q0 12 -12 12h-723q-12 0 -12 -12zM524 485h-110q-21 0 -21 21v49q0 60 35 113l104 143q43 61 43 109q0 43 -27.5 71.5t-70.5 28.5
q-88 0 -112 -92q-3 -22 -23 -19l-106 19q-20 3 -17 22q21 95 89 149t175 54q105 0 174.5 -66.5t69.5 -166.5q0 -87 -53 -152l-103 -145q-26 -36 -26 -84v-33q0 -21 -21 -21zM389 254v121q0 20 21 20h118q21 0 21 -20v-121q0 -21 -21 -21h-118q-21 0 -21 21z" />
    <glyph glyph-name="IJ" unicode="IJ" horiz-adv-x="1587" 
d="M598 145q-10 17 4 29l150 113q15 9 30 -6q74 -86 187 -86t172 69.5t59 204.5v903q0 21 21 21h200q21 0 21 -21v-903q0 -232 -128.5 -362t-352.5 -130q-114 0 -214.5 47.5t-148.5 120.5zM154 20v1352q0 21 20 21h201q20 0 20 -21v-1352q0 -20 -20 -20h-201q-20 0 -20 20z
" />
    <glyph glyph-name="ij" unicode="ij" horiz-adv-x="1056" 
d="M887 1174h-189q-20 0 -20 20v178q0 21 20 21h189q20 0 20 -21v-178q0 -20 -20 -20zM575 -369h-57q-20 0 -20 21v164q0 20 20 20h45q63 0 89 26t26 91v1014q0 20 20 20h189q20 0 20 -20v-1010q0 -326 -332 -326zM358 1174h-188q-20 0 -20 20v178q0 21 20 21h188
q21 0 21 -21v-178q0 -20 -21 -20zM358 0h-188q-20 0 -20 20v947q0 20 20 20h188q21 0 21 -20v-947q0 -20 -21 -20z" />
    <glyph glyph-name="napostrophe" unicode="&#x22;n" horiz-adv-x="1122" 
d="M963 0h-189q-20 0 -20 20v570q0 100 -49 157.5t-138 57.5q-87 0 -137.5 -58.5t-50.5 -156.5v-570q0 -20 -21 -20h-188q-20 0 -20 20v947q0 20 20 20h188q21 0 21 -20v-72h2q80 115 260 115q154 0 248 -102t94 -265v-623q0 -20 -20 -20zM-10 1028q-21 0 -21 23v321
q0 21 21 21h170q20 0 20 -21v-149q0 -25 -14 -39l-146 -142q-14 -14 -30 -14z" />
    <glyph glyph-name="f_f" unicode="ff" horiz-adv-x="1343" 
d="M389 0h-188q-21 0 -21 20v777q0 12 -12 12h-66q-20 0 -20 20v138q0 20 20 20h66q12 0 12 12v64q0 330 328 330h90q20 0 20 -21v-164q0 -20 -20 -20h-63q-75 0 -100 -24t-25 -97v-68q0 -12 12 -12h176q20 0 20 -20v-138q0 -20 -20 -20h-176q-12 0 -12 -12v-777
q0 -20 -21 -20zM1061 0h-189q-20 0 -20 20v777q0 12 -12 12h-66q-20 0 -20 20v138q0 20 20 20h66q12 0 12 12v64q0 330 328 330h90q20 0 20 -21v-164q0 -20 -20 -20h-64q-75 0 -100 -24t-25 -97v-68q0 -12 13 -12h176q20 0 20 -20v-138q0 -20 -20 -20h-176q-13 0 -13 -12
v-777q0 -20 -20 -20z" />
    <glyph glyph-name="fi" unicode="fi" horiz-adv-x="1200" 
d="M389 0h-188q-21 0 -21 20v777q0 12 -12 12h-66q-20 0 -20 20v138q0 20 20 20h66q12 0 12 12v64q0 330 328 330h90q20 0 20 -21v-164q0 -20 -20 -20h-63q-75 0 -100 -24t-25 -97v-68q0 -12 12 -12h176q20 0 20 -20v-138q0 -20 -20 -20h-176q-12 0 -12 -12v-777
q0 -20 -21 -20zM1030 1174h-188q-21 0 -21 20v178q0 21 21 21h188q21 0 21 -21v-178q0 -20 -21 -20zM1030 0h-188q-21 0 -21 20v947q0 20 21 20h188q21 0 21 -20v-947q0 -20 -21 -20z" />
    <glyph glyph-name="fl" unicode="fl" horiz-adv-x="1267" 
d="M389 0h-188q-21 0 -21 20v777q0 12 -12 12h-66q-20 0 -20 20v138q0 20 20 20h66q12 0 12 12v64q0 330 328 330h90q20 0 20 -21v-164q0 -20 -20 -20h-63q-75 0 -100 -24t-25 -97v-68q0 -12 12 -12h176q20 0 20 -20v-138q0 -20 -20 -20h-176q-12 0 -12 -12v-777
q0 -20 -21 -20zM1178 -12h-91q-142 0 -206 67.5t-64 214.5v1102q0 21 21 21h188q21 0 21 -21v-1089q0 -49 20.5 -69.5t65.5 -20.5h45q20 0 20 -21v-164q0 -20 -20 -20z" />
    <glyph glyph-name="f_f_i" unicode="ffi" horiz-adv-x="1871" 
d="M389 0h-188q-21 0 -21 20v777q0 12 -12 12h-66q-20 0 -20 20v138q0 20 20 20h66q12 0 12 12v64q0 330 328 330h90q20 0 20 -21v-164q0 -20 -20 -20h-63q-75 0 -100 -24t-25 -97v-68q0 -12 12 -12h176q20 0 20 -20v-138q0 -20 -20 -20h-176q-12 0 -12 -12v-777
q0 -20 -21 -20zM1061 0h-189q-20 0 -20 20v777q0 12 -12 12h-66q-20 0 -20 20v138q0 20 20 20h66q12 0 12 12v64q0 330 328 330h90q20 0 20 -21v-164q0 -20 -20 -20h-64q-75 0 -100 -24t-25 -97v-68q0 -12 13 -12h176q20 0 20 -20v-138q0 -20 -20 -20h-176q-13 0 -13 -12
v-777q0 -20 -20 -20zM1702 1174h-189q-20 0 -20 20v178q0 21 20 21h189q20 0 20 -21v-178q0 -20 -20 -20zM1702 0h-189q-20 0 -20 20v947q0 20 20 20h189q20 0 20 -20v-947q0 -20 -20 -20z" />
    <glyph glyph-name="f_f_l" unicode="ffl" horiz-adv-x="1939" 
d="M389 0h-188q-21 0 -21 20v777q0 12 -12 12h-66q-20 0 -20 20v138q0 20 20 20h66q12 0 12 12v64q0 330 328 330h90q20 0 20 -21v-164q0 -20 -20 -20h-63q-75 0 -100 -24t-25 -97v-68q0 -12 12 -12h176q20 0 20 -20v-138q0 -20 -20 -20h-176q-12 0 -12 -12v-777
q0 -20 -21 -20zM1061 0h-189q-20 0 -20 20v777q0 12 -12 12h-66q-20 0 -20 20v138q0 20 20 20h66q12 0 12 12v64q0 330 328 330h90q20 0 20 -21v-164q0 -20 -20 -20h-64q-75 0 -100 -24t-25 -97v-68q0 -12 13 -12h176q20 0 20 -20v-138q0 -20 -20 -20h-176q-13 0 -13 -12
v-777q0 -20 -20 -20zM1849 -12h-90q-142 0 -206 67.5t-64 214.5v1102q0 21 20 21h189q20 0 20 -21v-1089q0 -49 20.5 -69.5t65.5 -20.5h45q21 0 21 -21v-164q0 -20 -21 -20z" />
    <glyph glyph-name=".notdef" horiz-adv-x="989" 
d="M0 20v1352q0 21 20 21h949q20 0 20 -21v-1352q0 -20 -20 -20h-949q-20 0 -20 20zM121 1268v-1143q0 -12 12 -12h723q12 0 12 12v1143q0 12 -12 12h-723q-12 0 -12 -12zM524 485h-110q-21 0 -21 21v49q0 60 35 113l104 143q43 61 43 109q0 43 -27.5 71.5t-70.5 28.5
q-88 0 -112 -92q-3 -22 -23 -19l-106 19q-20 3 -17 22q21 95 89 149t175 54q105 0 174.5 -66.5t69.5 -166.5q0 -87 -53 -152l-103 -145q-26 -36 -26 -84v-33q0 -21 -21 -21zM389 254v121q0 20 21 20h118q21 0 21 -20v-121q0 -21 -21 -21h-118q-21 0 -21 21z" />
    <glyph glyph-name=".null" horiz-adv-x="0" 
 />
    <glyph glyph-name="nonmarkingreturn" horiz-adv-x="682" 
 />
    <glyph glyph-name="NULL" horiz-adv-x="1024" 
 />
    <glyph glyph-name="NULL" horiz-adv-x="1024" 
 />
    <glyph glyph-name="CR.001" unicode="&#xd;" horiz-adv-x="0" 
 />
    <glyph glyph-name="space" unicode=" " horiz-adv-x="483" 
 />
    <glyph glyph-name="exclam" unicode="!" horiz-adv-x="628" 
d="M375 389h-121q-21 0 -21 21l-47 962q0 21 21 21h215q20 0 20 -21l-47 -962q0 -21 -20 -21zM190 20v209q0 21 21 21h205q20 0 20 -21v-209q0 -20 -20 -20h-205q-21 0 -21 20z" />
    <glyph glyph-name="quotedbl" unicode="&#x22;" horiz-adv-x="706" 
d="M561 999h-127q-20 0 -20 21v352q0 21 20 21h127q21 0 21 -21v-352q0 -21 -21 -21zM270 999h-125q-20 0 -20 21v352q0 21 20 21h125q21 0 21 -21v-352q0 -21 -21 -21z" />
    <glyph glyph-name="numbersign" unicode="#" horiz-adv-x="1052" 
d="M141 20l56 410h-136q-20 0 -20 21v118q0 21 20 21h158l33 237h-137q-21 0 -21 21v119q0 20 21 20h157l54 385q3 21 22 21h129q22 0 19 -21l-54 -385h238l53 385q3 21 23 21h129q21 0 18 -21l-53 -385h141q21 0 21 -20v-119q0 -21 -21 -21h-162l-32 -237h141q20 0 20 -21
v-118q0 -21 -20 -21h-164l-55 -410q-3 -20 -23 -20h-129q-21 0 -18 20l55 410h-237l-56 -410q-3 -20 -22 -20h-129q-22 0 -19 20zM422 827l-33 -237h238l32 237h-237z" />
    <glyph glyph-name="dollar" unicode="$" 
d="M137 125q-19 16 -4 31l109 137q15 15 28 2q119 -96 262 -111v420q-177 29 -275.5 133t-98.5 260q0 170 104 283q107 116 270 131v107q0 20 21 20h80q20 0 20 -20v-107q176 -15 314 -108q14 -12 4 -29l-94 -139q-12 -15 -29 -5q-95 59 -195 74v-399q184 -31 280.5 -133
t96.5 -262q0 -174 -100 -287.5t-277 -138.5v-109q0 -20 -20 -20h-80q-21 0 -21 20v105q-222 9 -395 145zM532 829v375q-69 -14 -110 -65.5t-41 -124.5q0 -141 151 -185zM653 582v-392q154 38 154 211q0 134 -154 181z" />
    <glyph glyph-name="percent" unicode="%" horiz-adv-x="1601" 
d="M309 -2l809 1397q11 20 33 20h133q21 0 10 -20l-809 -1397q-12 -21 -30 -21h-136q-22 0 -10 21zM143 840q-16 53 -16 202q0 150 16 203q25 74 92.5 119t157.5 45t157.5 -45t92.5 -119q16 -53 16 -203q0 -149 -16 -202q-25 -74 -92.5 -119t-157.5 -45t-157.5 45t-92.5 119
zM393 823q70 0 88 60q8 19 8 159q0 141 -8 162q-18 58 -88 58q-69 0 -90 -58q-8 -21 -8 -162q0 -140 8 -159q22 -60 90 -60zM956 145q-16 62 -16 203t16 203q25 74 93 119t159 45q90 0 157.5 -45t92.5 -119q17 -56 17 -203t-17 -203q-25 -74 -92.5 -118.5t-157.5 -44.5
q-91 0 -159 44.5t-93 118.5zM1118 188q21 -59 90 -59q70 0 88 59q9 21 9 160q0 138 -9 162q-18 57 -88 57t-90 -57q-8 -21 -8 -162t8 -160z" />
    <glyph glyph-name="ampersand" unicode="&#x26;" horiz-adv-x="1323" 
d="M129 350q0 116 61 215t203 211q-86 111 -123 180q-32 60 -32 140q0 142 100 229q104 90 246 90q148 0 243 -92q97 -94 97 -221q0 -94 -53.5 -173.5t-188.5 -183.5l217 -278l139 166q12 15 29 2l113 -96q17 -13 4 -29l-164 -199l49 -61q33 -45 84 -45h31q20 0 20 -21v-164
q0 -20 -20 -20h-68q-68 0 -109.5 22.5t-93.5 86.5l-34 43q-169 -175 -363 -175q-183 0 -285 101.5t-102 271.5zM561 901q91 71 122.5 113t31.5 90q0 51 -37 87t-92 36q-57 0 -95 -35.5t-38 -89.5q0 -36 18 -74q26 -47 90 -127zM342 362q0 -85 51.5 -135.5t138.5 -50.5
q58 0 109.5 29t118.5 100l-246 316q-172 -132 -172 -259z" />
    <glyph glyph-name="quotesingle" unicode="'" horiz-adv-x="415" 
d="M270 999h-125q-20 0 -20 21v352q0 21 20 21h125q21 0 21 -21v-352q0 -21 -21 -21z" />
    <glyph glyph-name="parenleft" unicode="(" horiz-adv-x="600" 
d="M367 -152q-263 369 -263 824q0 454 263 823q15 21 34 21h101q21 0 12 -21q-190 -380 -190 -823q0 -447 190 -824q9 -20 -12 -20h-101q-20 0 -34 20z" />
    <glyph glyph-name="parenright" unicode=")" horiz-adv-x="600" 
d="M96 -152q191 379 191 824q0 441 -191 823q-9 21 13 21h100q20 0 35 -21q262 -367 262 -823q0 -457 -262 -824q-14 -20 -35 -20h-100q-22 0 -13 20z" />
    <glyph glyph-name="asterisk" unicode="*" horiz-adv-x="686" 
d="M397 803h-88q-20 0 -20 20l2 166l-144 -86q-19 -10 -28 8l-43 78q-10 20 8 29l143 80l-143 80q-18 9 -8 28l43 78q9 18 28 8l144 -86l-2 166q0 21 20 21h88q21 0 21 -21l-2 -166l143 86q20 10 29 -8l43 -78q10 -19 -8 -28l-144 -80l144 -80q18 -9 8 -29l-43 -78
q-9 -18 -29 -8l-143 86l2 -166q0 -20 -21 -20z" />
    <glyph glyph-name="plus" unicode="+" 
d="M459 137v316q0 12 -13 12h-313q-20 0 -20 20v160q0 21 20 21h313q13 0 13 12v315q0 21 20 21h166q21 0 21 -21v-315q0 -12 12 -12h313q21 0 21 -21v-160q0 -20 -21 -20h-313q-12 0 -12 -12v-316q0 -20 -21 -20h-166q-20 0 -20 20z" />
    <glyph glyph-name="comma" unicode="," horiz-adv-x="503" 
d="M135 -207v436q0 21 21 21h192q21 0 21 -21v-223q0 -28 -15 -43l-170 -176q-14 -14 -28 -14q-21 0 -21 20z" />
    <glyph glyph-name="hyphen" unicode="-" horiz-adv-x="788" 
d="M676 442h-563q-21 0 -21 21v162q0 20 21 20h563q20 0 20 -20v-162q0 -21 -20 -21z" />
    <glyph glyph-name="period" unicode="." horiz-adv-x="516" 
d="M135 20v209q0 21 21 21h204q21 0 21 -21v-209q0 -20 -21 -20h-204q-21 0 -21 20z" />
    <glyph glyph-name="slash" unicode="/" horiz-adv-x="870" 
d="M117 -2l454 1397q6 20 27 20h154q20 0 14 -20l-455 -1397q-6 -21 -26 -21h-154q-20 0 -14 21z" />
    <glyph glyph-name="zero" unicode="0" 
d="M166 250q-29 95 -29 446q0 352 29 447q85 272 395 272q309 0 397 -272q29 -95 29 -447q0 -351 -29 -446q-88 -273 -397 -273t-395 273zM391 293q41 -111 170 -111q131 0 172 111q19 59 19 403q0 345 -19 404q-40 110 -172 110q-130 0 -170 -110q-18 -56 -18 -404t18 -403
z" />
    <glyph glyph-name="one" unicode="1" 
d="M506 20v1098h-4l-213 -149q-23 -16 -23 12v209q0 17 15 29l223 161q16 13 37 13h174q20 0 20 -21v-1352q0 -20 -20 -20h-189q-20 0 -20 20z" />
    <glyph glyph-name="two" unicode="2" 
d="M152 20v154q0 17 10 27l491 612q90 113 90 213q0 81 -49.5 132.5t-134.5 51.5q-81 0 -129 -45.5t-59 -128.5q-3 -19 -23 -16l-180 37q-19 3 -16 24q15 140 120 236q107 98 293 98q192 0 299 -110q111 -111 111 -279q0 -171 -131 -326l-406 -491v-4h516q21 0 21 -21v-164
q0 -20 -21 -20h-782q-20 0 -20 20z" />
    <glyph glyph-name="three" unicode="3" 
d="M129 276q-3 22 16 27l179 41q18 3 24 -14q53 -148 211 -148q93 0 149 57t56 150q0 104 -61.5 165.5t-165.5 61.5h-60q-20 0 -20 21v162q0 20 20 20h55q92 0 147.5 55.5t55.5 147.5q0 85 -50 136.5t-136 51.5q-147 0 -187 -143q-6 -17 -24 -14l-174 41q-20 3 -17 24
q25 131 136.5 214t273.5 83q189 0 299.5 -106t110.5 -279q0 -187 -156 -289v-4q74 -33 129 -126.5t55 -211.5q0 -188 -123 -305t-313 -117q-167 0 -282.5 79.5t-147.5 219.5z" />
    <glyph glyph-name="four" unicode="4" 
d="M662 213h-547q-21 0 -21 20v158q0 16 6 25l451 960q10 17 29 17h194q24 0 14 -19l-442 -952v-4h316q12 0 12 12v348q0 21 20 21h189q20 0 20 -21v-348q0 -12 12 -12h103q20 0 20 -21v-164q0 -20 -20 -20h-103q-12 0 -12 -12v-181q0 -20 -20 -20h-189q-20 0 -20 20v181
q0 12 -12 12z" />
    <glyph glyph-name="five" unicode="5" 
d="M170 264q-3 20 16 25l174 43q18 3 25 -17q47 -133 193 -133q131 0 172 115q18 47 18 154q0 101 -18 153q-38 115 -175 115q-122 0 -169 -96q-9 -21 -25 -21h-172q-21 0 -21 21v749q0 21 21 21h741q21 0 21 -21v-164q0 -20 -21 -20h-538q-13 0 -13 -12v-314h7
q77 62 204 62q135 0 228.5 -61.5t130.5 -174.5q30 -99 30 -237q0 -131 -28 -220q-38 -118 -144.5 -186t-248.5 -68q-161 0 -273 79t-135 208z" />
    <glyph glyph-name="six" unicode="6" 
d="M119 408q0 149 92 319l364 653q10 13 25 13h197q21 0 12 -21l-307 -557l4 -4q38 18 104 18q171 0 283 -112q115 -115 115 -299q0 -206 -127 -324q-126 -117 -318 -117t-319 115q-125 113 -125 316zM563 182q97 0 155 61t58 160t-58 160.5t-155 61.5q-96 0 -153.5 -61.5
t-57.5 -160.5t57.5 -160t153.5 -61z" />
    <glyph glyph-name="seven" unicode="7" 
d="M285 23l454 1159v6h-346q-12 0 -12 -12v-160q0 -21 -21 -21h-176q-20 0 -20 21v356q0 21 20 21h781q20 0 20 -21v-160q0 -21 -6 -36l-461 -1158q-9 -18 -26 -18h-195q-22 0 -12 23z" />
    <glyph glyph-name="eight" unicode="8" 
d="M113 395q0 109 48 197t126 137v4q-62 40 -103 117t-41 168q0 167 113 280q114 117 305 117q193 0 307 -117q113 -113 113 -280q0 -91 -40.5 -168t-102.5 -117v-4q78 -49 126 -137t48 -197q0 -185 -127 -303q-127 -115 -324 -115t-323 117q-125 116 -125 301zM561 834
q83 0 136 54.5t53 133.5q0 81 -52.5 134.5t-136.5 53.5q-81 0 -133.5 -54t-52.5 -134q0 -79 52.5 -133.5t133.5 -54.5zM403 565q-59 -62 -59 -159t59 -162q59 -62 158 -62t158 62q61 64 61 162t-61 159q-58 64 -158 64t-158 -64z" />
    <glyph glyph-name="nine" unicode="9" 
d="M315 20l308 558l-5 4q-36 -19 -104 -19q-167 0 -283 113q-114 114 -114 299q0 207 125 323q126 117 319 117t320 -115q125 -113 125 -315q0 -153 -93 -319l-362 -654q-9 -12 -25 -12h-198q-22 0 -13 20zM561 768q97 0 155 61t58 160t-58 160t-155 61q-96 0 -153.5 -61
t-57.5 -160t57.5 -160t153.5 -61z" />
    <glyph glyph-name="colon" unicode=":" horiz-adv-x="532" 
d="M369 737h-205q-21 0 -21 21v209q0 20 21 20h205q20 0 20 -20v-209q0 -21 -20 -21zM143 20v209q0 21 21 21h205q20 0 20 -21v-209q0 -20 -20 -20h-205q-21 0 -21 20z" />
    <glyph glyph-name="semicolon" unicode=";" horiz-adv-x="532" 
d="M369 737h-205q-21 0 -21 21v209q0 20 21 20h205q20 0 20 -20v-209q0 -21 -20 -21zM150 -207v436q0 21 20 21h192q21 0 21 -21v-223q0 -26 -12 -41l-172 -178q-14 -14 -29 -14q-20 0 -20 20z" />
    <glyph glyph-name="less" unicode="&#x3c;" 
d="M991 117l-858 352q-20 6 -20 29v135q0 23 20 29l858 352q21 6 21 -13v-182q0 -17 -21 -26l-585 -226v-4l585 -225q21 -9 21 -27v-182q0 -18 -21 -12z" />
    <glyph glyph-name="equal" unicode="=" 
d="M991 670h-858q-20 0 -20 20v160q0 20 20 20h858q21 0 21 -20v-160q0 -20 -21 -20zM991 260h-858q-20 0 -20 21v159q0 21 20 21h858q21 0 21 -21v-159q0 -21 -21 -21z" />
    <glyph glyph-name="greater" unicode="&#x3e;" 
d="M113 129v182q0 18 20 27l586 225v4l-586 226q-20 9 -20 26v182q0 19 20 13l858 -352q21 -6 21 -29v-135q0 -23 -21 -29l-858 -352q-20 -6 -20 12z" />
    <glyph glyph-name="question" unicode="?" horiz-adv-x="950" 
d="M557 389h-190q-21 0 -21 21v84q0 100 53 174l162 221q70 91 70 168q0 68 -44 110.5t-116 42.5q-147 0 -174 -163q-3 -20 -23 -17l-184 29q-19 3 -16 24q25 156 131.5 244t273.5 88q171 0 277 -100q108 -102 108 -256q0 -127 -84 -240l-162 -221q-40 -52 -40 -129v-59
q0 -21 -21 -21zM338 20v209q0 21 20 21h205q21 0 21 -21v-209q0 -20 -21 -20h-205q-20 0 -20 20z" />
    <glyph glyph-name="at" unicode="@" horiz-adv-x="1843" 
d="M1733 549q0 -209 -93.5 -323.5t-244.5 -114.5q-175 0 -248 131h-2q-65 -129 -271 -129q-229 0 -294 200q-27 79 -27 228q0 147 27 227q65 201 286 201q75 0 134.5 -29.5t86.5 -75.5h5v64q0 18 16 18h152q16 0 16 -18v-506q0 -70 33 -106.5t86 -36.5q149 0 149 270
q0 283 -170 459t-452 176q-287 0 -455 -174t-168 -461t168 -461t455 -174q240 0 438 92q21 9 29 -10l47 -111q10 -17 -9 -26q-210 -113 -505 -113q-358 0 -586 225q-225 225 -225 578q0 352 225 577q229 226 586 226t583 -226q228 -225 228 -577zM756 395q40 -112 162 -112
t159 112q15 46 15 146q0 99 -15 143q-38 115 -159 115t-162 -115q-15 -44 -15 -143t15 -146z" />
    <glyph glyph-name="A" unicode="A" horiz-adv-x="1263" 
d="M43 20l477 1352q6 21 27 21h188q21 0 27 -21l471 -1352q6 -20 -14 -20h-201q-21 0 -27 20l-92 271h-524l-92 -271q-6 -20 -27 -20h-199q-20 0 -14 20zM635 1047l-186 -541h376l-184 541h-6z" />
    <glyph glyph-name="B" unicode="B" horiz-adv-x="1243" 
d="M154 20v1352q0 21 20 21h518q212 0 323 -98t111 -273q0 -211 -161 -295v-4q78 -31 132 -115.5t54 -197.5q0 -203 -123 -306.5t-356 -103.5h-498q-20 0 -20 20zM408 813h278q92 0 145.5 50t53.5 132q0 85 -53.5 135t-145.5 50h-278q-13 0 -13 -13v-342q0 -12 13 -12z
M395 588v-363q0 -12 13 -12h290q99 0 155 53t56 142q0 88 -56 140t-155 52h-290q-13 0 -13 -12z" />
    <glyph glyph-name="C" unicode="C" horiz-adv-x="1177" 
d="M150 319q-37 110 -37 377t37 377q54 167 178 254.5t305 87.5q165 0 287 -78.5t184 -220.5q6 -18 -10 -24l-174 -84q-19 -9 -27 10q-82 180 -260 180q-186 0 -250 -184q-25 -80 -25 -318q0 -237 25 -317q64 -184 250 -184q178 0 260 180q8 19 27 10l174 -84q16 -6 10 -25
q-62 -142 -184 -220.5t-287 -78.5q-181 0 -305 87.5t-178 254.5z" />
    <glyph glyph-name="D" unicode="D" horiz-adv-x="1280" 
d="M154 20v1352q0 21 20 21h498q363 0 465 -310q34 -106 34 -387t-34 -387q-102 -309 -465 -309h-498q-20 0 -20 20zM395 1163v-934q0 -12 13 -12h206q230 0 289 176q25 70 25 303t-25 303q-59 177 -289 177h-206q-13 0 -13 -13z" />
    <glyph glyph-name="E" unicode="E" horiz-adv-x="1167" 
d="M154 20v1352q0 21 20 21h873q20 0 20 -21v-176q0 -20 -20 -20h-639q-13 0 -13 -13v-340q0 -12 13 -12h538q21 0 21 -20v-177q0 -20 -21 -20h-538q-13 0 -13 -12v-353q0 -12 13 -12h639q20 0 20 -20v-177q0 -20 -20 -20h-873q-20 0 -20 20z" />
    <glyph glyph-name="F" unicode="F" horiz-adv-x="1148" 
d="M154 20v1352q0 21 20 21h873q20 0 20 -21v-176q0 -20 -20 -20h-639q-13 0 -13 -13v-354q0 -12 13 -12h538q21 0 21 -21v-176q0 -20 -21 -20h-538q-13 0 -13 -13v-547q0 -20 -20 -20h-201q-20 0 -20 20z" />
    <glyph glyph-name="G" unicode="G" horiz-adv-x="1284" 
d="M150 313q-37 110 -37 383t37 383q54 164 182 250t315 86q178 0 307.5 -82.5t178.5 -212.5q9 -17 -9 -28l-172 -76q-17 -6 -26 10q-94 172 -281 172q-197 0 -262 -182q-25 -80 -25 -320q0 -239 25 -319q65 -182 262 -182q95 0 166.5 46.5t97.5 127.5q23 74 23 180
q0 12 -12 12h-230q-20 0 -20 21v163q0 21 20 21h461q20 0 20 -21v-120q0 -211 -32 -306q-51 -161 -181.5 -251.5t-310.5 -90.5q-187 0 -315 86t-182 250z" />
    <glyph glyph-name="H" unicode="H" horiz-adv-x="1345" 
d="M154 20v1352q0 21 20 21h201q20 0 20 -21v-549q0 -12 13 -12h530q12 0 12 12v549q0 21 21 21h200q21 0 21 -21v-1352q0 -20 -21 -20h-200q-21 0 -21 20v562q0 12 -12 12h-530q-13 0 -13 -12v-562q0 -20 -20 -20h-201q-20 0 -20 20z" />
    <glyph glyph-name="I" unicode="I" horiz-adv-x="548" 
d="M154 20v1352q0 21 20 21h201q20 0 20 -21v-1352q0 -20 -20 -20h-201q-20 0 -20 20z" />
    <glyph glyph-name="J" unicode="J" horiz-adv-x="1038" 
d="M59 145q-10 17 4 29l150 113q16 9 31 -6q74 -86 186 -86q113 0 172.5 70t59.5 204v903q0 21 20 21h201q20 0 20 -21v-903q0 -232 -128.5 -362t-352.5 -130q-114 0 -214.5 47.5t-148.5 120.5z" />
    <glyph glyph-name="K" unicode="K" horiz-adv-x="1296" 
d="M154 20v1352q0 21 20 21h201q20 0 20 -21v-655l527 659q17 17 32 17h234q11 0 13 -8.5t-5 -18.5l-432 -520l481 -821q16 -25 -14 -25h-227q-21 0 -31 16l-365 643l-213 -258v-381q0 -20 -20 -20h-201q-20 0 -20 20z" />
    <glyph glyph-name="L" unicode="L" horiz-adv-x="1116" 
d="M154 20v1352q0 21 20 21h201q20 0 20 -21v-1143q0 -12 13 -12h639q20 0 20 -20v-177q0 -20 -20 -20h-873q-20 0 -20 20z" />
    <glyph glyph-name="M" unicode="M" horiz-adv-x="1548" 
d="M154 20v1352q0 21 20 21h182q26 0 35 -21l383 -858h8l377 858q9 21 35 21h180q21 0 21 -21v-1352q0 -20 -21 -20h-178q-20 0 -20 20v852h-9l-295 -655q-12 -27 -38 -27h-119q-27 0 -39 27l-295 655h-8v-852q0 -20 -21 -20h-178q-20 0 -20 20z" />
    <glyph glyph-name="N" unicode="N" horiz-adv-x="1345" 
d="M154 20v1352q0 21 20 21h188q23 0 35 -21l568 -960h8v960q0 21 20 21h178q21 0 21 -21v-1352q0 -20 -21 -20h-186q-24 0 -35 20l-569 959h-8v-959q0 -20 -21 -20h-178q-20 0 -20 20z" />
    <glyph glyph-name="O" unicode="O" horiz-adv-x="1284" 
d="M641 -23q-184 0 -310.5 86t-180.5 250q-37 110 -37 383t37 383q54 164 180.5 250t310.5 86q185 0 312.5 -86t181.5 -250q36 -107 36 -383t-36 -383q-54 -164 -181.5 -250t-312.5 -86zM641 195q195 0 260 182q25 80 25 319q0 240 -25 320q-65 182 -260 182
q-193 0 -258 -182q-25 -80 -25 -320q0 -239 25 -319q65 -182 258 -182z" />
    <glyph glyph-name="P" unicode="P" horiz-adv-x="1224" 
d="M375 0h-201q-20 0 -20 20v1352q0 21 20 21h522q203 0 330 -121q129 -120 129 -311q0 -196 -129 -316q-125 -119 -330 -119h-288q-13 0 -13 -12v-494q0 -20 -20 -20zM408 745h274q106 0 168.5 59t62.5 157q0 97 -63 156t-168 59h-274q-13 0 -13 -13v-405q0 -13 13 -13z
" />
    <glyph glyph-name="Q" unicode="Q" horiz-adv-x="1284" 
d="M1245 45l-127 -135q-16 -16 -31 0l-151 143q-119 -76 -295 -76q-184 0 -310.5 86t-180.5 250q-37 110 -37 383t37 383q54 164 180.5 250t310.5 86q185 0 312.5 -86t181.5 -250q36 -107 36 -383t-36 -383q-23 -65 -41 -94l151 -145q13 -13 0 -29zM641 193q76 0 125 22
l-139 135q-16 10 0 29l129 135q14 14 28 2l125 -121q21 74 21 301q0 240 -25 320q-64 184 -264 184q-198 0 -262 -184q-25 -80 -25 -320q0 -239 25 -319q64 -184 262 -184z" />
    <glyph glyph-name="R" unicode="R" horiz-adv-x="1267" 
d="M1171 0h-227q-22 0 -31 20l-266 543h-239q-13 0 -13 -12v-531q0 -20 -20 -20h-201q-20 0 -20 20v1352q0 21 20 21h539q191 0 317 -117q127 -118 127 -299q0 -134 -71 -236.5t-193 -146.5l293 -567q6 -11 1 -19t-16 -8zM408 780h297q96 0 154.5 54.5t58.5 142.5
q0 91 -58 145t-155 54h-297q-13 0 -13 -13v-370q0 -13 13 -13z" />
    <glyph glyph-name="S" unicode="S" horiz-adv-x="1202" 
d="M604 -23q-152 0 -289 52q-140 53 -223 133q-16 16 -4 31l127 147q15 16 29 2q188 -147 379 -147q122 0 192 54t70 146q0 82 -59 128.5t-195 64.5l-74 10q-420 58 -420 397q0 191 128 305.5t343 114.5q265 0 451 -139q14 -12 4 -29l-98 -151q-13 -16 -29 -6
q-166 108 -334 108q-103 0 -161 -50t-58 -136q0 -151 256 -189l74 -10q415 -59 415 -403q0 -196 -138.5 -314.5t-385.5 -118.5z" />
    <glyph glyph-name="T" unicode="T" horiz-adv-x="1126" 
d="M664 0h-201q-21 0 -21 20v1143q0 13 -12 13h-364q-21 0 -21 20v176q0 21 21 21h995q20 0 20 -21v-176q0 -20 -20 -20h-365q-12 0 -12 -13v-1143q0 -20 -20 -20z" />
    <glyph glyph-name="U" unicode="U" horiz-adv-x="1316" 
d="M657 195q124 0 198.5 79.5t74.5 219.5v878q0 21 20 21h201q20 0 20 -21v-883q0 -237 -143 -374q-144 -138 -371 -138q-224 0 -368 138t-144 374v883q0 21 21 21h201q20 0 20 -21v-878q0 -139 73.5 -219t196.5 -80z" />
    <glyph glyph-name="V" unicode="V" horiz-adv-x="1157" 
d="M668 0h-168q-19 0 -25 20l-440 1352q-6 21 16 21h199q20 0 26 -21l312 -987h6l299 987q6 21 27 21h198q23 0 17 -21l-443 -1352q-6 -20 -24 -20z" />
    <glyph glyph-name="W" unicode="W" horiz-adv-x="1693" 
d="M1300 0h-155q-19 0 -25 20l-266 953h-4l-268 -953q-6 -20 -25 -20h-154q-18 0 -24 20l-342 1352q-3 21 16 21h193q21 0 24 -21l222 -938h4l260 938q6 21 24 21h144q18 0 24 -21l266 -938h5l215 938q3 21 24 21h191q19 0 16 -21l-340 -1352q-3 -20 -25 -20z" />
    <glyph glyph-name="X" unicode="X" horiz-adv-x="1171" 
d="M1139 0h-224q-21 0 -32 20l-281 474h-4l-283 -474q-11 -20 -32 -20h-222q-27 0 -12 27l416 694l-385 645q-15 27 12 27h221q21 0 33 -21l252 -422h4l252 422q12 21 33 21h221q27 0 12 -27l-385 -645l416 -694q15 -27 -12 -27z" />
    <glyph glyph-name="Y" unicode="Y" horiz-adv-x="1097" 
d="M657 0h-200q-21 0 -21 20v549l-403 803q-9 21 16 21h207q20 0 29 -21l272 -541h6l275 541q9 21 28 21h199q25 0 16 -21l-403 -803v-549q0 -20 -21 -20z" />
    <glyph glyph-name="Z" unicode="Z" horiz-adv-x="1089" 
d="M979 0h-866q-21 0 -21 20v177q0 10 6 22l629 952v5h-592q-20 0 -20 20v176q0 21 20 21h844q20 0 20 -21v-176q0 -11 -6 -20l-628 -955v-4h614q20 0 20 -20v-177q0 -20 -20 -20z" />
    <glyph glyph-name="bracketleft" unicode="[" horiz-adv-x="573" 
d="M489 -172h-342q-20 0 -20 20v1647q0 21 20 21h342q21 0 21 -21v-135q0 -21 -21 -21h-139q-12 0 -12 -12v-1311q0 -12 12 -12h139q21 0 21 -20v-136q0 -20 -21 -20z" />
    <glyph glyph-name="backslash" unicode="\" horiz-adv-x="870" 
d="M752 -23h-154q-21 0 -27 21l-454 1397q-6 20 14 20h154q20 0 26 -20l455 -1397q6 -21 -14 -21z" />
    <glyph glyph-name="bracketright" unicode="]" horiz-adv-x="573" 
d="M426 -172h-342q-21 0 -21 20v136q0 20 21 20h139q13 0 13 12v1311q0 12 -13 12h-139q-21 0 -21 21v135q0 21 21 21h342q20 0 20 -21v-1647q0 -20 -20 -20z" />
    <glyph glyph-name="asciicircum" unicode="^" 
d="M1008 539h-170q-20 0 -29 20l-236 553h-4l-235 -553q-9 -20 -27 -20h-170q-21 0 -12 20l354 813q9 21 29 21h127q20 0 29 -21l356 -813q9 -20 -12 -20z" />
    <glyph glyph-name="underscore" unicode="_" horiz-adv-x="1007" 
d="M1008 -143v-136h-1008v136h1008z" />
    <glyph glyph-name="grave" unicode="`" horiz-adv-x="864" 
d="M612 1137h-137q-24 0 -41 20l-194 256q-6 7 -3 14t13 7h186q25 0 37 -21l152 -256q9 -20 -13 -20z" />
    <glyph glyph-name="a" unicode="a" horiz-adv-x="1071" 
d="M909 0h-172q-20 0 -20 20v72h-2q-80 -115 -279 -115q-147 0 -239.5 79t-92.5 223q0 156 102 234.5t294 78.5h200q13 0 13 12v47q0 88 -49.5 126t-169.5 38q-141 0 -226 -67q-18 -15 -28 4l-76 135q-10 17 4 26q135 97 350 97q222 0 317 -80t95 -264v-646q0 -20 -21 -20z
M494 164q219 0 219 168v76q0 12 -13 12h-163q-213 0 -213 -133q0 -123 170 -123z" />
    <glyph glyph-name="b" unicode="b" horiz-adv-x="1116" 
d="M643 -23q-179 0 -262 117h-2v-74q0 -20 -21 -20h-188q-20 0 -20 20v1352q0 21 20 21h188q21 0 21 -21v-479h2q83 117 262 117q265 0 342 -238q35 -110 35 -278q0 -169 -35 -279q-77 -238 -342 -238zM584 182q141 0 182 127q20 61 20 185q0 123 -20 184q-41 127 -182 127
q-144 0 -185 -127q-20 -61 -20 -184q0 -124 20 -185q41 -127 185 -127z" />
    <glyph glyph-name="c" unicode="c" horiz-adv-x="972" 
d="M535 -23q-150 0 -257.5 71.5t-150.5 201.5q-31 95 -31 244q0 148 31 243q43 130 150.5 201.5t257.5 71.5q215 0 342 -154q13 -16 -3 -29l-129 -112q-15 -12 -28 4q-77 86 -182 86q-141 0 -185 -129q-20 -59 -20 -182q0 -126 20 -185q44 -127 185 -127q105 0 182 86
q12 15 28 2l129 -112q13 -10 3 -29q-128 -152 -342 -152z" />
    <glyph glyph-name="d" unicode="d" horiz-adv-x="1116" 
d="M946 0h-188q-21 0 -21 20v74h-2q-82 -117 -262 -117q-265 0 -342 238q-35 110 -35 279q0 168 35 278q77 238 342 238q180 0 262 -117h2v479q0 21 21 21h188q21 0 21 -21v-1352q0 -20 -21 -20zM532 182q144 0 185 127q20 61 20 185q0 123 -20 184q-41 127 -185 127
q-141 0 -182 -127q-20 -61 -20 -184q0 -124 20 -185q41 -127 182 -127z" />
    <glyph glyph-name="e" unicode="e" horiz-adv-x="1067" 
d="M543 -23q-154 0 -262.5 72.5t-149.5 202.5q-35 110 -35 242q0 145 33 243q41 129 148 201t255 72q151 0 257.5 -72.5t148.5 -200.5q33 -98 33 -297q0 -20 -23 -20h-608q-12 0 -12 -12q0 -38 14 -76q52 -150 221 -150q147 0 232 94q16 16 30 5l121 -107q15 -12 2 -29
q-143 -168 -405 -168zM739 604q0 46 -12 84q-20 60 -71.5 93.5t-120.5 33.5q-151 0 -195 -127q-12 -38 -12 -84q0 -12 12 -12h387q12 0 12 12z" />
    <glyph glyph-name="f" unicode="f" horiz-adv-x="671" 
d="M389 0h-188q-21 0 -21 20v777q0 12 -12 12h-66q-20 0 -20 20v138q0 20 20 20h66q12 0 12 12v64q0 330 328 330h90q20 0 20 -21v-164q0 -20 -20 -20h-63q-75 0 -100 -24t-25 -97v-68q0 -12 12 -12h176q20 0 20 -20v-138q0 -20 -20 -20h-176q-12 0 -12 -12v-777
q0 -20 -21 -20z" />
    <glyph glyph-name="g" unicode="g" horiz-adv-x="1097" 
d="M487 -391q-105 0 -204 40t-154 107q-12 15 2 29l121 121q16 16 31 0q95 -92 215 -92q221 0 221 235v92h-2q-73 -114 -256 -114q-125 0 -211.5 61t-124.5 178q-33 98 -33 252q0 152 33 250q76 242 336 242q183 0 256 -117h2v74q0 20 20 20h189q20 0 20 -20v-906
q0 -217 -118.5 -334.5t-342.5 -117.5zM520 229q135 0 176 127q23 67 23 162q0 91 -23 162q-40 125 -176 125q-134 0 -174 -125q-22 -68 -22 -162q0 -98 22 -162q41 -127 174 -127z" />
    <glyph glyph-name="h" unicode="h" horiz-adv-x="1122" 
d="M963 0h-189q-20 0 -20 20v570q0 100 -49 157.5t-138 57.5q-87 0 -137.5 -58.5t-50.5 -156.5v-570q0 -20 -21 -20h-188q-20 0 -20 20v1352q0 21 20 21h188q21 0 21 -21v-477h2q80 115 260 115q154 0 248 -102t94 -265v-623q0 -20 -20 -20z" />
    <glyph glyph-name="i" unicode="i" horiz-adv-x="528" 
d="M358 1174h-188q-20 0 -20 20v178q0 21 20 21h188q21 0 21 -21v-178q0 -20 -21 -20zM358 0h-188q-20 0 -20 20v947q0 20 20 20h188q21 0 21 -20v-947q0 -20 -21 -20z" />
    <glyph glyph-name="j" unicode="j" horiz-adv-x="528" 
d="M358 1174h-188q-20 0 -20 20v178q0 21 20 21h188q21 0 21 -21v-178q0 -20 -21 -20zM47 -369h-57q-21 0 -21 21v164q0 20 21 20h45q63 0 89 26t26 91v1014q0 20 20 20h188q21 0 21 -20v-1010q0 -326 -332 -326z" />
    <glyph glyph-name="k" unicode="k" horiz-adv-x="1069" 
d="M1010 0h-215q-22 0 -33 20l-250 414l-133 -153v-261q0 -20 -21 -20h-188q-20 0 -20 20v1352q0 21 20 21h188q21 0 21 -21v-803l338 398q17 20 39 20h209q8 0 11 -7t-3 -13l-314 -361l361 -586q4 -6 1 -13t-11 -7z" />
    <glyph glyph-name="l" unicode="l" horiz-adv-x="595" 
d="M506 -12h-90q-142 0 -206.5 67.5t-64.5 214.5v1102q0 21 21 21h188q21 0 21 -21v-1089q0 -49 20.5 -69.5t65.5 -20.5h45q20 0 20 -21v-164q0 -20 -20 -20z" />
    <glyph glyph-name="m" unicode="m" horiz-adv-x="1726" 
d="M1567 0h-189q-20 0 -20 20v570q0 100 -49 157.5t-138 57.5q-87 0 -137.5 -58.5t-50.5 -156.5v-570q0 -20 -20 -20h-189q-20 0 -20 20v570q0 100 -49 157.5t-138 57.5q-87 0 -137.5 -58.5t-50.5 -156.5v-570q0 -20 -21 -20h-188q-20 0 -20 20v947q0 20 20 20h188
q21 0 21 -20v-72h2q80 115 260 115q179 0 270 -131h2q119 131 316 131q165 0 261.5 -101.5t96.5 -265.5v-623q0 -20 -20 -20z" />
    <glyph glyph-name="n" unicode="n" horiz-adv-x="1122" 
d="M963 0h-189q-20 0 -20 20v570q0 100 -49 157.5t-138 57.5q-87 0 -137.5 -58.5t-50.5 -156.5v-570q0 -20 -21 -20h-188q-20 0 -20 20v947q0 20 20 20h188q21 0 21 -20v-72h2q80 115 260 115q154 0 248 -102t94 -265v-623q0 -20 -20 -20z" />
    <glyph glyph-name="o" unicode="o" horiz-adv-x="1071" 
d="M537 -23q-152 0 -259.5 72t-148.5 201q-33 98 -33 244q0 145 33 243q41 129 148.5 201t259.5 72q149 0 256.5 -72t148.5 -201q33 -98 33 -243q0 -146 -33 -244q-41 -129 -148.5 -201t-256.5 -72zM537 182q137 0 184 129q20 61 20 183q0 121 -20 182q-47 129 -184 129
q-141 0 -187 -129q-20 -61 -20 -182q0 -122 20 -183q46 -129 187 -129z" />
    <glyph glyph-name="p" unicode="p" horiz-adv-x="1116" 
d="M358 -369h-188q-20 0 -20 21v1315q0 20 20 20h188q21 0 21 -20v-74h2q83 117 262 117q265 0 342 -238q35 -110 35 -278q0 -169 -35 -279q-77 -238 -342 -238q-179 0 -262 117h-2v-442q0 -21 -21 -21zM584 182q141 0 182 127q20 61 20 185q0 123 -20 184q-41 127 -182 127
q-144 0 -185 -127q-20 -61 -20 -184q0 -124 20 -185q41 -127 185 -127z" />
    <glyph glyph-name="q" unicode="q" horiz-adv-x="1116" 
d="M946 -369h-188q-21 0 -21 21v442h-2q-82 -117 -262 -117q-265 0 -342 238q-35 110 -35 279q0 168 35 278q77 238 342 238q180 0 262 -117h2v74q0 20 21 20h188q21 0 21 -20v-1315q0 -21 -21 -21zM532 182q144 0 185 127q20 61 20 185q0 123 -20 184q-41 127 -185 127
q-141 0 -182 -127q-20 -61 -20 -184q0 -124 20 -185q41 -127 182 -127z" />
    <glyph glyph-name="r" unicode="r" horiz-adv-x="866" 
d="M358 0h-188q-20 0 -20 20v947q0 20 20 20h188q21 0 21 -20v-84h2q80 127 256 127q125 0 207 -82q13 -13 4 -29l-109 -137q-13 -16 -28 -4q-74 47 -146 47q-186 0 -186 -250v-535q0 -20 -21 -20z" />
    <glyph glyph-name="s" unicode="s" horiz-adv-x="1019" 
d="M528 -23q-254 0 -424 156q-14 15 0 29l117 123q15 15 29 0q56 -50 135.5 -81.5t153.5 -31.5q87 0 134.5 31t47.5 86q0 49 -37 75t-127 33l-106 11q-304 30 -304 290q0 147 100.5 229.5t282.5 82.5q217 0 371 -121q17 -13 4 -29l-100 -121q-12 -14 -29 -4q-116 82 -258 82
q-70 0 -109.5 -28.5t-39.5 -73.5q0 -46 36.5 -72t124.5 -33l107 -10q150 -13 227.5 -88.5t77.5 -200.5q0 -154 -109 -244t-305 -90z" />
    <glyph glyph-name="t" unicode="t" horiz-adv-x="657" 
d="M537 -12h-99q-145 0 -209.5 69.5t-64.5 218.5v521q0 12 -12 12h-66q-20 0 -20 20v138q0 20 20 20h66q12 0 12 12v271q0 20 20 20h189q20 0 20 -20v-271q0 -12 13 -12h131q20 0 20 -20v-138q0 -20 -20 -20h-131q-13 0 -13 -12v-512q0 -51 21 -71.5t71 -20.5h52
q20 0 20 -21v-164q0 -20 -20 -20z" />
    <glyph glyph-name="u" unicode="u" horiz-adv-x="1114" 
d="M944 0h-188q-21 0 -21 20v72h-2q-89 -115 -256 -115q-154 0 -247 102t-93 265v623q0 20 21 20h188q21 0 21 -20v-570q0 -100 47.5 -157.5t136.5 -57.5q86 0 135 58t49 155v572q0 20 21 20h188q21 0 21 -20v-947q0 -20 -21 -20z" />
    <glyph glyph-name="v" unicode="v" horiz-adv-x="995" 
d="M586 0h-164q-21 0 -27 20l-348 947q-6 20 16 20h201q19 0 25 -20l217 -641h4l213 641q6 20 25 20h196q23 0 17 -20l-349 -947q-6 -20 -26 -20z" />
    <glyph glyph-name="w" unicode="w" horiz-adv-x="1542" 
d="M1163 0h-168q-18 0 -24 20l-191 631h-4l-192 -631q-6 -20 -25 -20h-168q-18 0 -24 20l-312 947q-6 20 15 20h196q21 0 27 -20l190 -652h4l189 652q6 20 26 20h148q21 0 27 -20l200 -652h4l181 652q6 20 26 20h197q20 0 14 -20l-311 -947q-6 -20 -25 -20z" />
    <glyph glyph-name="x" unicode="x" horiz-adv-x="1013" 
d="M963 0h-205q-19 0 -33 20l-205 302h-2l-205 -302q-14 -20 -34 -20h-203q-28 0 -17 20l334 492l-309 455q-11 20 16 20h205q24 0 35 -20l178 -267h2l180 267q14 20 33 20h205q27 0 16 -20l-309 -455l334 -492q11 -20 -16 -20z" />
    <glyph glyph-name="y" unicode="y" horiz-adv-x="993" 
d="M254 -369h-64q-20 0 -20 21v164q0 20 20 20h37q57 0 91 27t57 90l28 84l-360 930q-6 20 16 20h203q19 0 25 -20l223 -645h4l213 645q6 20 25 20h194q23 0 17 -20l-377 -1028q-65 -177 -137 -240q-71 -68 -195 -68z" />
    <glyph glyph-name="z" unicode="z" horiz-adv-x="993" 
d="M866 0h-739q-21 0 -21 20v150q0 10 7 20l503 592v4h-462q-21 0 -21 21v160q0 20 21 20h712q21 0 21 -20v-160q0 -12 -6 -21l-498 -581v-4h483q21 0 21 -21v-160q0 -20 -21 -20z" />
    <glyph glyph-name="braceleft" unicode="{" horiz-adv-x="708" 
d="M627 -172h-119q-117 0 -180.5 64t-63.5 182v344q0 157 -139 157q-21 0 -21 21v162q0 20 21 20q139 0 139 158v334q0 118 63.5 182t180.5 64h119q20 0 20 -21v-135q0 -21 -20 -21h-64q-88 0 -88 -86v-323q0 -115 -31.5 -170.5t-111.5 -81.5v-2q80 -26 111.5 -81.5
t31.5 -170.5v-334q0 -86 88 -86h64q20 0 20 -20v-136q0 -20 -20 -20z" />
    <glyph glyph-name="bar" unicode="|" horiz-adv-x="675" 
d="M412 -172h-148q-20 0 -20 20v1647q0 21 20 21h148q20 0 20 -21v-1647q0 -20 -20 -20z" />
    <glyph glyph-name="braceright" unicode="}" horiz-adv-x="708" 
d="M201 -172h-117q-21 0 -21 20v136q0 20 21 20h63q86 0 86 86v334q0 114 33 169.5t113 82.5v2q-80 27 -113 82.5t-33 169.5v323q0 86 -86 86h-63q-21 0 -21 21v135q0 21 21 21h117q117 0 180 -64t63 -182v-334q0 -158 140 -158q20 0 20 -20v-162q0 -21 -20 -21
q-140 0 -140 -157v-344q0 -118 -63 -182t-180 -64z" />
    <glyph glyph-name="asciitilde" unicode="~" 
d="M530 483q-82 52 -137 52q-82 0 -141 -103q-10 -19 -31 -4l-106 64q-15 9 -6 28q41 92 117.5 145.5t168.5 53.5t215 -72q80 -51 135 -51q85 0 144 102q10 19 31 4l106 -63q16 -9 6 -29q-35 -69 -84.5 -116.5t-113 -70.5t-142 -8.5t-162.5 68.5z" />
    <glyph glyph-name="uni00A0" unicode="&#xa0;" horiz-adv-x="483" 
 />
    <glyph glyph-name="exclamdown" unicode="&#xa1;" horiz-adv-x="628" 
d="M254 598h121q20 0 20 -20l47 -963q0 -21 -20 -21h-215q-21 0 -21 21l47 963q0 20 21 20zM438 967v-209q0 -21 -20 -21h-205q-20 0 -20 21v209q0 20 20 20h205q20 0 20 -20z" />
    <glyph glyph-name="cent" unicode="&#xa2;" 
d="M664 1169v-161q191 -18 301 -152q13 -17 -2 -29l-127 -112q-16 -13 -29 4q-67 73 -143 82v-617q77 12 143 84q12 15 29 2l127 -112q12 -9 2 -29q-107 -131 -301 -149v-162q0 -21 -21 -21h-70q-20 0 -20 21v164q-281 24 -358 268q-31 95 -31 244q0 148 31 243
q80 245 358 269v163q0 21 20 21h70q21 0 21 -21zM397 494q0 -124 21 -185q30 -102 135 -123v613q-105 -21 -135 -123q-21 -62 -21 -182z" />
    <glyph glyph-name="sterling" unicode="&#xa3;" 
d="M954 0h-739q-20 0 -20 20v160q0 15 10 25q26 26 37.5 42.5t20.5 52t9 91.5v160q0 12 -12 12h-96q-21 0 -21 21v131q0 20 21 20h96q12 0 12 13v282q0 182 96.5 283.5t264.5 101.5q133 0 224 -70.5t116 -187.5q3 -19 -19 -22l-180 -43q-19 -3 -22 16q-21 102 -121 102
q-59 0 -92 -38t-33 -105v-319q0 -13 12 -13h244q20 0 20 -20v-131q0 -21 -20 -21h-244q-12 0 -12 -12v-121q0 -150 -47 -221v-4h495q21 0 21 -21v-164q0 -20 -21 -20z" />
    <glyph glyph-name="currency" unicode="&#xa4;" 
d="M1055 297l-109 -111q-14 -14 -28 0l-121 121q-100 -61 -221.5 -61t-221.5 61l-118 -119q-13 -13 -29 0l-109 111q-14 15 0 29l119 121q-55 98 -55 213q0 123 57 215l-121 122q-13 13 0 29l109 111q16 13 29 0l120 -121q103 60 219.5 60t219.5 -60l120 121q15 15 29 0
l109 -111q13 -16 0 -29l-121 -120q59 -103 59 -217q0 -120 -57 -216l121 -120q13 -13 0 -29zM412 494q65 -68 163 -68q99 0 164 68q66 69 66 168q0 98 -66 167q-65 68 -164 68q-98 0 -163 -68q-64 -67 -64 -167q0 -101 64 -168z" />
    <glyph glyph-name="yen" unicode="&#xa5;" 
d="M664 0h-189q-20 0 -20 20v248q0 13 -13 13h-249q-21 0 -21 20v119q0 20 21 20h249q13 0 13 13v84q0 12 -13 12h-249q-21 0 -21 20v119q0 21 21 21h202v4l-309 659q-9 21 14 21h201q21 0 27 -21l241 -569h6l238 569q6 21 27 21h198q24 0 15 -21l-310 -659v-4h201
q21 0 21 -21v-119q0 -20 -21 -20h-248q-12 0 -12 -12v-84q0 -13 12 -13h248q21 0 21 -20v-119q0 -20 -21 -20h-248q-12 0 -12 -13v-248q0 -20 -20 -20z" />
    <glyph glyph-name="brokenbar" unicode="&#xa6;" horiz-adv-x="675" 
d="M412 795h-148q-20 0 -20 20v680q0 21 20 21h148q20 0 20 -21v-680q0 -20 -20 -20zM412 -172h-148q-20 0 -20 20v689q0 20 20 20h148q20 0 20 -20v-689q0 -20 -20 -20z" />
    <glyph glyph-name="section" unicode="&#xa7;" horiz-adv-x="1185" 
d="M588 -391q-163 0 -258 75.5t-107 202.5q-3 20 13 23l167 35q18 4 21 -15q18 -137 160 -137q74 0 114.5 37.5t40.5 101.5q0 79 -55 126t-188 77q-306 74 -306 381q0 108 51.5 194.5t139.5 127.5v2q-139 80 -139 254q0 134 100 227q101 94 256 94q165 0 258 -84
q94 -82 100 -196q0 -18 -14 -21l-166 -35q-20 -3 -20 15q-8 63 -48 100t-106 37q-68 0 -107.5 -37t-39.5 -100q0 -78 53 -121.5t184 -75.5q303 -76 303 -381q0 -107 -53.5 -195.5t-136.5 -125.5v-2q81 -42 114 -104.5t33 -166.5q0 -132 -102 -221q-103 -92 -262 -92z
M594 319q87 0 137.5 52t50.5 145t-50.5 145t-137.5 52q-89 0 -140 -52t-51 -145t51 -145t140 -52z" />
    <glyph glyph-name="dieresis" unicode="&#xa8;" horiz-adv-x="864" 
d="M713 1174h-158q-20 0 -20 20v178q0 21 20 21h158q20 0 20 -21v-178q0 -20 -20 -20zM311 1174h-157q-21 0 -21 20v178q0 21 21 21h157q21 0 21 -21v-178q0 -20 -21 -20z" />
    <glyph glyph-name="copyright" unicode="&#xa9;" horiz-adv-x="1691" 
d="M1358 184q-207 -207 -512 -207t-512 207q-207 210 -207 512q0 303 207 510q206 209 512 209t512 -209q207 -207 207 -510q0 -302 -207 -512zM449 293q160 -160 397 -160q238 0 395 160q160 165 160 403q0 242 -160 402q-155 162 -395 162q-239 0 -397 -162
q-158 -161 -158 -402q0 -237 158 -403zM868 293q-258 0 -329 221q-23 77 -23 182q0 106 23 183q71 221 329 221q167 0 267 -115q13 -13 -2 -29l-95 -84q-14 -12 -28 2q-62 68 -140 68q-120 0 -161 -111q-13 -41 -13 -135t13 -135q40 -110 161 -110q79 0 140 67q14 14 28 2
l95 -84q15 -15 2 -28q-100 -115 -267 -115z" />
    <glyph glyph-name="ordfeminine" unicode="&#xaa;" horiz-adv-x="710" 
d="M604 803h-131q-20 0 -20 20v27h-4q-51 -57 -170 -57q-94 0 -151.5 46t-57.5 130q0 198 258 198h108q13 0 13 13v14q0 63 -125 63q-76 0 -134 -30q-19 -9 -28 6l-56 96q-10 19 7 29q83 51 233 51q152 0 215.5 -49.5t63.5 -161.5v-375q0 -20 -21 -20zM328 932q121 0 121 84
v14q0 12 -13 12h-94q-98 0 -98 -57q0 -53 84 -53z" />
    <glyph glyph-name="guillemotleft" unicode="&#xab;" horiz-adv-x="1110" 
d="M969 106l-418 420q-15 14 0 29l418 420q6 6 13 3t7 -11v-197q0 -23 -20 -43l-178 -178q-9 -9 0 -17l178 -178q20 -20 20 -43v-196q0 -8 -7 -11.5t-13 2.5zM504 106l-418 420q-14 14 0 29l418 420q6 6 13 3t7 -11v-197q0 -23 -20 -43l-178 -178q-8 -9 0 -17l178 -178
q20 -20 20 -43v-196q0 -8 -7 -11.5t-13 2.5z" />
    <glyph glyph-name="logicalnot" unicode="&#xac;" 
d="M991 188h-166q-20 0 -20 21v244q0 12 -12 12h-660q-20 0 -20 20v160q0 21 20 21h858q21 0 21 -21v-436q0 -21 -21 -21z" />
    <glyph glyph-name="uni00AD" unicode="&#xad;" horiz-adv-x="788" 
d="M676 442h-563q-21 0 -21 21v162q0 20 21 20h563q20 0 20 -20v-162q0 -21 -20 -21z" />
    <glyph glyph-name="registered" unicode="&#xae;" horiz-adv-x="915" 
d="M66 1010q0 164 112 276q115 115 279 115q163 0 278 -115q113 -113 113 -276q0 -168 -113 -281t-278 -113q-166 0 -279 113q-112 112 -112 281zM764 1010q0 133 -88 221q-90 90 -219 90t-219 -90q-88 -88 -88 -221q0 -138 88 -226t219 -88t219 88t88 226zM379 795h-70
q-14 0 -14 14v405q0 15 14 15h170q75 0 117.5 -35t42.5 -98q0 -89 -82 -123l86 -164q8 -14 -10 -14h-74q-12 0 -18 14l-80 152h-60q-8 0 -8 -9v-143q0 -14 -14 -14zM401 1047h78q66 0 66 49t-66 49h-78q-8 0 -8 -8v-82q0 -8 8 -8z" />
    <glyph glyph-name="overscore" unicode="&#xaf;" horiz-adv-x="864" 
d="M700 1202h-538q-21 0 -21 21v125q0 20 21 20h538q21 0 21 -20v-125q0 -21 -21 -21z" />
    <glyph glyph-name="degree" unicode="&#xb0;" horiz-adv-x="952" 
d="M477 809q-131 0 -217 86q-86 89 -86 217q0 129 86 215q85 88 217 88q128 0 213 -88q88 -85 88 -215q0 -129 -88 -217q-86 -86 -213 -86zM477 942q69 0 115.5 49t46.5 121q0 73 -46.5 121.5t-115.5 48.5q-72 0 -118 -48t-46 -122t46 -122t118 -48z" />
    <glyph glyph-name="plusminus" unicode="&#xb1;" 
d="M645 322h-166q-20 0 -20 20v315q0 13 -13 13h-313q-20 0 -20 20v160q0 20 20 20h313q13 0 13 13v315q0 21 20 21h166q21 0 21 -21v-315q0 -13 12 -13h313q21 0 21 -20v-160q0 -20 -21 -20h-313q-12 0 -12 -13v-315q0 -20 -21 -20zM991 0h-858q-20 0 -20 20v162
q0 21 20 21h858q21 0 21 -21v-162q0 -20 -21 -20z" />
    <glyph glyph-name="twosuperior" unicode="&#xb2;" horiz-adv-x="714" 
d="M610 881h-501q-21 0 -21 20v117q0 17 12 29l295 323q56 59 56 113q0 41 -24 64.5t-65 23.5q-85 0 -100 -86q-3 -20 -22 -17l-134 29q-19 3 -16 23q9 74 82 141q71 68 193 68q118 0 192 -69.5t74 -176.5q0 -101 -90 -205l-224 -238v-2h293q21 0 21 -20v-117q0 -20 -21 -20
z" />
    <glyph glyph-name="threesuperior" unicode="&#xb3;" horiz-adv-x="714" 
d="M365 864q-113 0 -188.5 47.5t-98.5 139.5q-3 23 14 26l131 33q15 3 25 -16q35 -72 112 -72q47 0 77 29t30 73q0 48 -31 75.5t-86 27.5h-41q-20 0 -20 20v117q0 20 20 20h31q106 0 106 93q0 94 -94 94q-70 0 -98 -60q-9 -15 -27 -12l-123 29q-17 3 -14 24q19 79 90.5 128
t175.5 49q127 0 199 -64t72 -174q0 -101 -84 -170v-2q41 -19 72.5 -72.5t31.5 -118.5q0 -121 -76.5 -192.5t-205.5 -71.5z" />
    <glyph glyph-name="acute" unicode="&#xb4;" horiz-adv-x="864" 
d="M401 1137h-139q-21 0 -12 20l153 256q12 21 37 21h187q10 0 13 -7t-3 -14l-195 -256q-17 -20 -41 -20z" />
    <glyph glyph-name="mu" unicode="&#xb5;" horiz-adv-x="1185" 
d="M776 115h-2q-73 -138 -242 -138q-105 0 -149 62h-4v-387q0 -21 -21 -21h-188q-20 0 -20 21v1315q0 20 20 20h188q21 0 21 -20v-572q0 -99 48.5 -156t135.5 -57t139 59.5t52 153.5v572q0 20 20 20h189q20 0 20 -20v-682q0 -57 10.5 -74.5t48.5 -17.5q21 0 21 -21v-164
q0 -20 -21 -20h-51q-99 0 -147.5 29t-67.5 98z" />
    <glyph glyph-name="paragraph" unicode="&#xb6;" horiz-adv-x="1298" 
d="M1100 -369h-158q-20 0 -20 21v1536q0 12 -13 12h-145q-12 0 -12 -12v-1536q0 -21 -21 -21h-158q-20 0 -20 21v876q-179 9 -295 131q-111 123 -111 302q0 186 123 309t338 123h492q20 0 20 -21v-1720q0 -21 -20 -21z" />
    <glyph glyph-name="middot" unicode="&#xb7;" horiz-adv-x="516" 
d="M360 418h-204q-21 0 -21 20v209q0 21 21 21h204q21 0 21 -21v-209q0 -20 -21 -20z" />
    <glyph glyph-name="cedilla" unicode="&#xb8;" horiz-adv-x="864" 
d="M465 -317h-160q-20 0 -14 20l121 297q9 20 26 20h140q20 0 14 -20l-94 -297q-6 -20 -33 -20z" />
    <glyph glyph-name="onesuperior" unicode="&#xb9;" horiz-adv-x="714" 
d="M477 881h-137q-21 0 -21 20v602h-4l-129 -84q-8 -5 -14 0t-6 15v147q0 21 16 31l127 86q20 14 35 14h133q21 0 21 -20v-791q0 -20 -21 -20z" />
    <glyph glyph-name="ordmasculine" unicode="&#xba;" horiz-adv-x="729" 
d="M84 965q-18 52 -18 133q0 80 18 133q58 178 281 178q222 0 280 -178q19 -55 19 -133t-19 -133q-59 -179 -280 -179q-222 0 -281 179zM365 948q74 0 98 68q23 82 0 164q-24 67 -98 67q-77 0 -101 -67q-23 -82 0 -164q24 -68 101 -68z" />
    <glyph glyph-name="guillemotright" unicode="&#xbb;" horiz-adv-x="1110" 
d="M1038 526l-417 -420q-6 -6 -13.5 -2.5t-7.5 11.5v196q0 22 21 43l178 178q9 8 0 17l-178 178q-21 21 -21 43v197q0 8 7.5 11t13.5 -3l417 -420q14 -15 0 -29zM573 526l-417 -420q-6 -6 -13.5 -2.5t-7.5 11.5v196q0 22 21 43l178 178q8 8 0 17l-178 178q-21 21 -21 43v197
q0 8 7.5 11t13.5 -3l417 -420q15 -15 0 -29z" />
    <glyph glyph-name="onequarter" unicode="&#xbc;" horiz-adv-x="1722" 
d="M1448 0h-131q-21 0 -21 20v91q0 12 -12 12h-332q-20 0 -20 20v113q0 18 8 31l254 524q9 20 29 20h147q21 0 12 -20l-249 -532v-3h151q12 0 12 13v168q0 20 21 20h131q20 0 20 -20v-168q0 -13 13 -13h35q20 0 20 -20v-113q0 -20 -20 -20h-35q-13 0 -13 -12v-91
q0 -20 -20 -20zM489 -23h-135q-22 0 -10 21l809 1397q11 20 33 20h133q10 0 13.5 -6.5t-1.5 -13.5l-809 -1397q-12 -21 -33 -21zM498 561h-138q-20 0 -20 21v602h-4l-129 -84q-7 -5 -14 -0.5t-7 14.5v148q0 20 17 30l127 86q21 15 35 15h133q20 0 20 -21v-790q0 -21 -20 -21
z" />
    <glyph glyph-name="onehalf" unicode="&#xbd;" horiz-adv-x="1804" 
d="M1597 0h-501q-21 0 -21 20v117q0 17 12 29l295 323q56 59 56 113q0 41 -23.5 64.5t-64.5 23.5q-86 0 -101 -86q-3 -19 -22 -16l-133 28q-20 3 -17 23q9 74 82 141q71 68 193 68q118 0 192 -69.5t74 -176.5q0 -101 -90 -205l-223 -237v-2h292q21 0 21 -21v-117
q0 -20 -21 -20zM489 -23h-135q-22 0 -10 21l809 1397q11 20 33 20h133q10 0 13.5 -6.5t-1.5 -13.5l-809 -1397q-12 -21 -33 -21zM498 561h-138q-20 0 -20 21v602h-4l-129 -84q-7 -5 -14 -0.5t-7 14.5v148q0 20 17 30l127 86q21 15 35 15h133q20 0 20 -21v-790q0 -21 -20 -21
z" />
    <glyph glyph-name="threequarters" unicode="&#xbe;" horiz-adv-x="1871" 
d="M1602 0h-132q-20 0 -20 20v91q0 12 -12 12h-332q-21 0 -21 20v113q0 16 9 31l254 524q9 20 28 20h148q21 0 12 -20l-250 -532v-3h152q12 0 12 13v168q0 20 20 20h132q20 0 20 -20v-168q0 -13 12 -13h35q21 0 21 -20v-113q0 -20 -21 -20h-35q-12 0 -12 -12v-91
q0 -20 -20 -20zM477 545q-113 0 -188.5 47t-98.5 139q-3 24 15 27l131 33q14 3 24 -17q35 -72 113 -72q47 0 77 29t30 74q0 48 -31 75t-86 27h-41q-21 0 -21 21v116q0 21 21 21h31q106 0 106 92q0 94 -94 94q-68 0 -98 -59q-9 -15 -27 -12l-123 28q-17 3 -14 25
q19 79 90.5 127.5t175.5 48.5q127 0 198.5 -64t71.5 -174q0 -101 -84 -170v-2q41 -19 73 -72t32 -118q0 -121 -77 -192.5t-206 -71.5zM647 -23h-135q-22 0 -10 21l809 1397q11 20 32 20h134q10 0 13.5 -6.5t-1.5 -13.5l-809 -1397q-12 -21 -33 -21z" />
    <glyph glyph-name="questiondown" unicode="&#xbf;" horiz-adv-x="950" 
d="M397 598h191q20 0 20 -20v-84q0 -101 -53 -175l-162 -221q-69 -90 -69 -168q0 -68 43.5 -110.5t115.5 -42.5q147 0 174 164q3 19 23 16l184 -29q20 -3 17 -24q-25 -156 -132 -244t-274 -88q-172 0 -278 100q-107 101 -107 256q0 127 84 240l162 221q41 53 41 129v60
q0 20 20 20zM616 967v-209q0 -21 -20 -21h-205q-20 0 -20 21v209q0 20 20 20h205q20 0 20 -20z" />
    <glyph glyph-name="Agrave" unicode="&#xc0;" horiz-adv-x="1263" 
d="M43 20l477 1352q6 21 27 21h188q21 0 27 -21l471 -1352q6 -20 -14 -20h-201q-21 0 -27 20l-92 271h-524l-92 -271q-6 -20 -27 -20h-199q-20 0 -14 20zM635 1047l-186 -541h376l-184 541h-6zM707 1559h-148q-21 0 -37 16l-237 223q-8 8 -5 14.5t13 6.5h201q23 0 38 -21
l183 -219q6 -7 3 -13.5t-11 -6.5z" />
    <glyph glyph-name="Aacute" unicode="&#xc1;" horiz-adv-x="1263" 
d="M43 20l477 1352q6 21 27 21h188q21 0 27 -21l471 -1352q6 -20 -14 -20h-201q-21 0 -27 20l-92 271h-524l-92 -271q-6 -20 -27 -20h-199q-20 0 -14 20zM635 1047l-186 -541h376l-184 541h-6zM717 1559h-146q-8 0 -11 6.5t3 13.5l180 219q15 21 39 21h201q11 0 14 -6.5
t-4 -14.5l-239 -223q-16 -16 -37 -16z" />
    <glyph glyph-name="Acircumflex" unicode="&#xc2;" horiz-adv-x="1263" 
d="M43 20l477 1352q6 21 27 21h188q21 0 27 -21l471 -1352q6 -20 -14 -20h-201q-21 0 -27 20l-92 271h-524l-92 -271q-6 -20 -27 -20h-199q-20 0 -14 20zM635 1047l-186 -541h376l-184 541h-6zM928 1542h-129q-22 0 -43 21l-117 120h-4l-117 -120q-21 -21 -43 -21h-129
q-8 0 -11 7t3 14l201 256q14 20 36 20h123q23 0 37 -20l201 -256q6 -7 3 -14t-11 -7z" />
    <glyph glyph-name="Atilde" unicode="&#xc3;" horiz-adv-x="1263" 
d="M43 20l477 1352q6 21 27 21h188q21 0 27 -21l471 -1352q6 -20 -14 -20h-201q-21 0 -27 20l-92 271h-524l-92 -271q-6 -20 -27 -20h-199q-20 0 -14 20zM635 1047l-186 -541h376l-184 541h-6zM758 1550q-60 0 -137 41q-67 37 -115 37q-62 0 -137 -63q-19 -16 -19 4v125
q0 19 17 39q63 69 147 69q60 0 137 -41q67 -37 117 -37q59 0 135 64q19 16 19 -4v-125q0 -19 -17 -39q-64 -70 -147 -70z" />
    <glyph glyph-name="Adieresis" unicode="&#xc4;" horiz-adv-x="1263" 
d="M43 20l477 1352q6 21 27 21h188q21 0 27 -21l471 -1352q6 -20 -14 -20h-201q-21 0 -27 20l-92 271h-524l-92 -271q-6 -20 -27 -20h-199q-20 0 -14 20zM635 1047l-186 -541h376l-184 541h-6zM915 1575h-149q-21 0 -21 20v179q0 20 21 20h149q21 0 21 -20v-179
q0 -20 -21 -20zM506 1575h-150q-20 0 -20 20v179q0 20 20 20h150q20 0 20 -20v-179q0 -20 -20 -20z" />
    <glyph glyph-name="Aring" unicode="&#xc5;" horiz-adv-x="1263" 
d="M43 20l477 1352q6 21 27 21h188q21 0 27 -21l471 -1352q6 -20 -14 -20h-201q-21 0 -27 20l-92 271h-524l-92 -271q-6 -20 -27 -20h-199q-20 0 -14 20zM635 1047l-186 -541h376l-184 541h-6zM782 1534q-57 -57 -145 -57t-145 57q-58 58 -58 145q0 88 58 146q59 59 145 59
t145 -59q58 -58 58 -146q0 -87 -58 -145zM565 1604q29 -29 72 -29t72 29q29 31 29 75.5t-29 73.5q-29 31 -72 31t-72 -31q-29 -29 -29 -73.5t29 -75.5z" />
    <glyph glyph-name="AE" unicode="&#xc6;" horiz-adv-x="1896" 
d="M1786 0h-873q-20 0 -20 20v259q0 12 -12 12h-428l-134 -271q-9 -20 -26 -20h-230q-23 0 -14 20l684 1352q9 21 29 21h1024q20 0 20 -21v-176q0 -20 -20 -20h-639q-12 0 -12 -13v-340q0 -12 12 -12h539q20 0 20 -20v-177q0 -20 -20 -20h-539q-12 0 -12 -12v-353
q0 -12 12 -12h639q20 0 20 -20v-177q0 -20 -20 -20zM893 1176h-4l-330 -670h322q12 0 12 12v658z" />
    <glyph glyph-name="Ccedilla" unicode="&#xc7;" horiz-adv-x="1177" 
d="M590 -317h-160q-20 0 -14 20l112 281q-289 55 -378 335q-37 110 -37 377t37 377q54 167 178 254.5t305 87.5q165 0 287 -78.5t184 -220.5q6 -18 -10 -24l-174 -84q-19 -9 -27 10q-82 180 -260 180q-186 0 -250 -184q-25 -80 -25 -318q0 -237 25 -317q64 -184 250 -184
q178 0 260 180q8 19 27 10l174 -84q16 -6 10 -25q-54 -123 -154.5 -198.5t-238.5 -95.5l-88 -279q-6 -20 -33 -20z" />
    <glyph glyph-name="Egrave" unicode="&#xc8;" horiz-adv-x="1167" 
d="M154 20v1352q0 21 20 21h873q20 0 20 -21v-176q0 -20 -20 -20h-639q-13 0 -13 -13v-340q0 -12 13 -12h538q21 0 21 -20v-177q0 -20 -21 -20h-538q-13 0 -13 -12v-353q0 -12 13 -12h639q20 0 20 -20v-177q0 -20 -20 -20h-873q-20 0 -20 20zM725 1559h-147q-21 0 -37 16
l-238 223q-8 8 -5 14.5t13 6.5h201q24 0 39 -21l182 -219q6 -7 3 -13.5t-11 -6.5z" />
    <glyph glyph-name="Eacute" unicode="&#xc9;" horiz-adv-x="1167" 
d="M154 20v1352q0 21 20 21h873q20 0 20 -21v-176q0 -20 -20 -20h-639q-13 0 -13 -13v-340q0 -12 13 -12h538q21 0 21 -20v-177q0 -20 -21 -20h-538q-13 0 -13 -12v-353q0 -12 13 -12h639q20 0 20 -20v-177q0 -20 -20 -20h-873q-20 0 -20 20zM623 1559h-146q-10 0 -12 6.5
t4 13.5l180 219q15 21 39 21h201q10 0 13 -6.5t-3 -14.5l-240 -223q-16 -16 -36 -16z" />
    <glyph glyph-name="Ecircumflex" unicode="&#xca;" horiz-adv-x="1167" 
d="M154 20v1352q0 21 20 21h873q20 0 20 -21v-176q0 -20 -20 -20h-639q-13 0 -13 -13v-340q0 -12 13 -12h538q21 0 21 -20v-177q0 -20 -21 -20h-538q-13 0 -13 -12v-353q0 -12 13 -12h639q20 0 20 -20v-177q0 -20 -20 -20h-873q-20 0 -20 20zM903 1542h-129q-22 0 -43 21
l-117 120h-4l-116 -120q-21 -21 -43 -21h-129q-10 0 -12.5 7t3.5 14l201 256q14 20 37 20h123q23 0 37 -20l200 -256q6 -7 4 -14t-12 -7z" />
    <glyph glyph-name="Edieresis" unicode="&#xcb;" horiz-adv-x="1167" 
d="M154 20v1352q0 21 20 21h873q20 0 20 -21v-176q0 -20 -20 -20h-639q-13 0 -13 -13v-340q0 -12 13 -12h538q21 0 21 -20v-177q0 -20 -21 -20h-538q-13 0 -13 -12v-353q0 -12 13 -12h639q20 0 20 -20v-177q0 -20 -20 -20h-873q-20 0 -20 20zM887 1575h-150q-20 0 -20 20
v179q0 20 20 20h150q20 0 20 -20v-179q0 -20 -20 -20zM477 1575h-149q-21 0 -21 20v179q0 20 21 20h149q21 0 21 -20v-179q0 -20 -21 -20z" />
    <glyph glyph-name="Igrave" unicode="&#xcc;" horiz-adv-x="548" 
d="M160 20v1352q0 21 20 21h201q20 0 20 -21v-1352q0 -20 -20 -20h-201q-20 0 -20 20zM352 1559h-147q-21 0 -37 16l-238 223q-7 8 -4.5 14.5t13.5 6.5h200q24 0 39 -21l182 -219q6 -7 4 -13.5t-12 -6.5z" />
    <glyph glyph-name="Iacute" unicode="&#xcd;" horiz-adv-x="548" 
d="M154 20v1352q0 21 20 21h201q20 0 20 -21v-1352q0 -20 -20 -20h-201q-20 0 -20 20zM354 1559h-145q-8 0 -11 6.5t3 13.5l180 219q15 21 39 21h201q10 0 13 -6.5t-3 -14.5l-240 -223q-16 -16 -37 -16z" />
    <glyph glyph-name="Icircumflex" unicode="&#xce;" horiz-adv-x="548" 
d="M569 1542h-129q-22 0 -43 21l-116 120h-5l-116 -120q-21 -21 -43 -21h-129q-10 0 -12 7t4 14l200 256q14 20 37 20h123q23 0 37 -20l201 -256q6 -7 3.5 -14t-12.5 -7zM156 20v1352q0 21 20 21h201q20 0 20 -21v-1352q0 -20 -20 -20h-201q-20 0 -20 20z" />
    <glyph glyph-name="Idieresis" unicode="&#xcf;" horiz-adv-x="548" 
d="M555 1575h-149q-21 0 -21 20v179q0 20 21 20h149q20 0 20 -20v-179q0 -20 -20 -20zM145 1575h-149q-21 0 -21 20v179q0 20 21 20h149q21 0 21 -20v-179q0 -20 -21 -20zM154 20v1352q0 21 20 21h201q20 0 20 -21v-1352q0 -20 -20 -20h-201q-20 0 -20 20z" />
    <glyph glyph-name="Eth" unicode="&#xd0;" horiz-adv-x="1280" 
d="M672 0h-498q-20 0 -20 20v578q0 12 -13 12h-53q-20 0 -20 21v143q0 21 20 21h53q13 0 13 12v565q0 21 20 21h498q363 0 465 -310q34 -106 34 -387t-34 -387q-102 -309 -465 -309zM408 217h206q230 0 289 176q25 70 25 303t-25 303q-59 177 -289 177h-206q-13 0 -13 -13
v-356q0 -12 13 -12h198q21 0 21 -21v-143q0 -21 -21 -21h-198q-13 0 -13 -12v-369q0 -12 13 -12z" />
    <glyph glyph-name="Ntilde" unicode="&#xd1;" horiz-adv-x="1345" 
d="M154 20v1352q0 21 20 21h188q23 0 35 -21l568 -960h8v960q0 21 20 21h178q21 0 21 -21v-1352q0 -20 -21 -20h-186q-24 0 -35 20l-569 959h-8v-959q0 -20 -21 -20h-178q-20 0 -20 20zM793 1550q-61 0 -138 41q-67 37 -114 37q-63 0 -138 -63q-18 -15 -18 4v125q0 20 16 39
q63 69 148 69q60 0 137 -41q67 -37 117 -37q59 0 135 64q18 15 18 -4v-125q0 -20 -16 -39q-64 -70 -147 -70z" />
    <glyph glyph-name="Ograve" unicode="&#xd2;" horiz-adv-x="1284" 
d="M641 -23q-184 0 -310.5 86t-180.5 250q-37 110 -37 383t37 383q54 164 180.5 250t310.5 86q185 0 312.5 -86t181.5 -250q36 -107 36 -383t-36 -383q-54 -164 -181.5 -250t-312.5 -86zM641 195q195 0 260 182q25 80 25 319q0 240 -25 320q-65 182 -260 182
q-193 0 -258 -182q-25 -80 -25 -320q0 -239 25 -319q65 -182 258 -182zM750 1559h-148q-21 0 -37 16l-237 223q-8 8 -5 14.5t13 6.5h201q23 0 38 -21l183 -219q6 -7 3 -13.5t-11 -6.5z" />
    <glyph glyph-name="Oacute" unicode="&#xd3;" horiz-adv-x="1284" 
d="M641 -23q-184 0 -310.5 86t-180.5 250q-37 110 -37 383t37 383q54 164 180.5 250t310.5 86q185 0 312.5 -86t181.5 -250q36 -107 36 -383t-36 -383q-54 -164 -181.5 -250t-312.5 -86zM641 195q195 0 260 182q25 80 25 319q0 240 -25 320q-65 182 -260 182
q-193 0 -258 -182q-25 -80 -25 -320q0 -239 25 -319q65 -182 258 -182zM680 1559h-145q-10 0 -12.5 6.5t3.5 13.5l181 219q15 21 38 21h201q10 0 13 -6.5t-3 -14.5l-239 -223q-16 -16 -37 -16z" />
    <glyph glyph-name="Ocircumflex" unicode="&#xd4;" horiz-adv-x="1284" 
d="M641 -23q-184 0 -310.5 86t-180.5 250q-37 110 -37 383t37 383q54 164 180.5 250t310.5 86q185 0 312.5 -86t181.5 -250q36 -107 36 -383t-36 -383q-54 -164 -181.5 -250t-312.5 -86zM641 195q195 0 260 182q25 80 25 319q0 240 -25 320q-65 182 -260 182
q-193 0 -258 -182q-25 -80 -25 -320q0 -239 25 -319q65 -182 258 -182zM932 1542h-129q-22 0 -43 21l-117 120h-4l-117 -120q-21 -21 -43 -21h-129q-10 0 -12 7t4 14l201 256q14 20 37 20h122q23 0 37 -20l201 -256q6 -7 4 -14t-12 -7z" />
    <glyph glyph-name="Otilde" unicode="&#xd5;" horiz-adv-x="1284" 
d="M641 -23q-184 0 -310.5 86t-180.5 250q-37 110 -37 383t37 383q54 164 180.5 250t310.5 86q185 0 312.5 -86t181.5 -250q36 -107 36 -383t-36 -383q-54 -164 -181.5 -250t-312.5 -86zM641 195q195 0 260 182q25 80 25 319q0 240 -25 320q-65 182 -260 182
q-193 0 -258 -182q-25 -80 -25 -320q0 -239 25 -319q65 -182 258 -182zM762 1550q-60 0 -137 41q-67 37 -115 37q-62 0 -137 -63q-19 -16 -19 4v125q0 19 17 39q63 69 147 69q60 0 137 -41q67 -37 117 -37q59 0 135 64q19 16 19 -4v-125q0 -19 -17 -39q-64 -70 -147 -70z
" />
    <glyph glyph-name="Odieresis" unicode="&#xd6;" horiz-adv-x="1284" 
d="M641 -23q-184 0 -310.5 86t-180.5 250q-37 110 -37 383t37 383q54 164 180.5 250t310.5 86q185 0 312.5 -86t181.5 -250q36 -107 36 -383t-36 -383q-54 -164 -181.5 -250t-312.5 -86zM641 195q195 0 260 182q25 80 25 319q0 240 -25 320q-65 182 -260 182
q-193 0 -258 -182q-25 -80 -25 -320q0 -239 25 -319q65 -182 258 -182zM920 1575h-150q-20 0 -20 20v179q0 20 20 20h150q20 0 20 -20v-179q0 -20 -20 -20zM510 1575h-150q-20 0 -20 20v179q0 20 20 20h150q20 0 20 -20v-179q0 -20 -20 -20z" />
    <glyph glyph-name="multiply" unicode="&#xd7;" 
d="M963 289l-109 -111q-14 -14 -29 0l-241 238q-8 8 -17 0l-239 -238q-14 -14 -29 0l-109 111q-14 14 0 28l238 240q8 8 0 16l-238 240q-14 15 0 29l109 110q15 14 29 0l239 -237q9 -9 19 0l239 237q15 14 29 0l109 -110q15 -14 0 -29l-240 -238q-9 -9 0 -18l240 -240
q14 -14 0 -28z" />
    <glyph glyph-name="Oslash" unicode="&#xd8;" horiz-adv-x="1284" 
d="M264 -61h-129q-21 0 -10 20l117 197q-57 72 -82 157q-37 110 -37 383t37 383q54 164 180.5 250t310.5 86q171 0 299 -78l60 99q9 18 30 18h129q22 0 11 -20l-119 -197q56 -75 84 -158q37 -110 37 -383t-37 -383q-54 -164 -181.5 -250t-312.5 -86q-171 0 -299 78l-57 -98
q-9 -18 -31 -18zM367 696q0 -239 20 -309l442 754q-69 57 -178 57q-195 0 -260 -182q-24 -76 -24 -320zM651 195q197 0 262 182q25 80 25 319q0 224 -20 305l-443 -751q67 -55 176 -55z" />
    <glyph glyph-name="Ugrave" unicode="&#xd9;" horiz-adv-x="1316" 
d="M657 195q124 0 198.5 79.5t74.5 219.5v878q0 21 20 21h201q20 0 20 -21v-883q0 -237 -143 -374q-144 -138 -371 -138q-224 0 -368 138t-144 374v883q0 21 21 21h201q20 0 20 -21v-878q0 -139 73.5 -219t196.5 -80zM762 1559h-148q-20 0 -36 16l-238 223q-8 8 -5 14.5
t13 6.5h201q24 0 39 -21l182 -219q6 -7 3 -13.5t-11 -6.5z" />
    <glyph glyph-name="Uacute" unicode="&#xda;" horiz-adv-x="1316" 
d="M657 195q124 0 198.5 79.5t74.5 219.5v878q0 21 20 21h201q20 0 20 -21v-883q0 -237 -143 -374q-144 -138 -371 -138q-224 0 -368 138t-144 374v883q0 21 21 21h201q20 0 20 -21v-878q0 -139 73.5 -219t196.5 -80zM700 1559h-145q-10 0 -12 6.5t4 13.5l180 219
q15 21 39 21h201q10 0 13 -6.5t-3 -14.5l-240 -223q-16 -16 -37 -16z" />
    <glyph glyph-name="Ucircumflex" unicode="&#xdb;" horiz-adv-x="1316" 
d="M657 195q124 0 198.5 79.5t74.5 219.5v878q0 21 20 21h201q20 0 20 -21v-883q0 -237 -143 -374q-144 -138 -371 -138q-224 0 -368 138t-144 374v883q0 21 21 21h201q20 0 20 -21v-878q0 -139 73.5 -219t196.5 -80zM948 1542h-129q-22 0 -43 21l-117 120h-4l-116 -120
q-21 -21 -43 -21h-129q-10 0 -12.5 7t3.5 14l201 256q14 20 37 20h123q23 0 37 -20l200 -256q6 -7 4 -14t-12 -7z" />
    <glyph glyph-name="Udieresis" unicode="&#xdc;" horiz-adv-x="1316" 
d="M657 195q124 0 198.5 79.5t74.5 219.5v878q0 21 20 21h201q20 0 20 -21v-883q0 -237 -143 -374q-144 -138 -371 -138q-224 0 -368 138t-144 374v883q0 21 21 21h201q20 0 20 -21v-878q0 -139 73.5 -219t196.5 -80zM938 1575h-150q-20 0 -20 20v179q0 20 20 20h150
q20 0 20 -20v-179q0 -20 -20 -20zM528 1575h-149q-21 0 -21 20v179q0 20 21 20h149q21 0 21 -20v-179q0 -20 -21 -20z" />
    <glyph glyph-name="Yacute" unicode="&#xdd;" horiz-adv-x="1097" 
d="M657 0h-200q-21 0 -21 20v549l-403 803q-9 21 16 21h207q20 0 29 -21l272 -541h6l275 541q9 21 28 21h199q25 0 16 -21l-403 -803v-549q0 -20 -21 -20zM616 1559h-145q-8 0 -11 6.5t3 13.5l180 219q15 21 39 21h201q11 0 14 -6.5t-4 -14.5l-240 -223q-16 -16 -37 -16z
" />
    <glyph glyph-name="Thorn" unicode="&#xde;" horiz-adv-x="1224" 
d="M375 0h-201q-20 0 -20 20v1352q0 21 20 21h201q20 0 20 -21v-201q0 -12 13 -12h288q207 0 332 -119q127 -121 127 -313q0 -195 -129 -315q-125 -119 -330 -119h-288q-13 0 -13 -12v-261q0 -20 -20 -20zM408 512h274q106 0 168.5 58.5t62.5 156.5t-62.5 156.5t-168.5 58.5
h-274q-13 0 -13 -12v-406q0 -12 13 -12z" />
    <glyph glyph-name="germandbls" unicode="&#xdf;" horiz-adv-x="1118" 
d="M641 -6h-59q-21 0 -21 20v162q0 21 21 21h51q112 0 139 82q10 38 10 182q0 147 -12 190q-30 94 -166 94h-22q-21 0 -21 21v164q0 20 21 20h47q137 0 137 129q0 133 -184 133q-106 0 -154.5 -47.5t-48.5 -152.5v-992q0 -20 -21 -20h-188q-20 0 -20 20v981q0 414 425 414
q204 0 312 -85.5t108 -248.5q0 -142 -112 -223v-4q76 -40 106 -129q23 -77 23 -264q0 -195 -25 -275q-32 -102 -115 -147t-231 -45z" />
    <glyph glyph-name="agrave" unicode="&#xe0;" horiz-adv-x="1071" 
d="M909 0h-172q-20 0 -20 20v72h-2q-80 -115 -279 -115q-147 0 -239.5 79t-92.5 223q0 156 102 234.5t294 78.5h200q13 0 13 12v47q0 88 -49.5 126t-169.5 38q-141 0 -226 -67q-18 -15 -28 4l-76 135q-10 17 4 26q135 97 350 97q222 0 317 -80t95 -264v-646q0 -20 -21 -20z
M494 164q219 0 219 168v76q0 12 -13 12h-163q-213 0 -213 -133q0 -123 170 -123zM668 1137h-138q-24 0 -41 20l-194 256q-6 7 -3 14t13 7h187q24 0 36 -21l152 -256q9 -20 -12 -20z" />
    <glyph glyph-name="aacute" unicode="&#xe1;" horiz-adv-x="1071" 
d="M909 0h-172q-20 0 -20 20v72h-2q-80 -115 -279 -115q-147 0 -239.5 79t-92.5 223q0 156 102 234.5t294 78.5h200q13 0 13 12v47q0 88 -49.5 126t-169.5 38q-141 0 -226 -67q-18 -15 -28 4l-76 135q-10 17 4 26q135 97 350 97q222 0 317 -80t95 -264v-646q0 -20 -21 -20z
M494 164q219 0 219 168v76q0 12 -13 12h-163q-213 0 -213 -133q0 -123 170 -123zM575 1137h-139q-21 0 -12 20l154 256q12 21 36 21h187q10 0 13 -7t-3 -14l-195 -256q-17 -20 -41 -20z" />
    <glyph glyph-name="acircumflex" unicode="&#xe2;" horiz-adv-x="1071" 
d="M909 0h-172q-20 0 -20 20v72h-2q-80 -115 -279 -115q-147 0 -239.5 79t-92.5 223q0 156 102 234.5t294 78.5h200q13 0 13 12v47q0 88 -49.5 126t-169.5 38q-141 0 -226 -67q-18 -15 -28 4l-76 135q-10 17 4 26q135 97 350 97q222 0 317 -80t95 -264v-646q0 -20 -21 -20z
M494 164q219 0 219 168v76q0 12 -13 12h-163q-213 0 -213 -133q0 -123 170 -123zM825 1137h-129q-23 0 -43 20l-116 121h-5l-116 -121q-20 -20 -43 -20h-129q-10 0 -12 6.5t4 13.5l200 256q15 21 37 21h123q22 0 37 -21l201 -256q6 -7 3.5 -13.5t-12.5 -6.5z" />
    <glyph glyph-name="atilde" unicode="&#xe3;" horiz-adv-x="1071" 
d="M909 0h-172q-20 0 -20 20v72h-2q-80 -115 -279 -115q-147 0 -239.5 79t-92.5 223q0 156 102 234.5t294 78.5h200q13 0 13 12v47q0 88 -49.5 126t-169.5 38q-141 0 -226 -67q-18 -15 -28 4l-76 135q-10 17 4 26q135 97 350 97q222 0 317 -80t95 -264v-646q0 -20 -21 -20z
M494 164q219 0 219 168v76q0 12 -13 12h-163q-213 0 -213 -133q0 -123 170 -123zM655 1149q-60 0 -137 41q-67 37 -115 37q-61 0 -137 -64q-18 -15 -18 4v125q0 20 16 39q64 70 148 70q60 0 137 -41q67 -37 117 -37q60 0 135 63q18 15 18 -4v-125q0 -19 -16 -38
q-64 -70 -148 -70z" />
    <glyph glyph-name="adieresis" unicode="&#xe4;" horiz-adv-x="1071" 
d="M909 0h-172q-20 0 -20 20v72h-2q-80 -115 -279 -115q-147 0 -239.5 79t-92.5 223q0 156 102 234.5t294 78.5h200q13 0 13 12v47q0 88 -49.5 126t-169.5 38q-141 0 -226 -67q-18 -15 -28 4l-76 135q-10 17 4 26q135 97 350 97q222 0 317 -80t95 -264v-646q0 -20 -21 -20z
M494 164q219 0 219 168v76q0 12 -13 12h-163q-213 0 -213 -133q0 -123 170 -123zM813 1174h-158q-20 0 -20 20v178q0 21 20 21h158q21 0 21 -21v-178q0 -20 -21 -20zM412 1174h-158q-21 0 -21 20v178q0 21 21 21h158q20 0 20 -21v-178q0 -20 -20 -20z" />
    <glyph glyph-name="aring" unicode="&#xe5;" horiz-adv-x="1071" 
d="M909 0h-172q-20 0 -20 20v72h-2q-80 -115 -279 -115q-147 0 -239.5 79t-92.5 223q0 156 102 234.5t294 78.5h200q13 0 13 12v47q0 88 -49.5 126t-169.5 38q-141 0 -226 -67q-18 -15 -28 4l-76 135q-10 17 4 26q135 97 350 97q222 0 317 -80t95 -264v-646q0 -20 -21 -20z
M494 164q219 0 219 168v76q0 12 -13 12h-163q-213 0 -213 -133q0 -123 170 -123zM690 1141q-58 -58 -145 -58q-88 0 -146 58q-57 57 -57 147q0 89 57 146q59 59 146 59q86 0 145 -59q58 -58 58 -146q0 -89 -58 -147zM473 1212q29 -29 71.5 -29t71.5 29q29 31 29 76t-29 74
q-29 31 -71.5 31t-71.5 -31q-29 -29 -29 -74t29 -76z" />
    <glyph glyph-name="ae" unicode="&#xe6;" horiz-adv-x="1669" 
d="M1147 -23q-234 0 -342 156h-2q-89 -156 -367 -156q-147 0 -239.5 79t-92.5 223q0 156 102 234.5t294 78.5h200q13 0 13 12v47q0 88 -49.5 126t-169.5 38q-141 0 -226 -67q-18 -15 -28 4l-76 135q-10 17 4 26q135 97 350 97q244 0 330 -103h4q103 103 285 103
q149 0 255.5 -72.5t147.5 -200.5q33 -98 33 -297q0 -20 -23 -20h-608q-12 0 -12 -12q0 -38 14 -76q52 -150 221 -150q147 0 232 94q16 16 30 5l121 -107q15 -12 2 -29q-143 -168 -403 -168zM1341 604q0 46 -12 84q-20 60 -71.5 93.5t-120.5 33.5q-151 0 -195 -127
q-12 -38 -12 -84q0 -12 12 -12h387q12 0 12 12zM494 164q219 0 219 168v76q0 12 -13 12h-163q-213 0 -213 -133q0 -123 170 -123z" />
    <glyph glyph-name="ccedilla" unicode="&#xe7;" horiz-adv-x="972" 
d="M485 -317h-159q-21 0 -15 20l117 285q-230 46 -301 262q-31 95 -31 244q0 148 31 243q43 130 150.5 201.5t257.5 71.5q215 0 342 -154q13 -16 -3 -29l-129 -112q-15 -12 -28 4q-77 86 -182 86q-141 0 -185 -129q-20 -59 -20 -182q0 -126 20 -185q44 -127 185 -127
q105 0 182 86q12 15 28 2l129 -112q13 -10 3 -29q-103 -121 -271 -145l-88 -281q-6 -20 -33 -20z" />
    <glyph glyph-name="egrave" unicode="&#xe8;" horiz-adv-x="1067" 
d="M543 -23q-154 0 -262.5 72.5t-149.5 202.5q-35 110 -35 242q0 145 33 243q41 129 148 201t255 72q151 0 257.5 -72.5t148.5 -200.5q33 -98 33 -297q0 -20 -23 -20h-608q-12 0 -12 -12q0 -38 14 -76q52 -150 221 -150q147 0 232 94q16 16 30 5l121 -107q15 -12 2 -29
q-143 -168 -405 -168zM739 604q0 46 -12 84q-20 60 -71.5 93.5t-120.5 33.5q-151 0 -195 -127q-12 -38 -12 -84q0 -12 12 -12h387q12 0 12 12zM639 1137h-137q-24 0 -41 20l-195 256q-6 7 -3 14t13 7h187q25 0 37 -21l151 -256q9 -20 -12 -20z" />
    <glyph glyph-name="eacute" unicode="&#xe9;" horiz-adv-x="1067" 
d="M543 -23q-154 0 -262.5 72.5t-149.5 202.5q-35 110 -35 242q0 145 33 243q41 129 148 201t255 72q151 0 257.5 -72.5t148.5 -200.5q33 -98 33 -297q0 -20 -23 -20h-608q-12 0 -12 -12q0 -38 14 -76q52 -150 221 -150q147 0 232 94q16 16 30 5l121 -107q15 -12 2 -29
q-143 -168 -405 -168zM739 604q0 46 -12 84q-20 60 -71.5 93.5t-120.5 33.5q-151 0 -195 -127q-12 -38 -12 -84q0 -12 12 -12h387q12 0 12 12zM569 1137h-139q-21 0 -12 20l153 256q12 21 37 21h187q10 0 13 -7t-3 -14l-195 -256q-17 -20 -41 -20z" />
    <glyph glyph-name="ecircumflex" unicode="&#xea;" horiz-adv-x="1067" 
d="M823 1137h-129q-23 0 -43 20l-116 121h-5l-116 -121q-20 -20 -43 -20h-129q-8 0 -11.5 6.5t2.5 13.5l201 256q15 21 37 21h123q22 0 37 -21l200 -256q6 -7 3 -13.5t-11 -6.5zM543 -23q-154 0 -262.5 72.5t-149.5 202.5q-35 110 -35 242q0 145 33 243q41 129 148 201
t255 72q151 0 257.5 -72.5t148.5 -200.5q33 -98 33 -297q0 -20 -23 -20h-608q-12 0 -12 -12q0 -38 14 -76q52 -150 221 -150q147 0 232 94q16 16 30 5l121 -107q15 -12 2 -29q-143 -168 -405 -168zM739 604q0 46 -12 84q-20 60 -71.5 93.5t-120.5 33.5q-151 0 -195 -127
q-12 -38 -12 -84q0 -12 12 -12h387q12 0 12 12z" />
    <glyph glyph-name="edieresis" unicode="&#xeb;" horiz-adv-x="1067" 
d="M543 -23q-154 0 -262.5 72.5t-149.5 202.5q-35 110 -35 242q0 145 33 243q41 129 148 201t255 72q151 0 257.5 -72.5t148.5 -200.5q33 -98 33 -297q0 -20 -23 -20h-608q-12 0 -12 -12q0 -38 14 -76q52 -150 221 -150q147 0 232 94q16 16 30 5l121 -107q15 -12 2 -29
q-143 -168 -405 -168zM739 604q0 46 -12 84q-20 60 -71.5 93.5t-120.5 33.5q-151 0 -195 -127q-12 -38 -12 -84q0 -12 12 -12h387q12 0 12 12zM811 1174h-158q-20 0 -20 20v178q0 21 20 21h158q20 0 20 -21v-178q0 -20 -20 -20zM410 1174h-158q-21 0 -21 20v178q0 21 21 21
h158q20 0 20 -21v-178q0 -20 -20 -20z" />
    <glyph glyph-name="igrave" unicode="&#xec;" horiz-adv-x="528" 
d="M346 1137h-137q-24 0 -41 20l-195 256q-6 7 -2.5 14t13.5 7h186q25 0 37 -21l151 -256q9 -20 -12 -20zM362 0h-188q-20 0 -20 20v947q0 20 20 20h188q21 0 21 -20v-947q0 -20 -21 -20z" />
    <glyph glyph-name="iacute" unicode="&#xed;" horiz-adv-x="528" 
d="M330 1137h-140q-21 0 -12 20l154 256q12 21 37 21h186q10 0 13 -7t-3 -14l-194 -256q-17 -20 -41 -20zM358 0h-188q-20 0 -20 20v947q0 20 20 20h188q21 0 21 -20v-947q0 -20 -21 -20z" />
    <glyph glyph-name="icircumflex" unicode="&#xee;" horiz-adv-x="528" 
d="M557 1137h-129q-23 0 -43 20l-117 121h-4l-117 -121q-20 -20 -43 -20h-129q-10 0 -12 6.5t4 13.5l201 256q15 21 37 21h123q22 0 37 -21l200 -256q6 -7 4 -13.5t-12 -6.5zM360 0h-188q-20 0 -20 20v947q0 20 20 20h188q21 0 21 -20v-947q0 -20 -21 -20z" />
    <glyph glyph-name="idieresis" unicode="&#xef;" horiz-adv-x="528" 
d="M545 1174h-158q-20 0 -20 20v178q0 21 20 21h158q20 0 20 -21v-178q0 -20 -20 -20zM143 1174h-157q-21 0 -21 20v178q0 21 21 21h157q21 0 21 -21v-178q0 -20 -21 -20zM358 0h-188q-20 0 -20 20v947q0 20 20 20h188q21 0 21 -20v-947q0 -20 -21 -20z" />
    <glyph glyph-name="eth" unicode="&#xf0;" horiz-adv-x="1071" 
d="M821 1186l-129 -39l49 -66q236 -315 236 -592q0 -139 -31 -237q-43 -129 -151.5 -202t-257.5 -73q-152 0 -258.5 71.5t-149.5 201.5q-33 98 -33 211q0 121 31 219q38 122 130 191t214 69q80 0 133 -35h4l-129 178l-186 -57q-21 -6 -27 12l-35 119q-6 21 15 27l133 39
l-109 149q-4 7 0.5 14t12.5 7h202q22 0 37 -21l64 -86l188 57q21 6 27 -12l35 -119q6 -20 -15 -26zM748 463q0 97 -21 162q-44 127 -190 127q-147 0 -191 -127q-20 -61 -20 -162q0 -99 20 -160q44 -127 191 -127q146 0 190 127q21 64 21 160z" />
    <glyph glyph-name="ntilde" unicode="&#xf1;" horiz-adv-x="1122" 
d="M963 0h-189q-20 0 -20 20v570q0 100 -49 157.5t-138 57.5q-87 0 -137.5 -58.5t-50.5 -156.5v-570q0 -20 -21 -20h-188q-20 0 -20 20v947q0 20 20 20h188q21 0 21 -20v-72h2q80 115 260 115q154 0 248 -102t94 -265v-623q0 -20 -20 -20zM680 1149q-60 0 -137 41
q-67 37 -115 37q-61 0 -137 -64q-19 -16 -19 4v125q0 19 17 39q64 70 147 70q60 0 137 -41q67 -37 117 -37q60 0 135 63q19 16 19 -4v-125q0 -18 -17 -38q-64 -70 -147 -70z" />
    <glyph glyph-name="ograve" unicode="&#xf2;" horiz-adv-x="1071" 
d="M537 -23q-152 0 -259.5 72t-148.5 201q-33 98 -33 244q0 145 33 243q41 129 148.5 201t259.5 72q149 0 256.5 -72t148.5 -201q33 -98 33 -243q0 -146 -33 -244q-41 -129 -148.5 -201t-256.5 -72zM537 182q137 0 184 129q20 61 20 183q0 121 -20 182q-47 129 -184 129
q-141 0 -187 -129q-20 -61 -20 -182q0 -122 20 -183q46 -129 187 -129zM629 1137h-137q-24 0 -41 20l-195 256q-6 7 -3 14t13 7h187q24 0 36 -21l152 -256q9 -20 -12 -20z" />
    <glyph glyph-name="oacute" unicode="&#xf3;" horiz-adv-x="1071" 
d="M537 -23q-152 0 -259.5 72t-148.5 201q-33 98 -33 244q0 145 33 243q41 129 148.5 201t259.5 72q149 0 256.5 -72t148.5 -201q33 -98 33 -243q0 -146 -33 -244q-41 -129 -148.5 -201t-256.5 -72zM537 182q137 0 184 129q20 61 20 183q0 121 -20 182q-47 129 -184 129
q-141 0 -187 -129q-20 -61 -20 -182q0 -122 20 -183q46 -129 187 -129zM582 1137h-140q-21 0 -12 20l154 256q12 21 37 21h186q10 0 13 -7t-3 -14l-194 -256q-17 -20 -41 -20z" />
    <glyph glyph-name="ocircumflex" unicode="&#xf4;" horiz-adv-x="1071" 
d="M537 -23q-152 0 -259.5 72t-148.5 201q-33 98 -33 244q0 145 33 243q41 129 148.5 201t259.5 72q149 0 256.5 -72t148.5 -201q33 -98 33 -243q0 -146 -33 -244q-41 -129 -148.5 -201t-256.5 -72zM537 182q137 0 184 129q20 61 20 183q0 121 -20 182q-47 129 -184 129
q-141 0 -187 -129q-20 -61 -20 -182q0 -122 20 -183q46 -129 187 -129zM825 1137h-129q-23 0 -43 20l-116 121h-5l-116 -121q-20 -20 -43 -20h-129q-10 0 -12 6.5t4 13.5l200 256q15 21 37 21h123q22 0 37 -21l201 -256q6 -7 3.5 -13.5t-12.5 -6.5z" />
    <glyph glyph-name="otilde" unicode="&#xf5;" horiz-adv-x="1071" 
d="M537 -23q-152 0 -259.5 72t-148.5 201q-33 98 -33 244q0 145 33 243q41 129 148.5 201t259.5 72q149 0 256.5 -72t148.5 -201q33 -98 33 -243q0 -146 -33 -244q-41 -129 -148.5 -201t-256.5 -72zM537 182q137 0 184 129q20 61 20 183q0 121 -20 182q-47 129 -184 129
q-141 0 -187 -129q-20 -61 -20 -182q0 -122 20 -183q46 -129 187 -129zM655 1149q-60 0 -137 41q-67 37 -115 37q-61 0 -137 -64q-18 -15 -18 4v125q0 20 16 39q64 70 148 70q60 0 137 -41q67 -37 117 -37q60 0 135 63q18 15 18 -4v-125q0 -19 -16 -38q-64 -70 -148 -70z
" />
    <glyph glyph-name="odieresis" unicode="&#xf6;" horiz-adv-x="1071" 
d="M537 -23q-152 0 -259.5 72t-148.5 201q-33 98 -33 244q0 145 33 243q41 129 148.5 201t259.5 72q149 0 256.5 -72t148.5 -201q33 -98 33 -243q0 -146 -33 -244q-41 -129 -148.5 -201t-256.5 -72zM537 182q137 0 184 129q20 61 20 183q0 121 -20 182q-47 129 -184 129
q-141 0 -187 -129q-20 -61 -20 -182q0 -122 20 -183q46 -129 187 -129zM813 1174h-158q-20 0 -20 20v178q0 21 20 21h158q21 0 21 -21v-178q0 -20 -21 -20zM412 1174h-158q-21 0 -21 20v178q0 21 21 21h158q20 0 20 -21v-178q0 -20 -20 -20z" />
    <glyph glyph-name="divide" unicode="&#xf7;" 
d="M657 827q-38 -38 -96 -38t-96 38q-38 41 -38 99t38 96q38 41 96 41t96 -41q41 -38 41 -96t-41 -99zM991 465h-858q-20 0 -20 20v160q0 21 20 21h858q21 0 21 -21v-160q0 -20 -21 -20zM657 106q-38 -38 -96 -38t-96 38q-38 41 -38 99t38 96q38 41 96 41t96 -41
q41 -38 41 -96t-41 -99z" />
    <glyph glyph-name="oslash" unicode="&#xf8;" horiz-adv-x="1071" 
d="M545 -23q-146 0 -250 66l-59 -84q-14 -20 -37 -20h-80q-21 0 -10 20l106 152q-54 61 -78 139q-33 98 -33 244q0 145 33 243q41 129 148.5 201t259.5 72q137 0 248 -66l59 84q15 21 39 21h78q22 0 10 -21l-107 -154q48 -54 78 -137q33 -98 33 -243q0 -146 -33 -244
q-41 -129 -148.5 -201t-256.5 -72zM334 494q0 -124 20 -185l314 461q-49 37 -123 37q-145 0 -191 -129q-20 -64 -20 -184zM545 180q141 0 188 129q21 64 21 185q0 116 -21 184l-313 -461q49 -37 125 -37z" />
    <glyph glyph-name="ugrave" unicode="&#xf9;" horiz-adv-x="1114" 
d="M944 0h-188q-21 0 -21 20v72h-2q-89 -115 -256 -115q-154 0 -247 102t-93 265v623q0 20 21 20h188q21 0 21 -20v-570q0 -100 47.5 -157.5t136.5 -57.5q86 0 135 58t49 155v572q0 20 21 20h188q21 0 21 -20v-947q0 -20 -21 -20zM651 1137h-137q-24 0 -41 20l-194 256
q-6 7 -3 14t13 7h186q25 0 37 -21l152 -256q9 -20 -13 -20z" />
    <glyph glyph-name="uacute" unicode="&#xfa;" horiz-adv-x="1114" 
d="M944 0h-188q-21 0 -21 20v72h-2q-89 -115 -256 -115q-154 0 -247 102t-93 265v623q0 20 21 20h188q21 0 21 -20v-570q0 -100 47.5 -157.5t136.5 -57.5q86 0 135 58t49 155v572q0 20 21 20h188q21 0 21 -20v-947q0 -20 -21 -20zM606 1137h-139q-21 0 -12 20l153 256
q12 21 37 21h186q10 0 13.5 -7t-2.5 -14l-195 -256q-17 -20 -41 -20z" />
    <glyph glyph-name="ucircumflex" unicode="&#xfb;" horiz-adv-x="1114" 
d="M944 0h-188q-21 0 -21 20v72h-2q-89 -115 -256 -115q-154 0 -247 102t-93 265v623q0 20 21 20h188q21 0 21 -20v-570q0 -100 47.5 -157.5t136.5 -57.5q86 0 135 58t49 155v572q0 20 21 20h188q21 0 21 -20v-947q0 -20 -21 -20zM846 1137h-129q-23 0 -43 20l-117 121h-4
l-117 -121q-20 -20 -43 -20h-129q-10 0 -12 6.5t4 13.5l201 256q15 21 37 21h122q22 0 37 -21l201 -256q6 -7 4 -13.5t-12 -6.5z" />
    <glyph glyph-name="udieresis" unicode="&#xfc;" horiz-adv-x="1114" 
d="M944 0h-188q-21 0 -21 20v72h-2q-89 -115 -256 -115q-154 0 -247 102t-93 265v623q0 20 21 20h188q21 0 21 -20v-570q0 -100 47.5 -157.5t136.5 -57.5q86 0 135 58t49 155v572q0 20 21 20h188q21 0 21 -20v-947q0 -20 -21 -20zM834 1174h-158q-21 0 -21 20v178
q0 21 21 21h158q20 0 20 -21v-178q0 -20 -20 -20zM432 1174h-158q-20 0 -20 20v178q0 21 20 21h158q21 0 21 -21v-178q0 -20 -21 -20z" />
    <glyph glyph-name="yacute" unicode="&#xfd;" horiz-adv-x="993" 
d="M254 -369h-64q-20 0 -20 21v164q0 20 20 20h37q57 0 91 27t57 90l28 84l-360 930q-6 20 16 20h203q19 0 25 -20l223 -645h4l213 645q6 20 25 20h194q23 0 17 -20l-377 -1028q-65 -177 -137 -240q-71 -68 -195 -68zM561 1137h-139q-21 0 -12 20l153 256q12 21 37 21h186
q10 0 13.5 -7t-2.5 -14l-195 -256q-17 -20 -41 -20z" />
    <glyph glyph-name="thorn" unicode="&#xfe;" horiz-adv-x="1116" 
d="M358 -369h-188q-20 0 -20 21v1720q0 21 20 21h188q21 0 21 -21v-479h2q83 117 262 117q265 0 342 -238q35 -110 35 -278q0 -169 -35 -279q-77 -238 -342 -238q-179 0 -262 117h-2v-442q0 -21 -21 -21zM584 182q141 0 182 127q20 61 20 185q0 123 -20 184
q-41 127 -182 127q-144 0 -185 -127q-20 -61 -20 -184q0 -124 20 -185q41 -127 185 -127z" />
    <glyph glyph-name="ydieresis" unicode="&#xff;" horiz-adv-x="993" 
d="M254 -369h-64q-20 0 -20 21v164q0 20 20 20h37q57 0 91 27t57 90l28 84l-360 930q-6 20 16 20h203q19 0 25 -20l223 -645h4l213 645q6 20 25 20h194q23 0 17 -20l-377 -1028q-65 -177 -137 -240q-71 -68 -195 -68zM788 1174h-157q-21 0 -21 20v178q0 21 21 21h157
q21 0 21 -21v-178q0 -20 -21 -20zM387 1174h-158q-20 0 -20 20v178q0 21 20 21h158q21 0 21 -21v-178q0 -20 -21 -20z" />
    <glyph glyph-name="Amacron" unicode="&#x100;" horiz-adv-x="1263" 
d="M43 20l477 1352q6 21 27 21h188q21 0 27 -21l471 -1352q6 -20 -14 -20h-201q-21 0 -27 20l-92 271h-524l-92 -271q-6 -20 -27 -20h-199q-20 0 -14 20zM635 1047l-186 -541h376l-184 541h-6zM905 1602h-538q-21 0 -21 20v125q0 20 21 20h538q21 0 21 -20v-125
q0 -20 -21 -20z" />
    <glyph glyph-name="amacron" unicode="&#x101;" horiz-adv-x="1071" 
d="M909 0h-172q-20 0 -20 20v72h-2q-80 -115 -279 -115q-147 0 -239.5 79t-92.5 223q0 156 102 234.5t294 78.5h200q13 0 13 12v47q0 88 -49.5 126t-169.5 38q-141 0 -226 -67q-18 -15 -28 4l-76 135q-10 17 4 26q135 97 350 97q222 0 317 -80t95 -264v-646q0 -20 -21 -20z
M494 164q219 0 219 168v76q0 12 -13 12h-163q-213 0 -213 -133q0 -123 170 -123zM803 1202h-539q-20 0 -20 21v125q0 20 20 20h539q20 0 20 -20v-125q0 -21 -20 -21z" />
    <glyph glyph-name="Abreve" unicode="&#x102;" horiz-adv-x="1263" 
d="M43 20l477 1352q6 21 27 21h188q21 0 27 -21l471 -1352q6 -20 -14 -20h-201q-21 0 -27 20l-92 271h-524l-92 -271q-6 -20 -27 -20h-199q-20 0 -14 20zM635 1047l-186 -541h376l-184 541h-6zM340 1794q0 21 18 21h101q18 0 24 -21q30 -94 154 -94t154 94q6 21 24 21h100
q19 0 19 -21q-8 -111 -88.5 -180.5t-208.5 -69.5t-208.5 69.5t-88.5 180.5z" />
    <glyph glyph-name="abreve" unicode="&#x103;" horiz-adv-x="1071" 
d="M909 0h-172q-20 0 -20 20v72h-2q-80 -115 -279 -115q-147 0 -239.5 79t-92.5 223q0 156 102 234.5t294 78.5h200q13 0 13 12v47q0 88 -49.5 126t-169.5 38q-141 0 -226 -67q-18 -15 -28 4l-76 135q-10 17 4 26q135 97 350 97q222 0 317 -80t95 -264v-646q0 -20 -21 -20z
M494 164q219 0 219 168v76q0 12 -13 12h-163q-213 0 -213 -133q0 -123 170 -123zM238 1382q0 21 18 21h100q19 0 25 -21q30 -92 154 -92q123 0 153 92q6 21 25 21h100q18 0 18 -21q-8 -111 -88 -179t-208 -68t-208.5 68t-88.5 179z" />
    <glyph glyph-name="Aogonek" unicode="&#x104;" horiz-adv-x="1263" 
d="M1061 -389q-89 0 -142 47.5t-53 132.5q0 114 142 209q-10 3 -17 20l-92 271h-524l-92 -271q-6 -20 -25 -20h-199q-22 0 -16 20l477 1352q6 21 27 21h188q21 0 27 -21l471 -1352q3 -15 -8 -20q-93 -54 -133.5 -93.5t-40.5 -76.5q0 -53 49 -53q16 0 53 16q17 9 27 -8
l49 -102q11 -18 -8 -27q-65 -45 -160 -45zM641 1047h-6l-186 -541h376z" />
    <glyph glyph-name="aogonek" unicode="&#x105;" horiz-adv-x="1071" 
d="M717 14v78h-2q-80 -115 -279 -115q-147 0 -239.5 79t-92.5 223q0 156 102 234.5t294 78.5h200q13 0 13 12v47q0 88 -49.5 126t-169.5 38q-141 0 -226 -67q-18 -15 -28 4l-76 135q-10 17 4 26q135 97 350 97q222 0 317 -80t95 -264v-646q0 -14 -12 -20q-96 -53 -135.5 -92
t-39.5 -78q0 -53 52 -53q14 0 51 16q16 8 26 -8l50 -102q10 -17 -9 -27q-62 -45 -159 -45q-89 0 -142 47.5t-53 132.5q0 130 158 223zM494 164q219 0 219 168v76q0 12 -13 12h-163q-213 0 -213 -133q0 -123 170 -123z" />
    <glyph glyph-name="Cacute" unicode="&#x106;" horiz-adv-x="1177" 
d="M150 319q-37 110 -37 377t37 377q54 167 178 254.5t305 87.5q165 0 287 -78.5t184 -220.5q6 -18 -10 -24l-174 -84q-19 -9 -27 10q-82 180 -260 180q-186 0 -250 -184q-25 -80 -25 -318q0 -237 25 -317q64 -184 250 -184q178 0 260 180q8 19 27 10l174 -84q16 -6 10 -25
q-62 -142 -184 -220.5t-287 -78.5q-181 0 -305 87.5t-178 254.5zM657 1559h-145q-8 0 -11 6.5t3 13.5l180 219q15 21 39 21h201q11 0 14 -6.5t-4 -14.5l-240 -223q-16 -16 -37 -16z" />
    <glyph glyph-name="cacute" unicode="&#x107;" horiz-adv-x="972" 
d="M535 -23q-150 0 -257.5 71.5t-150.5 201.5q-31 95 -31 244q0 148 31 243q43 130 150.5 201.5t257.5 71.5q215 0 342 -154q13 -16 -3 -29l-129 -112q-15 -12 -28 4q-77 86 -182 86q-141 0 -185 -129q-20 -59 -20 -182q0 -126 20 -185q44 -127 185 -127q105 0 182 86
q12 15 28 2l129 -112q13 -10 3 -29q-128 -152 -342 -152zM553 1137h-139q-22 0 -13 20l154 256q12 21 37 21h186q10 0 13 -7t-3 -14l-194 -256q-17 -20 -41 -20z" />
    <glyph glyph-name="Ccircumflex" unicode="&#x108;" horiz-adv-x="1177" 
d="M150 319q-37 110 -37 377t37 377q54 167 178 254.5t305 87.5q165 0 287 -78.5t184 -220.5q6 -18 -10 -24l-174 -84q-19 -9 -27 10q-82 180 -260 180q-186 0 -250 -184q-25 -80 -25 -318q0 -237 25 -317q64 -184 250 -184q178 0 260 180q8 19 27 10l174 -84q16 -6 10 -25
q-62 -142 -184 -220.5t-287 -78.5q-181 0 -305 87.5t-178 254.5zM922 1542h-129q-22 0 -43 21l-117 120h-4l-117 -120q-21 -21 -43 -21h-129q-8 0 -11 7t3 14l200 256q14 20 37 20h123q23 0 37 -20l201 -256q6 -7 3 -14t-11 -7z" />
    <glyph glyph-name="ccircumflex" unicode="&#x109;" horiz-adv-x="972" 
d="M819 1137h-129q-23 0 -43 20l-117 121h-4l-116 -121q-20 -20 -43 -20h-129q-8 0 -11.5 6.5t2.5 13.5l201 256q15 21 37 21h123q22 0 37 -21l200 -256q6 -7 3 -13.5t-11 -6.5zM535 -23q-150 0 -257.5 71.5t-150.5 201.5q-31 95 -31 244q0 148 31 243q43 130 150.5 201.5
t257.5 71.5q215 0 342 -154q13 -16 -3 -29l-129 -112q-15 -12 -28 4q-77 86 -182 86q-141 0 -185 -129q-20 -59 -20 -182q0 -126 20 -185q44 -127 185 -127q105 0 182 86q12 15 28 2l129 -112q13 -10 3 -29q-128 -152 -342 -152z" />
    <glyph glyph-name="Cdotaccent" unicode="&#x10a;" horiz-adv-x="1177" 
d="M150 319q-37 110 -37 377t37 377q54 167 178 254.5t305 87.5q165 0 287 -78.5t184 -220.5q6 -18 -10 -24l-174 -84q-19 -9 -27 10q-82 180 -260 180q-186 0 -250 -184q-25 -80 -25 -318q0 -237 25 -317q64 -184 250 -184q178 0 260 180q8 19 27 10l174 -84q16 -6 10 -25
q-62 -142 -184 -220.5t-287 -78.5q-181 0 -305 87.5t-178 254.5zM725 1575h-190q-21 0 -21 20v179q0 20 21 20h190q20 0 20 -20v-179q0 -20 -20 -20z" />
    <glyph glyph-name="cdotaccent" unicode="&#x10b;" horiz-adv-x="972" 
d="M535 -23q-150 0 -257.5 71.5t-150.5 201.5q-31 95 -31 244q0 148 31 243q43 130 150.5 201.5t257.5 71.5q215 0 342 -154q13 -16 -3 -29l-129 -112q-15 -12 -28 4q-77 86 -182 86q-141 0 -185 -129q-20 -59 -20 -182q0 -126 20 -185q44 -127 185 -127q105 0 182 86
q12 15 28 2l129 -112q13 -10 3 -29q-128 -152 -342 -152zM623 1174h-191q-20 0 -20 20v178q0 21 20 21h191q20 0 20 -21v-178q0 -20 -20 -20z" />
    <glyph glyph-name="Ccaron" unicode="&#x10c;" horiz-adv-x="1177" 
d="M150 319q-37 110 -37 377t37 377q54 167 178 254.5t305 87.5q165 0 287 -78.5t184 -220.5q6 -18 -10 -24l-174 -84q-19 -9 -27 10q-82 180 -260 180q-186 0 -250 -184q-25 -80 -25 -318q0 -237 25 -317q64 -184 250 -184q178 0 260 180q8 19 27 10l174 -84q16 -6 10 -25
q-62 -142 -184 -220.5t-287 -78.5q-181 0 -305 87.5t-178 254.5zM692 1538h-123q-22 0 -37 21l-200 256q-6 7 -3 13.5t11 6.5h129q23 0 43 -20l117 -121h4l117 121q20 20 43 20h129q8 0 11 -6.5t-3 -13.5l-201 -256q-15 -21 -37 -21z" />
    <glyph glyph-name="ccaron" unicode="&#x10d;" horiz-adv-x="972" 
d="M590 1133h-123q-23 0 -37 20l-201 256q-6 7 -2.5 14t11.5 7h129q22 0 43 -21l116 -121h4l117 121q21 21 43 21h129q8 0 11 -7t-3 -14l-200 -256q-14 -20 -37 -20zM535 -23q-150 0 -257.5 71.5t-150.5 201.5q-31 95 -31 244q0 148 31 243q43 130 150.5 201.5t257.5 71.5
q215 0 342 -154q13 -16 -3 -29l-129 -112q-15 -12 -28 4q-77 86 -182 86q-141 0 -185 -129q-20 -59 -20 -182q0 -126 20 -185q44 -127 185 -127q105 0 182 86q12 15 28 2l129 -112q13 -10 3 -29q-128 -152 -342 -152z" />
    <glyph glyph-name="Dcaron" unicode="&#x10e;" horiz-adv-x="1280" 
d="M668 1538h-123q-22 0 -37 21l-201 256q-6 7 -3 13.5t11 6.5h129q23 0 43 -20l117 -121h4l117 121q20 20 43 20h129q8 0 11 -6.5t-3 -13.5l-200 -256q-15 -21 -37 -21zM154 20v1352q0 21 20 21h498q363 0 465 -310q34 -106 34 -387t-34 -387q-102 -309 -465 -309h-498
q-20 0 -20 20zM395 1163v-934q0 -12 13 -12h206q230 0 289 176q25 70 25 303t-25 303q-59 177 -289 177h-206q-13 0 -13 -13z" />
    <glyph glyph-name="dcaron" unicode="&#x10f;" horiz-adv-x="1116" 
d="M946 0h-188q-21 0 -21 20v74h-2q-82 -117 -262 -117q-265 0 -342 238q-35 110 -35 279q0 168 35 278q77 238 342 238q180 0 262 -117h2v479q0 21 21 21h188q21 0 21 -21v-1352q0 -20 -21 -20zM532 182q144 0 185 127q20 61 20 185q0 123 -20 184q-41 127 -185 127
q-141 0 -182 -127q-20 -61 -20 -184q0 -124 20 -185q41 -127 182 -127zM1065 1028q-21 0 -21 23v321q0 21 21 21h170q20 0 20 -21v-149q0 -25 -14 -39l-145 -142q-14 -14 -31 -14z" />
    <glyph glyph-name="Dcroat" unicode="&#x110;" horiz-adv-x="1280" 
d="M672 0h-498q-20 0 -20 20v578q0 12 -13 12h-53q-20 0 -20 21v143q0 21 20 21h53q13 0 13 12v565q0 21 20 21h498q363 0 465 -310q34 -106 34 -387t-34 -387q-102 -309 -465 -309zM408 217h206q230 0 289 176q25 70 25 303t-25 303q-59 177 -289 177h-206q-13 0 -13 -13
v-356q0 -12 13 -12h198q21 0 21 -21v-143q0 -21 -21 -21h-198q-13 0 -13 -12v-369q0 -12 13 -12z" />
    <glyph glyph-name="dslash" unicode="&#x111;" horiz-adv-x="1116" 
d="M946 0h-188q-21 0 -21 20v74h-2q-82 -117 -262 -117q-265 0 -342 238q-35 110 -35 279q0 168 35 278q77 238 342 238q180 0 262 -117h2v215q0 12 -12 12h-225q-21 0 -21 21v135q0 20 21 20h225q12 0 12 13v63q0 21 21 21h188q21 0 21 -21v-63q0 -13 12 -13h51
q21 0 21 -20v-135q0 -21 -21 -21h-51q-12 0 -12 -12v-1088q0 -20 -21 -20zM532 182q144 0 185 127q20 61 20 185q0 123 -20 184q-41 127 -185 127q-141 0 -182 -127q-20 -61 -20 -184q0 -124 20 -185q41 -127 182 -127z" />
    <glyph glyph-name="Emacron" unicode="&#x112;" horiz-adv-x="1167" 
d="M154 20v1352q0 21 20 21h873q20 0 20 -21v-176q0 -20 -20 -20h-639q-13 0 -13 -13v-340q0 -12 13 -12h538q21 0 21 -20v-177q0 -20 -21 -20h-538q-13 0 -13 -12v-353q0 -12 13 -12h639q20 0 20 -20v-177q0 -20 -20 -20h-873q-20 0 -20 20zM874 1602h-538q-21 0 -21 20
v125q0 20 21 20h538q21 0 21 -20v-125q0 -20 -21 -20z" />
    <glyph glyph-name="emacron" unicode="&#x113;" horiz-adv-x="1067" 
d="M543 -23q-154 0 -262.5 72.5t-149.5 202.5q-35 110 -35 242q0 145 33 243q41 129 148 201t255 72q151 0 257.5 -72.5t148.5 -200.5q33 -98 33 -297q0 -20 -23 -20h-608q-12 0 -12 -12q0 -38 14 -76q52 -150 221 -150q147 0 232 94q16 16 30 5l121 -107q15 -12 2 -29
q-143 -168 -405 -168zM739 604q0 46 -12 84q-20 60 -71.5 93.5t-120.5 33.5q-151 0 -195 -127q-12 -38 -12 -84q0 -12 12 -12h387q12 0 12 12zM801 1202h-539q-20 0 -20 21v125q0 20 20 20h539q20 0 20 -20v-125q0 -21 -20 -21z" />
    <glyph glyph-name="Ebreve" unicode="&#x114;" horiz-adv-x="1167" 
d="M154 20v1352q0 21 20 21h873q20 0 20 -21v-176q0 -20 -20 -20h-639q-13 0 -13 -13v-340q0 -12 13 -12h538q21 0 21 -20v-177q0 -20 -21 -20h-538q-13 0 -13 -12v-353q0 -12 13 -12h639q20 0 20 -20v-177q0 -20 -20 -20h-873q-20 0 -20 20zM309 1794q0 21 19 21h100
q19 0 25 -21q30 -94 153 -94q124 0 154 94q6 21 24 21h101q18 0 18 -21q-8 -111 -88.5 -180.5t-208.5 -69.5t-208.5 69.5t-88.5 180.5z" />
    <glyph glyph-name="ebreve" unicode="&#x115;" horiz-adv-x="1067" 
d="M543 -23q-154 0 -262.5 72.5t-149.5 202.5q-35 110 -35 242q0 145 33 243q41 129 148 201t255 72q151 0 257.5 -72.5t148.5 -200.5q33 -98 33 -297q0 -20 -23 -20h-608q-12 0 -12 -12q0 -38 14 -76q52 -150 221 -150q147 0 232 94q16 16 30 5l121 -107q15 -12 2 -29
q-143 -168 -405 -168zM739 604q0 46 -12 84q-20 60 -71.5 93.5t-120.5 33.5q-151 0 -195 -127q-12 -38 -12 -84q0 -12 12 -12h387q12 0 12 12zM236 1382q0 21 18 21h100q19 0 25 -21q30 -92 153 -92q124 0 154 92q6 21 25 21h100q18 0 18 -21q-8 -111 -88.5 -179t-208.5 -68
t-208 68t-88 179z" />
    <glyph glyph-name="Edotaccent" unicode="&#x116;" horiz-adv-x="1167" 
d="M154 20v1352q0 21 20 21h873q20 0 20 -21v-176q0 -20 -20 -20h-639q-13 0 -13 -13v-340q0 -12 13 -12h538q21 0 21 -20v-177q0 -20 -21 -20h-538q-13 0 -13 -12v-353q0 -12 13 -12h639q20 0 20 -20v-177q0 -20 -20 -20h-873q-20 0 -20 20zM702 1575h-190q-20 0 -20 20
v179q0 20 20 20h190q21 0 21 -20v-179q0 -20 -21 -20z" />
    <glyph glyph-name="edotaccent" unicode="&#x117;" horiz-adv-x="1067" 
d="M543 -23q-154 0 -262.5 72.5t-149.5 202.5q-35 110 -35 242q0 145 33 243q41 129 148 201t255 72q151 0 257.5 -72.5t148.5 -200.5q33 -98 33 -297q0 -20 -23 -20h-608q-12 0 -12 -12q0 -38 14 -76q52 -150 221 -150q147 0 232 94q16 16 30 5l121 -107q15 -12 2 -29
q-143 -168 -405 -168zM739 604q0 46 -12 84q-20 60 -71.5 93.5t-120.5 33.5q-151 0 -195 -127q-12 -38 -12 -84q0 -12 12 -12h387q12 0 12 12zM627 1174h-191q-20 0 -20 20v178q0 21 20 21h191q20 0 20 -21v-178q0 -20 -20 -20z" />
    <glyph glyph-name="Eogonek" unicode="&#x118;" horiz-adv-x="1167" 
d="M868 -389q-89 0 -141.5 47.5t-52.5 132.5q0 120 133 209h-633q-20 0 -20 20v1352q0 21 20 21h873q20 0 20 -21v-176q0 -20 -20 -20h-639q-13 0 -13 -13v-340q0 -12 13 -12h538q21 0 21 -20v-177q0 -20 -21 -20h-538q-13 0 -13 -12v-353q0 -12 13 -12h639q20 0 20 -20
v-177q0 -20 -20 -20h-19q-170 -99 -170 -170q0 -53 49 -53q14 0 51 16q21 9 29 -8l49 -102q11 -18 -8 -27q-65 -45 -160 -45z" />
    <glyph glyph-name="eogonek" unicode="&#x119;" horiz-adv-x="1067" 
d="M584 -23h-41q-154 0 -262.5 72.5t-149.5 202.5q-35 110 -35 242q0 145 33 243q41 129 148 201t255 72q151 0 257.5 -72.5t148.5 -200.5q33 -98 33 -297q0 -20 -23 -20h-608q-12 0 -12 -12q0 -38 14 -76q52 -150 221 -150q147 0 232 94q16 16 30 5l121 -107q15 -12 2 -29
q-46 -53 -94 -84q-166 -150 -166 -231q0 -53 49 -53q14 0 51 16q17 9 27 -8l49 -102q11 -18 -8 -27q-62 -45 -158 -45q-92 0 -144 47t-52 133q0 92 82 186zM739 604q0 46 -12 84q-20 60 -71.5 93.5t-120.5 33.5q-151 0 -195 -127q-12 -38 -12 -84q0 -12 12 -12h387
q12 0 12 12z" />
    <glyph glyph-name="Ecaron" unicode="&#x11a;" horiz-adv-x="1167" 
d="M154 20v1352q0 21 20 21h873q20 0 20 -21v-176q0 -20 -20 -20h-639q-13 0 -13 -13v-340q0 -12 13 -12h538q21 0 21 -20v-177q0 -20 -21 -20h-538q-13 0 -13 -12v-353q0 -12 13 -12h639q20 0 20 -20v-177q0 -20 -20 -20h-873q-20 0 -20 20zM670 1538h-123q-22 0 -37 21
l-201 256q-6 7 -4 13.5t12 6.5h129q23 0 43 -20l117 -121h4l117 121q20 20 43 20h129q10 0 12 -6.5t-4 -13.5l-200 -256q-15 -21 -37 -21z" />
    <glyph glyph-name="ecaron" unicode="&#x11b;" horiz-adv-x="1067" 
d="M594 1133h-123q-23 0 -37 20l-201 256q-6 7 -2.5 14t11.5 7h129q22 0 43 -21l116 -121h5l116 121q21 21 43 21h129q8 0 11 -7t-3 -14l-200 -256q-14 -20 -37 -20zM543 -23q-154 0 -262.5 72.5t-149.5 202.5q-35 110 -35 242q0 145 33 243q41 129 148 201t255 72
q151 0 257.5 -72.5t148.5 -200.5q33 -98 33 -297q0 -20 -23 -20h-608q-12 0 -12 -12q0 -38 14 -76q52 -150 221 -150q147 0 232 94q16 16 30 5l121 -107q15 -12 2 -29q-143 -168 -405 -168zM739 604q0 46 -12 84q-20 60 -71.5 93.5t-120.5 33.5q-151 0 -195 -127
q-12 -38 -12 -84q0 -12 12 -12h387q12 0 12 12z" />
    <glyph glyph-name="Gcircumflex" unicode="&#x11c;" horiz-adv-x="1284" 
d="M150 313q-37 110 -37 383t37 383q54 164 182 250t315 86q178 0 307.5 -82.5t178.5 -212.5q9 -17 -9 -28l-172 -76q-17 -6 -26 10q-94 172 -281 172q-197 0 -262 -182q-25 -80 -25 -320q0 -239 25 -319q65 -182 262 -182q95 0 166.5 46.5t97.5 127.5q23 74 23 180
q0 12 -12 12h-230q-20 0 -20 21v163q0 21 20 21h461q20 0 20 -21v-120q0 -211 -32 -306q-51 -161 -181.5 -251.5t-310.5 -90.5q-187 0 -315 86t-182 250zM932 1542h-129q-22 0 -43 21l-117 120h-4l-117 -120q-21 -21 -43 -21h-129q-10 0 -12 7t4 14l201 256q14 20 37 20h122
q23 0 37 -20l201 -256q6 -7 4 -14t-12 -7z" />
    <glyph glyph-name="gcircumflex" unicode="&#x11d;" horiz-adv-x="1097" 
d="M815 1137h-129q-23 0 -43 20l-117 121h-4l-116 -121q-20 -20 -44 -20h-129q-8 0 -11 6.5t3 13.5l201 256q15 21 37 21h123q22 0 37 -21l200 -256q6 -7 3 -13.5t-11 -6.5zM487 -391q-105 0 -204 40t-154 107q-12 15 2 29l121 121q16 16 31 0q95 -92 215 -92q221 0 221 235
v92h-2q-73 -114 -256 -114q-125 0 -211.5 61t-124.5 178q-33 98 -33 252q0 152 33 250q76 242 336 242q183 0 256 -117h2v74q0 20 20 20h189q20 0 20 -20v-906q0 -217 -118.5 -334.5t-342.5 -117.5zM520 229q135 0 176 127q23 67 23 162q0 91 -23 162q-40 125 -176 125
q-134 0 -174 -125q-22 -68 -22 -162q0 -98 22 -162q41 -127 174 -127z" />
    <glyph glyph-name="Gbreve" unicode="&#x11e;" horiz-adv-x="1284" 
d="M150 313q-37 110 -37 383t37 383q54 164 182 250t315 86q178 0 307.5 -82.5t178.5 -212.5q9 -17 -9 -28l-172 -76q-17 -6 -26 10q-94 172 -281 172q-197 0 -262 -182q-25 -80 -25 -320q0 -239 25 -319q65 -182 262 -182q95 0 166.5 46.5t97.5 127.5q23 74 23 180
q0 12 -12 12h-230q-20 0 -20 21v163q0 21 20 21h461q20 0 20 -21v-120q0 -211 -32 -306q-51 -161 -181.5 -251.5t-310.5 -90.5q-187 0 -315 86t-182 250zM344 1794q0 21 18 21h101q18 0 24 -21q30 -94 154 -94t154 94q6 21 24 21h101q18 0 18 -21q-8 -111 -88.5 -180.5
t-208.5 -69.5t-208.5 69.5t-88.5 180.5z" />
    <glyph glyph-name="gbreve" unicode="&#x11f;" horiz-adv-x="1097" 
d="M487 -391q-105 0 -204 40t-154 107q-12 15 2 29l121 121q16 16 31 0q95 -92 215 -92q221 0 221 235v92h-2q-73 -114 -256 -114q-125 0 -211.5 61t-124.5 178q-33 98 -33 252q0 152 33 250q76 242 336 242q183 0 256 -117h2v74q0 20 20 20h189q20 0 20 -20v-906
q0 -217 -118.5 -334.5t-342.5 -117.5zM520 229q135 0 176 127q23 67 23 162q0 91 -23 162q-40 125 -176 125q-134 0 -174 -125q-22 -68 -22 -162q0 -98 22 -162q41 -127 174 -127zM227 1382q0 21 19 21h100q19 0 25 -21q30 -92 153 -92q124 0 154 92q6 21 24 21h101
q18 0 18 -21q-8 -111 -88.5 -179t-208.5 -68t-208.5 68t-88.5 179z" />
    <glyph glyph-name="Gdotaccent" unicode="&#x120;" horiz-adv-x="1284" 
d="M150 313q-37 110 -37 383t37 383q54 164 182 250t315 86q178 0 307.5 -82.5t178.5 -212.5q9 -17 -9 -28l-172 -76q-17 -6 -26 10q-94 172 -281 172q-197 0 -262 -182q-25 -80 -25 -320q0 -239 25 -319q65 -182 262 -182q95 0 166.5 46.5t97.5 127.5q23 74 23 180
q0 12 -12 12h-230q-20 0 -20 21v163q0 21 20 21h461q20 0 20 -21v-120q0 -211 -32 -306q-51 -161 -181.5 -251.5t-310.5 -90.5q-187 0 -315 86t-182 250zM735 1575h-190q-21 0 -21 20v179q0 20 21 20h190q21 0 21 -20v-179q0 -20 -21 -20z" />
    <glyph glyph-name="gdotaccent" unicode="&#x121;" horiz-adv-x="1097" 
d="M487 -391q-105 0 -204 40t-154 107q-12 15 2 29l121 121q16 16 31 0q95 -92 215 -92q221 0 221 235v92h-2q-73 -114 -256 -114q-125 0 -211.5 61t-124.5 178q-33 98 -33 252q0 152 33 250q76 242 336 242q183 0 256 -117h2v74q0 20 20 20h189q20 0 20 -20v-906
q0 -217 -118.5 -334.5t-342.5 -117.5zM520 229q135 0 176 127q23 67 23 162q0 91 -23 162q-40 125 -176 125q-134 0 -174 -125q-22 -68 -22 -162q0 -98 22 -162q41 -127 174 -127zM618 1174h-190q-20 0 -20 20v178q0 21 20 21h190q21 0 21 -21v-178q0 -20 -21 -20z" />
    <glyph glyph-name="Gcommaaccent" unicode="&#x122;" horiz-adv-x="1284" 
d="M150 313q-37 110 -37 383t37 383q54 164 182 250t315 86q178 0 307.5 -82.5t178.5 -212.5q9 -17 -9 -28l-172 -76q-17 -6 -26 10q-94 172 -281 172q-197 0 -262 -182q-25 -80 -25 -320q0 -239 25 -319q65 -182 262 -182q95 0 166.5 46.5t97.5 127.5q23 74 23 180
q0 12 -12 12h-230q-20 0 -20 21v163q0 21 20 21h461q20 0 20 -21v-120q0 -211 -32 -306q-51 -161 -181.5 -251.5t-310.5 -90.5q-187 0 -315 86t-182 250zM555 -467q-20 0 -20 23v313q0 20 20 20h170q20 0 20 -20v-141q0 -25 -14 -39l-145 -142q-14 -14 -31 -14z" />
    <glyph glyph-name="gcommaaccent" unicode="&#x123;" horiz-adv-x="1097" 
d="M487 -391q-105 0 -204 40t-154 107q-12 15 2 29l121 121q16 16 31 0q95 -92 215 -92q221 0 221 235v92h-2q-73 -114 -256 -114q-125 0 -211.5 61t-124.5 178q-33 98 -33 252q0 152 33 250q76 242 336 242q183 0 256 -117h2v74q0 20 20 20h189q20 0 20 -20v-906
q0 -217 -118.5 -334.5t-342.5 -117.5zM520 229q135 0 176 127q23 67 23 162q0 91 -23 162q-40 125 -176 125q-134 0 -174 -125q-22 -68 -22 -162q0 -98 22 -162q41 -127 174 -127zM610 1171h-170q-20 0 -20 21v141q0 25 14 39l146 141q15 15 30 15q21 0 21 -23v-313
q0 -21 -21 -21z" />
    <glyph glyph-name="Hcircumflex" unicode="&#x124;" horiz-adv-x="1345" 
d="M154 20v1352q0 21 20 21h201q20 0 20 -21v-549q0 -12 13 -12h530q12 0 12 12v549q0 21 21 21h200q21 0 21 -21v-1352q0 -20 -21 -20h-200q-21 0 -21 20v562q0 12 -12 12h-530q-13 0 -13 -12v-562q0 -20 -20 -20h-201q-20 0 -20 20zM961 1542h-130q-22 0 -43 21l-116 120
h-4l-117 -120q-21 -21 -43 -21h-129q-10 0 -12 7t4 14l200 256q14 20 37 20h123q23 0 37 -20l201 -256q6 -7 4 -14t-12 -7z" />
    <glyph glyph-name="hcircumflex" unicode="&#x125;" horiz-adv-x="1122" 
d="M963 0h-189q-20 0 -20 20v570q0 100 -49 157.5t-138 57.5q-87 0 -137.5 -58.5t-50.5 -156.5v-570q0 -20 -21 -20h-188q-20 0 -20 20v1352q0 21 20 21h188q21 0 21 -21v-477h2q80 115 260 115q154 0 248 -102t94 -265v-623q0 -20 -20 -20zM860 1542h-129q-22 0 -43 21
l-117 120h-4l-116 -120q-21 -21 -43 -21h-129q-8 0 -11.5 7t2.5 14l201 256q14 20 37 20h123q23 0 37 -20l200 -256q6 -7 3 -14t-11 -7z" />
    <glyph glyph-name="Hbar" unicode="&#x126;" horiz-adv-x="1345" 
d="M1171 0h-200q-21 0 -21 20v562q0 12 -12 12h-530q-13 0 -13 -12v-562q0 -20 -20 -20h-201q-20 0 -20 20v979q0 13 -13 13h-71q-21 0 -21 20v131q0 21 21 21h71q13 0 13 12v176q0 21 20 21h201q20 0 20 -21v-176q0 -12 13 -12h530q12 0 12 12v176q0 21 21 21h200
q21 0 21 -21v-176q0 -12 12 -12h72q20 0 20 -21v-131q0 -20 -20 -20h-72q-12 0 -12 -13v-979q0 -20 -21 -20zM408 811h530q12 0 12 12v176q0 13 -12 13h-530q-13 0 -13 -13v-176q0 -12 13 -12z" />
    <glyph glyph-name="hbar" unicode="&#x127;" horiz-adv-x="1122" 
d="M963 0h-189q-20 0 -20 20v570q0 100 -49 157.5t-138 57.5q-87 0 -137.5 -58.5t-50.5 -156.5v-570q0 -20 -21 -20h-188q-20 0 -20 20v1088q0 12 -13 12h-51q-20 0 -20 21v135q0 20 20 20h51q13 0 13 13v63q0 21 20 21h188q21 0 21 -21v-63q0 -13 12 -13h225q21 0 21 -20
v-135q0 -21 -21 -21h-225q-12 0 -12 -12v-213h2q80 115 260 115q154 0 248 -102t94 -265v-623q0 -20 -20 -20z" />
    <glyph glyph-name="Itilde" unicode="&#x128;" horiz-adv-x="548" 
d="M397 1550q-60 0 -137 41q-67 37 -115 37q-62 0 -137 -63q-18 -15 -18 4v125q0 20 16 39q63 69 148 69q60 0 137 -41q67 -37 117 -37q59 0 135 64q18 15 18 -4v-125q0 -20 -16 -39q-64 -70 -148 -70zM154 20v1352q0 21 20 21h201q20 0 20 -21v-1352q0 -20 -20 -20h-201
q-20 0 -20 20z" />
    <glyph glyph-name="itilde" unicode="&#x129;" horiz-adv-x="528" 
d="M387 1149q-60 0 -137 41q-67 37 -115 37q-61 0 -137 -64q-18 -15 -18 4v125q0 20 16 39q64 70 147 70q61 0 138 -41q67 -37 116 -37q60 0 135 63q19 16 19 -4v-125q0 -19 -16 -38q-64 -70 -148 -70zM358 0h-188q-20 0 -20 20v947q0 20 20 20h188q21 0 21 -20v-947
q0 -20 -21 -20z" />
    <glyph glyph-name="Imacron" unicode="&#x12a;" horiz-adv-x="548" 
d="M545 1602h-539q-20 0 -20 20v125q0 20 20 20h539q20 0 20 -20v-125q0 -20 -20 -20zM154 20v1352q0 21 20 21h201q20 0 20 -21v-1352q0 -20 -20 -20h-201q-20 0 -20 20z" />
    <glyph glyph-name="imacron" unicode="&#x12b;" horiz-adv-x="528" 
d="M358 0h-188q-20 0 -20 20v947q0 20 20 20h188q21 0 21 -20v-947q0 -20 -21 -20zM535 1202h-539q-21 0 -21 21v125q0 20 21 20h539q20 0 20 -20v-125q0 -21 -20 -21z" />
    <glyph glyph-name="Ibreve" unicode="&#x12c;" horiz-adv-x="548" 
d="M-20 1794q0 21 18 21h100q19 0 25 -21q30 -94 153 -94q124 0 154 94q6 21 25 21h100q18 0 18 -21q-8 -111 -88.5 -180.5t-208.5 -69.5t-208 69t-88 181zM154 20v1352q0 21 20 21h201q20 0 20 -21v-1352q0 -20 -20 -20h-201q-20 0 -20 20z" />
    <glyph glyph-name="ibreve" unicode="&#x12d;" horiz-adv-x="528" 
d="M-33 1382q0 21 19 21h100q19 0 25 -21q30 -92 153 -92q124 0 154 92q6 21 24 21h101q18 0 18 -21q-8 -111 -88.5 -179t-208.5 -68t-208.5 68t-88.5 179zM358 0h-188q-20 0 -20 20v947q0 20 20 20h188q21 0 21 -20v-947q0 -20 -21 -20z" />
    <glyph glyph-name="Iogonek" unicode="&#x12e;" horiz-adv-x="548" 
d="M254 -389q-89 0 -143 47.5t-54 132.5q0 98 117 209q-20 0 -20 20v1352q0 21 20 21h201q20 0 20 -21v-1352q0 -10 -10 -20q-82 -63 -111.5 -99t-29.5 -71q0 -53 49 -53q22 0 51 16q17 9 27 -8l49 -102q10 -17 -6 -27q-65 -45 -160 -45z" />
    <glyph glyph-name="iogonek" unicode="&#x12f;" horiz-adv-x="528" 
d="M358 1174h-188q-20 0 -20 20v178q0 21 20 21h188q21 0 21 -21v-178q0 -20 -21 -20zM244 -389q-89 0 -143 47.5t-54 132.5q0 110 113 211q-10 7 -10 18v947q0 20 20 20h188q21 0 21 -20v-947q0 -10 -10 -20q-136 -106 -136 -170q0 -53 50 -53q22 0 51 16q16 8 26 -8
l52 -102q10 -17 -9 -27q-65 -45 -159 -45z" />
    <glyph glyph-name="Idot" unicode="&#x130;" horiz-adv-x="548" 
d="M371 1575h-191q-20 0 -20 20v179q0 20 20 20h191q20 0 20 -20v-179q0 -20 -20 -20zM154 20v1352q0 21 20 21h201q20 0 20 -21v-1352q0 -20 -20 -20h-201q-20 0 -20 20z" />
    <glyph glyph-name="dotlessi" unicode="&#x131;" horiz-adv-x="528" 
d="M358 0h-188q-20 0 -20 20v947q0 20 20 20h188q21 0 21 -20v-947q0 -20 -21 -20z" />
    <glyph glyph-name="Jcircumflex" unicode="&#x134;" horiz-adv-x="1038" 
d="M1069 1542h-129q-22 0 -43 21l-117 120h-4l-117 -120q-21 -21 -43 -21h-129q-10 0 -12 7t4 14l201 256q14 20 37 20h123q23 0 37 -20l200 -256q6 -7 4 -14t-12 -7zM59 145q-10 17 4 29l150 113q16 9 31 -6q74 -86 186 -86q113 0 172.5 70t59.5 204v903q0 21 20 21h201
q20 0 20 -21v-903q0 -232 -128.5 -362t-352.5 -130q-114 0 -214.5 47.5t-148.5 120.5z" />
    <glyph glyph-name="jcircumflex" unicode="&#x135;" horiz-adv-x="528" 
d="M557 1137h-129q-23 0 -43 20l-117 121h-4l-117 -121q-20 -20 -43 -20h-129q-10 0 -12 6.5t4 13.5l201 256q15 21 37 21h123q22 0 37 -21l200 -256q6 -7 4 -13.5t-12 -6.5zM49 -369h-57q-21 0 -21 21v164q0 20 21 20h45q63 0 89 26t26 91v1014q0 20 20 20h188q21 0 21 -20
v-1010q0 -326 -332 -326z" />
    <glyph glyph-name="Kcommaaccent" unicode="&#x136;" horiz-adv-x="1296" 
d="M154 20v1352q0 21 20 21h201q20 0 20 -21v-655l527 659q17 17 32 17h234q11 0 13 -8.5t-5 -18.5l-432 -520l481 -821q16 -25 -14 -25h-227q-21 0 -31 16l-365 643l-213 -258v-381q0 -20 -20 -20h-201q-20 0 -20 20zM567 -467q-20 0 -20 23v313q0 20 20 20h170
q21 0 21 -20v-141q0 -24 -15 -39l-145 -142q-14 -14 -31 -14z" />
    <glyph glyph-name="kcommaaccent" unicode="&#x137;" horiz-adv-x="1069" 
d="M1010 0h-215q-22 0 -33 20l-250 414l-133 -153v-261q0 -20 -21 -20h-188q-20 0 -20 20v1352q0 21 20 21h188q21 0 21 -21v-803l338 398q17 20 39 20h209q8 0 11 -7t-3 -13l-314 -361l361 -586q4 -6 1 -13t-11 -7zM463 -467q-21 0 -21 23v313q0 20 21 20h170q20 0 20 -20
v-141q0 -25 -14 -39l-145 -142q-14 -14 -31 -14z" />
    <glyph glyph-name="kgreenlandic" unicode="&#x138;" horiz-adv-x="1069" 
d="M1010 0h-215q-22 0 -33 20l-250 414l-133 -153v-261q0 -20 -21 -20h-188q-20 0 -20 20v947q0 20 20 20h188q21 0 21 -20v-398l338 398q17 20 39 20h209q8 0 11 -7t-3 -13l-314 -361l361 -586q4 -6 1 -13t-11 -7z" />
    <glyph glyph-name="Lacute" unicode="&#x139;" horiz-adv-x="1116" 
d="M154 20v1352q0 21 20 21h201q20 0 20 -21v-1143q0 -12 13 -12h639q20 0 20 -20v-177q0 -20 -20 -20h-873q-20 0 -20 20zM365 1559h-146q-10 0 -12 6.5t4 13.5l180 219q15 21 39 21h201q10 0 13 -6.5t-3 -14.5l-240 -223q-16 -16 -36 -16z" />
    <glyph glyph-name="lacute" unicode="&#x13a;" horiz-adv-x="595" 
d="M506 -12h-90q-142 0 -206.5 67.5t-64.5 214.5v1102q0 21 21 21h188q21 0 21 -21v-1089q0 -49 20.5 -69.5t65.5 -20.5h45q20 0 20 -21v-164q0 -20 -20 -20zM336 1559h-146q-10 0 -12 6.5t4 13.5l180 219q15 21 39 21h201q10 0 13 -6.5t-3 -14.5l-239 -223q-16 -16 -37 -16
z" />
    <glyph glyph-name="Lcommaaccent" unicode="&#x13b;" horiz-adv-x="1116" 
d="M154 20v1352q0 21 20 21h201q20 0 20 -21v-1143q0 -12 13 -12h639q20 0 20 -20v-177q0 -20 -20 -20h-873q-20 0 -20 20zM514 -467q-20 0 -20 23v313q0 20 20 20h170q21 0 21 -20v-141q0 -24 -15 -39l-145 -142q-14 -14 -31 -14z" />
    <glyph glyph-name="lcommaaccent" unicode="&#x13c;" horiz-adv-x="595" 
d="M506 -12h-90q-142 0 -206.5 67.5t-64.5 214.5v1102q0 21 21 21h188q21 0 21 -21v-1089q0 -49 20.5 -69.5t65.5 -20.5h45q20 0 20 -21v-164q0 -20 -20 -20zM256 -467q-20 0 -20 23v313q0 20 20 20h170q20 0 20 -20v-141q0 -25 -14 -39l-145 -142q-14 -14 -31 -14z" />
    <glyph glyph-name="Lcaron" unicode="&#x13d;" horiz-adv-x="1116" 
d="M154 20v1352q0 21 20 21h201q20 0 20 -21v-1143q0 -12 13 -12h639q20 0 20 -20v-177q0 -20 -20 -20h-873q-20 0 -20 20zM530 1028q-20 0 -20 23v321q0 21 20 21h170q21 0 21 -21v-149q0 -25 -14 -39l-146 -142q-14 -14 -31 -14z" />
    <glyph glyph-name="lcaron" unicode="&#x13e;" horiz-adv-x="595" 
d="M506 -12h-90q-142 0 -206.5 67.5t-64.5 214.5v1102q0 21 21 21h188q21 0 21 -21v-1089q0 -49 20.5 -69.5t65.5 -20.5h45q20 0 20 -21v-164q0 -20 -20 -20zM473 1028q-20 0 -20 23v321q0 21 20 21h170q21 0 21 -21v-149q0 -24 -15 -39l-145 -142q-14 -14 -31 -14z" />
    <glyph glyph-name="Ldot" unicode="&#x13f;" horiz-adv-x="1116" 
d="M154 20v1352q0 21 20 21h201q20 0 20 -21v-1143q0 -12 13 -12h639q20 0 20 -20v-177q0 -20 -20 -20h-873q-20 0 -20 20zM934 543h-205q-20 0 -20 20v209q0 21 20 21h205q20 0 20 -21v-209q0 -20 -20 -20z" />
    <glyph glyph-name="ldot" unicode="&#x140;" horiz-adv-x="729" 
d="M506 -12h-90q-142 0 -206.5 67.5t-64.5 214.5v1102q0 21 21 21h188q21 0 21 -21v-1089q0 -49 20.5 -69.5t65.5 -20.5h45q20 0 20 -21v-164q0 -20 -20 -20zM727 571h-205q-20 0 -20 21v209q0 20 20 20h205q21 0 21 -20v-209q0 -21 -21 -21z" />
    <glyph glyph-name="Lslash" unicode="&#x141;" horiz-adv-x="1116" 
d="M1047 0h-873q-20 0 -20 20v510l-105 -53q-20 -9 -20 12v166q0 20 20 29l105 53v635q0 21 20 21h201q20 0 20 -21v-516l260 135q21 9 21 -12v-166q0 -20 -21 -29l-260 -135v-420q0 -12 13 -12h639q20 0 20 -20v-177q0 -20 -20 -20z" />
    <glyph glyph-name="lslash" unicode="&#x142;" horiz-adv-x="595" 
d="M506 752l-131 -68v-401q0 -49 20.5 -69.5t65.5 -20.5h45q20 0 20 -21v-164q0 -20 -20 -20h-90q-142 0 -206.5 67.5t-64.5 214.5v310l-67 -35q-21 -9 -21 12v152q0 21 21 30l67 35v598q0 21 21 21h188q21 0 21 -21v-493l131 67q20 9 20 -12v-152q0 -21 -20 -30z" />
    <glyph glyph-name="Nacute" unicode="&#x143;" horiz-adv-x="1345" 
d="M154 20v1352q0 21 20 21h188q23 0 35 -21l568 -960h8v960q0 21 20 21h178q21 0 21 -21v-1352q0 -20 -21 -20h-186q-24 0 -35 20l-569 959h-8v-959q0 -20 -21 -20h-178q-20 0 -20 20zM692 1559h-145q-10 0 -12 6.5t4 13.5l180 219q15 21 39 21h200q10 0 13.5 -6.5
t-2.5 -14.5l-240 -223q-16 -16 -37 -16z" />
    <glyph glyph-name="nacute" unicode="&#x144;" horiz-adv-x="1122" 
d="M963 0h-189q-20 0 -20 20v570q0 100 -49 157.5t-138 57.5q-87 0 -137.5 -58.5t-50.5 -156.5v-570q0 -20 -21 -20h-188q-20 0 -20 20v947q0 20 20 20h188q21 0 21 -20v-72h2q80 115 260 115q154 0 248 -102t94 -265v-623q0 -20 -20 -20zM575 1137h-139q-21 0 -12 20
l154 256q12 21 36 21h187q10 0 13 -7t-3 -14l-195 -256q-17 -20 -41 -20z" />
    <glyph glyph-name="Ncommaaccent" unicode="&#x145;" horiz-adv-x="1345" 
d="M154 20v1352q0 21 20 21h188q23 0 35 -21l568 -960h8v960q0 21 20 21h178q21 0 21 -21v-1352q0 -20 -21 -20h-186q-24 0 -35 20l-569 959h-8v-959q0 -20 -21 -20h-178q-20 0 -20 20zM588 -467q-21 0 -21 23v313q0 20 21 20h170q20 0 20 -20v-141q0 -25 -14 -39l-146 -142
q-14 -14 -30 -14z" />
    <glyph glyph-name="ncommaaccent" unicode="&#x146;" horiz-adv-x="1122" 
d="M963 0h-189q-20 0 -20 20v570q0 100 -49 157.5t-138 57.5q-87 0 -137.5 -58.5t-50.5 -156.5v-570q0 -20 -21 -20h-188q-20 0 -20 20v947q0 20 20 20h188q21 0 21 -20v-72h2q80 115 260 115q154 0 248 -102t94 -265v-623q0 -20 -20 -20zM477 -467q-20 0 -20 23v313
q0 20 20 20h170q21 0 21 -20v-141q0 -24 -15 -39l-145 -142q-14 -14 -31 -14z" />
    <glyph glyph-name="Ncaron" unicode="&#x147;" horiz-adv-x="1345" 
d="M154 20v1352q0 21 20 21h188q23 0 35 -21l568 -960h8v960q0 21 20 21h178q21 0 21 -21v-1352q0 -20 -21 -20h-186q-24 0 -35 20l-569 959h-8v-959q0 -20 -21 -20h-178q-20 0 -20 20zM727 1538h-123q-22 0 -37 21l-200 256q-6 7 -4 13.5t12 6.5h129q23 0 43 -20l117 -121
h4l116 121q20 20 43 20h129q10 0 12.5 -6.5t-3.5 -13.5l-201 -256q-15 -21 -37 -21z" />
    <glyph glyph-name="ncaron" unicode="&#x148;" horiz-adv-x="1122" 
d="M963 0h-189q-20 0 -20 20v570q0 100 -49 157.5t-138 57.5q-87 0 -137.5 -58.5t-50.5 -156.5v-570q0 -20 -21 -20h-188q-20 0 -20 20v947q0 20 20 20h188q21 0 21 -20v-72h2q80 115 260 115q154 0 248 -102t94 -265v-623q0 -20 -20 -20zM621 1133h-123q-23 0 -37 20
l-201 256q-6 7 -4 14t12 7h129q22 0 43 -21l117 -121h4l117 121q21 21 43 21h129q10 0 12 -7t-4 -14l-201 -256q-14 -20 -36 -20z" />
    <glyph glyph-name="Eng" unicode="&#x14a;" horiz-adv-x="1345" 
d="M821 -369h-59q-21 0 -21 21v176q0 20 21 20h47q156 0 156 140v10l-584 981h-8v-959q0 -20 -21 -20h-178q-20 0 -20 20v1352q0 21 20 21h188q26 0 35 -21l568 -960h8v960q0 21 20 21h178q21 0 21 -21v-1366q0 -375 -371 -375z" />
    <glyph glyph-name="eng" unicode="&#x14b;" horiz-adv-x="1122" 
d="M651 -369h-57q-21 0 -21 21v164q0 20 21 20h45q63 0 89 26t26 91v637q0 100 -49 157.5t-138 57.5q-87 0 -137.5 -58.5t-50.5 -156.5v-570q0 -20 -21 -20h-188q-20 0 -20 20v947q0 20 20 20h188q21 0 21 -20v-72h2q80 115 260 115q154 0 248 -102t94 -265v-686
q0 -326 -332 -326z" />
    <glyph glyph-name="Omacron" unicode="&#x14c;" horiz-adv-x="1284" 
d="M641 -23q-184 0 -310.5 86t-180.5 250q-37 110 -37 383t37 383q54 164 180.5 250t310.5 86q185 0 312.5 -86t181.5 -250q36 -107 36 -383t-36 -383q-54 -164 -181.5 -250t-312.5 -86zM641 195q195 0 260 182q25 80 25 319q0 240 -25 320q-65 182 -260 182
q-193 0 -258 -182q-25 -80 -25 -320q0 -239 25 -319q65 -182 258 -182zM909 1602h-538q-21 0 -21 20v125q0 20 21 20h538q21 0 21 -20v-125q0 -20 -21 -20z" />
    <glyph glyph-name="omacron" unicode="&#x14d;" horiz-adv-x="1071" 
d="M537 -23q-152 0 -259.5 72t-148.5 201q-33 98 -33 244q0 145 33 243q41 129 148.5 201t259.5 72q149 0 256.5 -72t148.5 -201q33 -98 33 -243q0 -146 -33 -244q-41 -129 -148.5 -201t-256.5 -72zM537 182q137 0 184 129q20 61 20 183q0 121 -20 182q-47 129 -184 129
q-141 0 -187 -129q-20 -61 -20 -182q0 -122 20 -183q46 -129 187 -129zM803 1202h-539q-20 0 -20 21v125q0 20 20 20h539q20 0 20 -20v-125q0 -21 -20 -21z" />
    <glyph glyph-name="Obreve" unicode="&#x14e;" horiz-adv-x="1284" 
d="M641 -23q-184 0 -310.5 86t-180.5 250q-37 110 -37 383t37 383q54 164 180.5 250t310.5 86q185 0 312.5 -86t181.5 -250q36 -107 36 -383t-36 -383q-54 -164 -181.5 -250t-312.5 -86zM641 195q195 0 260 182q25 80 25 319q0 240 -25 320q-65 182 -260 182
q-193 0 -258 -182q-25 -80 -25 -320q0 -239 25 -319q65 -182 258 -182zM344 1794q0 21 18 21h101q18 0 24 -21q30 -94 154 -94t154 94q6 21 24 21h101q18 0 18 -21q-8 -111 -88.5 -180.5t-208.5 -69.5t-208.5 69.5t-88.5 180.5z" />
    <glyph glyph-name="obreve" unicode="&#x14f;" horiz-adv-x="1071" 
d="M537 -23q-152 0 -259.5 72t-148.5 201q-33 98 -33 244q0 145 33 243q41 129 148.5 201t259.5 72q149 0 256.5 -72t148.5 -201q33 -98 33 -243q0 -146 -33 -244q-41 -129 -148.5 -201t-256.5 -72zM537 182q137 0 184 129q20 61 20 183q0 121 -20 182q-47 129 -184 129
q-141 0 -187 -129q-20 -61 -20 -182q0 -122 20 -183q46 -129 187 -129zM238 1382q0 21 18 21h100q19 0 25 -21q30 -92 154 -92q123 0 153 92q6 21 25 21h100q18 0 18 -21q-8 -111 -88 -179t-208 -68t-208.5 68t-88.5 179z" />
    <glyph glyph-name="Ohungarumlaut" unicode="&#x150;" horiz-adv-x="1284" 
d="M641 -23q-184 0 -310.5 86t-180.5 250q-37 110 -37 383t37 383q54 164 180.5 250t310.5 86q185 0 312.5 -86t181.5 -250q36 -107 36 -383t-36 -383q-54 -164 -181.5 -250t-312.5 -86zM641 195q195 0 260 182q25 80 25 319q0 240 -25 320q-65 182 -260 182
q-193 0 -258 -182q-25 -80 -25 -320q0 -239 25 -319q65 -182 258 -182zM836 1563h-129q-22 0 -11 20l133 219q12 21 35 21h160q8 0 11 -6.5t-3 -14.5l-158 -219q-14 -20 -38 -20zM512 1563h-129q-21 0 -10 20l133 219q12 21 35 21h159q8 0 11.5 -6.5t-2.5 -14.5l-158 -219
q-14 -20 -39 -20z" />
    <glyph glyph-name="ohungarumlaut" unicode="&#x151;" horiz-adv-x="1071" 
d="M537 -23q-152 0 -259.5 72t-148.5 201q-33 98 -33 244q0 145 33 243q41 129 148.5 201t259.5 72q149 0 256.5 -72t148.5 -201q33 -98 33 -243q0 -146 -33 -244q-41 -129 -148.5 -201t-256.5 -72zM537 182q137 0 184 129q20 61 20 183q0 121 -20 182q-47 129 -184 129
q-141 0 -187 -129q-20 -61 -20 -182q0 -122 20 -183q46 -129 187 -129zM756 1137h-133q-22 0 -13 20l133 256q9 21 33 21h160q22 0 10 -21l-158 -256q-11 -20 -32 -20zM432 1137h-133q-21 0 -12 20l133 256q9 21 33 21h159q23 0 11 -21l-158 -256q-11 -20 -33 -20z" />
    <glyph glyph-name="OE" unicode="&#x152;" horiz-adv-x="1939" 
d="M1819 0h-873q-20 0 -20 20v56h-2q-102 -99 -283 -99q-184 0 -310.5 86t-180.5 250q-37 110 -37 383t37 383q54 164 180.5 250t310.5 86q182 0 283 -98h2v55q0 21 20 21h873q20 0 20 -21v-176q0 -20 -20 -20h-639q-13 0 -13 -13v-340q0 -12 13 -12h538q21 0 21 -20v-177
q0 -20 -21 -20h-538q-13 0 -13 -12v-353q0 -12 13 -12h639q20 0 20 -20v-177q0 -20 -20 -20zM641 195q195 0 260 182q25 80 25 319q0 240 -25 320q-65 182 -260 182q-193 0 -258 -182q-25 -80 -25 -320q0 -239 25 -319q65 -182 258 -182z" />
    <glyph glyph-name="oe" unicode="&#x153;" horiz-adv-x="1710" 
d="M1188 -23q-214 0 -326 136h-4q-115 -136 -321 -136q-152 0 -259.5 72t-148.5 201q-33 98 -33 244q0 145 33 243q41 129 148.5 201t259.5 72q205 0 319 -129h4q108 129 318 129q149 0 255.5 -72.5t147.5 -200.5q33 -98 33 -297q0 -20 -23 -20h-608q-12 0 -12 -12
q0 -38 14 -76q53 -150 221 -150q147 0 232 94q16 16 30 5l121 -107q15 -12 2 -29q-143 -168 -403 -168zM1382 604q0 46 -12 84q-20 60 -71.5 93.5t-120.5 33.5q-151 0 -195 -127q-12 -38 -12 -84q0 -12 12 -12h387q12 0 12 12zM537 182q137 0 184 129q20 61 20 183
q0 121 -20 182q-47 129 -184 129q-141 0 -187 -129q-20 -61 -20 -182q0 -122 20 -183q46 -129 187 -129z" />
    <glyph glyph-name="Racute" unicode="&#x154;" horiz-adv-x="1267" 
d="M1171 0h-227q-22 0 -31 20l-266 543h-239q-13 0 -13 -12v-531q0 -20 -20 -20h-201q-20 0 -20 20v1352q0 21 20 21h539q191 0 317 -117q127 -118 127 -299q0 -134 -71 -236.5t-193 -146.5l293 -567q6 -11 1 -19t-16 -8zM408 780h297q96 0 154.5 54.5t58.5 142.5
q0 91 -58 145t-155 54h-297q-13 0 -13 -13v-370q0 -13 13 -13zM621 1559h-146q-8 0 -11 6.5t3 13.5l180 219q15 21 39 21h201q11 0 14 -6.5t-4 -14.5l-240 -223q-16 -16 -36 -16z" />
    <glyph glyph-name="racute" unicode="&#x155;" horiz-adv-x="866" 
d="M358 0h-188q-20 0 -20 20v947q0 20 20 20h188q21 0 21 -20v-84h2q80 127 256 127q125 0 207 -82q13 -13 4 -29l-109 -137q-13 -16 -28 -4q-74 47 -146 47q-186 0 -186 -250v-535q0 -20 -21 -20zM479 1137h-139q-21 0 -12 20l153 256q12 21 37 21h187q10 0 13 -7t-3 -14
l-195 -256q-17 -20 -41 -20z" />
    <glyph glyph-name="Rcommaaccent" unicode="&#x156;" horiz-adv-x="1267" 
d="M1171 0h-227q-22 0 -31 20l-266 543h-239q-13 0 -13 -12v-531q0 -20 -20 -20h-201q-20 0 -20 20v1352q0 21 20 21h539q191 0 317 -117q127 -118 127 -299q0 -134 -71 -236.5t-193 -146.5l293 -567q6 -11 1 -19t-16 -8zM408 780h297q96 0 154.5 54.5t58.5 142.5
q0 91 -58 145t-155 54h-297q-13 0 -13 -13v-370q0 -13 13 -13zM551 -467q-21 0 -21 23v313q0 20 21 20h170q20 0 20 -20v-141q0 -25 -14 -39l-145 -142q-14 -14 -31 -14z" />
    <glyph glyph-name="rcommaaccent" unicode="&#x157;" horiz-adv-x="866" 
d="M358 0h-188q-20 0 -20 20v947q0 20 20 20h188q21 0 21 -20v-84h2q80 127 256 127q125 0 207 -82q13 -13 4 -29l-109 -137q-13 -16 -28 -4q-74 47 -146 47q-186 0 -186 -250v-535q0 -20 -21 -20zM180 -467q-20 0 -20 23v313q0 20 20 20h170q21 0 21 -20v-141
q0 -24 -15 -39l-145 -142q-14 -14 -31 -14z" />
    <glyph glyph-name="Rcaron" unicode="&#x158;" horiz-adv-x="1267" 
d="M1171 0h-227q-22 0 -31 20l-266 543h-239q-13 0 -13 -12v-531q0 -20 -20 -20h-201q-20 0 -20 20v1352q0 21 20 21h539q191 0 317 -117q127 -118 127 -299q0 -134 -71 -236.5t-193 -146.5l293 -567q6 -11 1 -19t-16 -8zM408 780h297q96 0 154.5 54.5t58.5 142.5
q0 91 -58 145t-155 54h-297q-13 0 -13 -13v-370q0 -13 13 -13zM653 1538h-123q-21 0 -36 21l-201 256q-6 7 -4 13.5t12 6.5h129q23 0 43 -20l117 -121h4l117 121q20 20 43 20h129q10 0 12 -6.5t-4 -13.5l-201 -256q-15 -21 -37 -21z" />
    <glyph glyph-name="rcaron" unicode="&#x159;" horiz-adv-x="866" 
d="M537 1133h-123q-23 0 -37 20l-201 256q-6 7 -3 14t11 7h129q22 0 43 -21l117 -121h4l117 121q21 21 43 21h129q8 0 11 -7t-3 -14l-201 -256q-14 -20 -36 -20zM358 0h-188q-20 0 -20 20v947q0 20 20 20h188q21 0 21 -20v-84h2q80 127 256 127q125 0 207 -82q13 -13 4 -29
l-109 -137q-13 -16 -28 -4q-74 47 -146 47q-186 0 -186 -250v-535q0 -20 -21 -20z" />
    <glyph glyph-name="Sacute" unicode="&#x15a;" horiz-adv-x="1202" 
d="M604 -23q-152 0 -289 52q-140 53 -223 133q-16 16 -4 31l127 147q15 16 29 2q188 -147 379 -147q122 0 192 54t70 146q0 82 -59 128.5t-195 64.5l-74 10q-420 58 -420 397q0 191 128 305.5t343 114.5q265 0 451 -139q14 -12 4 -29l-98 -151q-13 -16 -29 -6
q-166 108 -334 108q-103 0 -161 -50t-58 -136q0 -151 256 -189l74 -10q415 -59 415 -403q0 -196 -138.5 -314.5t-385.5 -118.5zM659 1559h-145q-10 0 -12 6.5t4 13.5l180 219q15 21 39 21h201q10 0 13 -6.5t-3 -14.5l-240 -223q-16 -16 -37 -16z" />
    <glyph glyph-name="sacute" unicode="&#x15b;" horiz-adv-x="1019" 
d="M528 -23q-254 0 -424 156q-14 15 0 29l117 123q15 15 29 0q56 -50 135.5 -81.5t153.5 -31.5q87 0 134.5 31t47.5 86q0 49 -37 75t-127 33l-106 11q-304 30 -304 290q0 147 100.5 229.5t282.5 82.5q217 0 371 -121q17 -13 4 -29l-100 -121q-12 -14 -29 -4q-116 82 -258 82
q-70 0 -109.5 -28.5t-39.5 -73.5q0 -46 36.5 -72t124.5 -33l107 -10q150 -13 227.5 -88.5t77.5 -200.5q0 -154 -109 -244t-305 -90zM559 1137h-139q-21 0 -12 20l153 256q12 21 37 21h186q10 0 13.5 -7t-2.5 -14l-195 -256q-17 -20 -41 -20z" />
    <glyph glyph-name="Scircumflex" unicode="&#x15c;" horiz-adv-x="1202" 
d="M604 -23q-152 0 -289 52q-140 53 -223 133q-16 16 -4 31l127 147q15 16 29 2q188 -147 379 -147q122 0 192 54t70 146q0 82 -59 128.5t-195 64.5l-74 10q-420 58 -420 397q0 191 128 305.5t343 114.5q265 0 451 -139q14 -12 4 -29l-98 -151q-13 -16 -29 -6
q-166 108 -334 108q-103 0 -161 -50t-58 -136q0 -151 256 -189l74 -10q415 -59 415 -403q0 -196 -138.5 -314.5t-385.5 -118.5zM909 1542h-129q-22 0 -43 21l-116 120h-5l-116 -120q-21 -21 -43 -21h-129q-8 0 -11.5 7t2.5 14l201 256q14 20 37 20h123q23 0 37 -20l201 -256
q6 -7 2.5 -14t-11.5 -7z" />
    <glyph glyph-name="scircumflex" unicode="&#x15d;" horiz-adv-x="1019" 
d="M817 1137h-129q-23 0 -43 20l-117 121h-4l-116 -121q-20 -20 -43 -20h-129q-8 0 -11.5 6.5t2.5 13.5l201 256q15 21 37 21h123q22 0 37 -21l200 -256q6 -7 3 -13.5t-11 -6.5zM528 -23q-254 0 -424 156q-14 15 0 29l117 123q15 15 29 0q56 -50 135.5 -81.5t153.5 -31.5
q87 0 134.5 31t47.5 86q0 49 -37 75t-127 33l-106 11q-304 30 -304 290q0 147 100.5 229.5t282.5 82.5q217 0 371 -121q17 -13 4 -29l-100 -121q-12 -14 -29 -4q-116 82 -258 82q-70 0 -109.5 -28.5t-39.5 -73.5q0 -46 36.5 -72t124.5 -33l107 -10q150 -13 227.5 -88.5
t77.5 -200.5q0 -154 -109 -244t-305 -90z" />
    <glyph glyph-name="Scedilla" unicode="&#x15e;" horiz-adv-x="1202" 
d="M594 -317h-160q-20 0 -14 20l112 277q-127 12 -246 62t-194 120q-16 16 -4 31l127 147q15 16 29 2q188 -147 379 -147q122 0 192 54t70 146q0 82 -59 128.5t-195 64.5l-74 10q-420 58 -420 397q0 191 128 305.5t343 114.5q265 0 451 -139q14 -12 4 -29l-98 -151
q-13 -16 -29 -6q-166 108 -334 108q-103 0 -161 -50t-58 -136q0 -151 256 -189l74 -10q415 -59 415 -403q0 -173 -107.5 -286.5t-305.5 -139.5l-88 -281q-6 -20 -33 -20z" />
    <glyph glyph-name="scedilla" unicode="&#x15f;" horiz-adv-x="1019" 
d="M506 -317h-160q-20 0 -14 20l112 279q-204 24 -340 151q-14 15 0 29l117 123q15 15 29 0q56 -50 135.5 -81.5t153.5 -31.5q87 0 134.5 31t47.5 86q0 49 -37 75t-127 33l-106 11q-304 30 -304 290q0 147 100.5 229.5t282.5 82.5q217 0 371 -121q17 -13 4 -29l-100 -121
q-12 -14 -29 -4q-116 82 -258 82q-70 0 -109.5 -28.5t-39.5 -73.5q0 -46 36.5 -72t124.5 -33l107 -10q150 -13 227.5 -88.5t77.5 -200.5q0 -132 -82 -218.5t-233 -106.5l-88 -283q-6 -20 -33 -20z" />
    <glyph glyph-name="Scaron" unicode="&#x160;" horiz-adv-x="1202" 
d="M604 -23q-152 0 -289 52q-140 53 -223 133q-16 16 -4 31l127 147q15 16 29 2q188 -147 379 -147q122 0 192 54t70 146q0 82 -59 128.5t-195 64.5l-74 10q-420 58 -420 397q0 191 128 305.5t343 114.5q265 0 451 -139q14 -12 4 -29l-98 -151q-13 -16 -29 -6
q-166 108 -334 108q-103 0 -161 -50t-58 -136q0 -151 256 -189l74 -10q415 -59 415 -403q0 -196 -138.5 -314.5t-385.5 -118.5zM680 1538h-123q-22 0 -37 21l-201 256q-6 7 -2.5 13.5t11.5 6.5h129q23 0 43 -20l116 -121h5l116 121q20 20 43 20h129q8 0 11.5 -6.5
t-2.5 -13.5l-201 -256q-15 -21 -37 -21z" />
    <glyph glyph-name="scaron" unicode="&#x161;" horiz-adv-x="1019" 
d="M588 1133h-123q-23 0 -37 20l-201 256q-6 7 -2.5 14t11.5 7h129q22 0 43 -21l116 -121h4l117 121q21 21 43 21h129q8 0 11 -7t-3 -14l-200 -256q-14 -20 -37 -20zM528 -23q-254 0 -424 156q-14 15 0 29l117 123q15 15 29 0q56 -50 135.5 -81.5t153.5 -31.5q87 0 134.5 31
t47.5 86q0 49 -37 75t-127 33l-106 11q-304 30 -304 290q0 147 100.5 229.5t282.5 82.5q217 0 371 -121q17 -13 4 -29l-100 -121q-12 -14 -29 -4q-116 82 -258 82q-70 0 -109.5 -28.5t-39.5 -73.5q0 -46 36.5 -72t124.5 -33l107 -10q150 -13 227.5 -88.5t77.5 -200.5
q0 -154 -109 -244t-305 -90z" />
    <glyph glyph-name="uni0162" unicode="&#x162;" horiz-adv-x="1126" 
d="M477 -467q-20 0 -20 23v313q0 20 20 20h170q21 0 21 -20v-141q0 -24 -15 -39l-145 -142q-14 -14 -31 -14zM664 0h-201q-21 0 -21 20v1143q0 13 -12 13h-364q-21 0 -21 20v176q0 21 21 21h995q20 0 20 -21v-176q0 -20 -20 -20h-365q-12 0 -12 -13v-1143q0 -20 -20 -20z
" />
    <glyph glyph-name="uni0163" unicode="&#x163;" horiz-adv-x="657" 
d="M285 -467q-21 0 -21 23v313q0 20 21 20h170q20 0 20 -20v-141q0 -25 -14 -39l-146 -142q-14 -14 -30 -14zM537 -12h-99q-145 0 -209.5 69.5t-64.5 218.5v521q0 12 -12 12h-66q-20 0 -20 20v138q0 20 20 20h66q12 0 12 12v271q0 20 20 20h189q20 0 20 -20v-271
q0 -12 13 -12h131q20 0 20 -20v-138q0 -20 -20 -20h-131q-13 0 -13 -12v-512q0 -51 21 -71.5t71 -20.5h52q20 0 20 -21v-164q0 -20 -20 -20z" />
    <glyph glyph-name="Tcaron" unicode="&#x164;" horiz-adv-x="1126" 
d="M623 1538h-123q-22 0 -37 21l-201 256q-6 7 -3 13.5t11 6.5h129q23 0 43 -20l117 -121h4l117 121q20 20 43 20h129q8 0 11 -6.5t-3 -13.5l-201 -256q-15 -21 -36 -21zM664 0h-201q-21 0 -21 20v1143q0 13 -12 13h-364q-21 0 -21 20v176q0 21 21 21h995q20 0 20 -21v-176
q0 -20 -20 -20h-365q-12 0 -12 -13v-1143q0 -20 -20 -20z" />
    <glyph glyph-name="tcaron" unicode="&#x165;" horiz-adv-x="657" 
d="M537 -12h-99q-145 0 -209.5 69.5t-64.5 218.5v521q0 12 -12 12h-66q-20 0 -20 20v138q0 20 20 20h66q12 0 12 12v271q0 20 20 20h189q20 0 20 -20v-271q0 -12 13 -12h131q20 0 20 -20v-138q0 -20 -20 -20h-131q-13 0 -13 -12v-512q0 -51 21 -71.5t71 -20.5h52
q20 0 20 -21v-164q0 -20 -20 -20zM528 1028q-20 0 -20 23v321q0 21 20 21h170q21 0 21 -21v-149q0 -25 -14 -39l-146 -142q-14 -14 -31 -14z" />
    <glyph glyph-name="Tbar" unicode="&#x166;" horiz-adv-x="1126" 
d="M664 0h-201q-21 0 -21 20v656q0 12 -12 12h-205q-20 0 -20 21v159q0 21 20 21h205q12 0 12 12v262q0 13 -12 13h-364q-21 0 -21 20v176q0 21 21 21h995q20 0 20 -21v-176q0 -20 -20 -20h-365q-12 0 -12 -13v-262q0 -12 12 -12h205q21 0 21 -21v-159q0 -21 -21 -21h-205
q-12 0 -12 -12v-656q0 -20 -20 -20z" />
    <glyph glyph-name="tbar" unicode="&#x167;" horiz-adv-x="657" 
d="M537 -12h-99q-145 0 -209.5 69.5t-64.5 218.5v222q0 12 -12 12h-46q-20 0 -20 20v125q0 21 20 21h46q12 0 12 12v109q0 12 -12 12h-66q-20 0 -20 20v138q0 20 20 20h66q12 0 12 12v271q0 20 20 20h189q20 0 20 -20v-271q0 -12 13 -12h131q20 0 20 -20v-138q0 -20 -20 -20
h-131q-13 0 -13 -12v-109q0 -12 13 -12h108q21 0 21 -21v-125q0 -20 -21 -20h-108q-13 0 -13 -12v-213q0 -51 21 -71.5t71 -20.5h52q20 0 20 -21v-164q0 -20 -20 -20z" />
    <glyph glyph-name="Utilde" unicode="&#x168;" horiz-adv-x="1316" 
d="M780 1550q-60 0 -137 41q-67 37 -115 37q-62 0 -137 -63q-18 -15 -18 4v125q0 20 16 39q63 69 148 69q60 0 137 -41q67 -37 117 -37q59 0 135 64q18 15 18 -4v-125q0 -20 -16 -39q-64 -70 -148 -70zM657 195q124 0 198.5 79.5t74.5 219.5v878q0 21 20 21h201q20 0 20 -21
v-883q0 -237 -143 -374q-144 -138 -371 -138q-224 0 -368 138t-144 374v883q0 21 21 21h201q20 0 20 -21v-878q0 -139 73.5 -219t196.5 -80z" />
    <glyph glyph-name="utilde" unicode="&#x169;" horiz-adv-x="1114" 
d="M944 0h-188q-21 0 -21 20v72h-2q-89 -115 -256 -115q-154 0 -247 102t-93 265v623q0 20 21 20h188q21 0 21 -20v-570q0 -100 47.5 -157.5t136.5 -57.5q86 0 135 58t49 155v572q0 20 21 20h188q21 0 21 -20v-947q0 -20 -21 -20zM676 1149q-60 0 -137 41q-67 37 -115 37
q-61 0 -137 -64q-19 -16 -19 4v125q0 19 17 39q64 70 147 70q60 0 137 -41q67 -37 117 -37q60 0 135 63q19 16 19 -4v-125q0 -18 -17 -38q-64 -70 -147 -70z" />
    <glyph glyph-name="Umacron" unicode="&#x16a;" horiz-adv-x="1316" 
d="M657 195q124 0 198.5 79.5t74.5 219.5v878q0 21 20 21h201q20 0 20 -21v-883q0 -237 -143 -374q-144 -138 -371 -138q-224 0 -368 138t-144 374v883q0 21 21 21h201q20 0 20 -21v-878q0 -139 73.5 -219t196.5 -80zM928 1602h-539q-20 0 -20 20v125q0 20 20 20h539
q20 0 20 -20v-125q0 -20 -20 -20z" />
    <glyph glyph-name="umacron" unicode="&#x16b;" horiz-adv-x="1114" 
d="M944 0h-188q-21 0 -21 20v72h-2q-89 -115 -256 -115q-154 0 -247 102t-93 265v623q0 20 21 20h188q21 0 21 -20v-570q0 -100 47.5 -157.5t136.5 -57.5q86 0 135 58t49 155v572q0 20 21 20h188q21 0 21 -20v-947q0 -20 -21 -20zM823 1202h-538q-21 0 -21 21v125
q0 20 21 20h538q21 0 21 -20v-125q0 -21 -21 -21z" />
    <glyph glyph-name="Ubreve" unicode="&#x16c;" horiz-adv-x="1316" 
d="M360 1794q0 21 19 21h100q19 0 25 -21q30 -94 153 -94q124 0 154 94q6 21 25 21h100q18 0 18 -21q-8 -111 -88.5 -180.5t-208.5 -69.5t-208.5 69.5t-88.5 180.5zM657 195q124 0 198.5 79.5t74.5 219.5v878q0 21 20 21h201q20 0 20 -21v-883q0 -237 -143 -374
q-144 -138 -371 -138q-224 0 -368 138t-144 374v883q0 21 21 21h201q20 0 20 -21v-878q0 -139 73.5 -219t196.5 -80z" />
    <glyph glyph-name="ubreve" unicode="&#x16d;" horiz-adv-x="1114" 
d="M944 0h-188q-21 0 -21 20v72h-2q-89 -115 -256 -115q-154 0 -247 102t-93 265v623q0 20 21 20h188q21 0 21 -20v-570q0 -100 47.5 -157.5t136.5 -57.5q86 0 135 58t49 155v572q0 20 21 20h188q21 0 21 -20v-947q0 -20 -21 -20zM258 1382q0 21 18 21h101q18 0 24 -21
q30 -92 154 -92t154 92q6 21 24 21h101q18 0 18 -21q-8 -111 -88.5 -179t-208.5 -68t-208.5 68t-88.5 179z" />
    <glyph glyph-name="Uring" unicode="&#x16e;" horiz-adv-x="1316" 
d="M657 195q124 0 198.5 79.5t74.5 219.5v878q0 21 20 21h201q20 0 20 -21v-883q0 -237 -143 -374q-144 -138 -371 -138q-224 0 -368 138t-144 374v883q0 21 21 21h201q20 0 20 -21v-878q0 -139 73.5 -219t196.5 -80zM803 1534q-57 -57 -146 -57q-88 0 -145 57t-57 145
q0 89 57 146q59 59 145 59q87 0 146 -59q57 -57 57 -146q0 -88 -57 -145zM586 1604q29 -29 71.5 -29t71.5 29q29 31 29 75.5t-29 73.5q-29 31 -71.5 31t-71.5 -31q-29 -29 -29 -73.5t29 -75.5z" />
    <glyph glyph-name="uring" unicode="&#x16f;" horiz-adv-x="1114" 
d="M944 0h-188q-21 0 -21 20v72h-2q-89 -115 -256 -115q-154 0 -247 102t-93 265v623q0 20 21 20h188q21 0 21 -20v-570q0 -100 47.5 -157.5t136.5 -57.5q86 0 135 58t49 155v572q0 20 21 20h188q21 0 21 -20v-947q0 -20 -21 -20zM700 1141q-58 -58 -145 -58t-145 58
t-58 147q0 88 58 146q59 59 145 59t145 -59q58 -58 58 -146q0 -89 -58 -147zM483 1212q29 -29 72 -29t72 29q29 31 29 76t-29 74q-29 31 -72 31t-72 -31q-29 -29 -29 -74t29 -76z" />
    <glyph glyph-name="Uhungarumlaut" unicode="&#x170;" horiz-adv-x="1316" 
d="M868 1563h-129q-21 0 -10 20l133 219q12 21 35 21h160q8 0 11 -6.5t-3 -14.5l-158 -219q-14 -20 -39 -20zM545 1563h-129q-21 0 -10 20l133 219q12 21 34 21h160q8 0 11 -6.5t-3 -14.5l-157 -219q-14 -20 -39 -20zM657 195q124 0 198.5 79.5t74.5 219.5v878q0 21 20 21
h201q20 0 20 -21v-883q0 -237 -143 -374q-144 -138 -371 -138q-224 0 -368 138t-144 374v883q0 21 21 21h201q20 0 20 -21v-878q0 -139 73.5 -219t196.5 -80z" />
    <glyph glyph-name="uhungarumlaut" unicode="&#x171;" horiz-adv-x="1114" 
d="M944 0h-188q-21 0 -21 20v72h-2q-89 -115 -256 -115q-154 0 -247 102t-93 265v623q0 20 21 20h188q21 0 21 -20v-570q0 -100 47.5 -157.5t136.5 -57.5q86 0 135 58t49 155v572q0 20 21 20h188q21 0 21 -20v-947q0 -20 -21 -20zM774 1137h-133q-21 0 -12 20l133 256
q9 21 33 21h159q23 0 11 -21l-158 -256q-11 -20 -33 -20zM451 1137h-134q-21 0 -12 20l133 256q9 21 33 21h160q22 0 10 -21l-158 -256q-11 -20 -32 -20z" />
    <glyph glyph-name="Uogonek" unicode="&#x172;" horiz-adv-x="1316" 
d="M682 -389q-92 0 -144.5 47.5t-52.5 132.5q0 81 90 191q-198 23 -314 158t-116 349v883q0 21 21 21h201q20 0 20 -21v-878q0 -139 73.5 -219t196.5 -80q124 0 198.5 79.5t74.5 219.5v878q0 21 20 21h201q20 0 20 -21v-883q0 -197 -103.5 -327t-279.5 -172
q-116 -94 -116 -160q0 -53 49 -53q14 0 51 16q17 9 27 -8l49 -102q11 -18 -8 -27q-62 -45 -158 -45z" />
    <glyph glyph-name="uogonek" unicode="&#x173;" horiz-adv-x="1114" 
d="M793 -389q-89 0 -142 47.5t-53 132.5q0 62 32.5 110t108.5 105q-4 4 -4 14v72h-2q-89 -115 -256 -115q-154 0 -247 102t-93 265v623q0 20 21 20h188q21 0 21 -20v-570q0 -100 47.5 -157.5t136.5 -57.5q86 0 135 58t49 155v572q0 20 21 20h188q21 0 21 -20v-947
q0 -13 -11 -20q-172 -102 -172 -170q0 -53 54 -53q12 0 49 16q16 8 26 -8l50 -102q10 -17 -9 -27q-62 -45 -159 -45z" />
    <glyph glyph-name="Wcircumflex" unicode="&#x174;" horiz-adv-x="1693" 
d="M1300 0h-155q-19 0 -25 20l-266 953h-4l-268 -953q-6 -20 -25 -20h-154q-18 0 -24 20l-342 1352q-3 21 16 21h193q21 0 24 -21l222 -938h4l260 938q6 21 24 21h144q18 0 24 -21l266 -938h5l215 938q3 21 24 21h191q19 0 16 -21l-340 -1352q-3 -20 -25 -20zM1141 1542
h-129q-22 0 -43 21l-117 120h-4l-117 -120q-21 -21 -43 -21h-129q-10 0 -12 7t4 14l201 256q14 20 36 20h123q23 0 37 -20l201 -256q6 -7 4 -14t-12 -7z" />
    <glyph glyph-name="wcircumflex" unicode="&#x175;" horiz-adv-x="1542" 
d="M1067 1137h-129q-23 0 -43 20l-117 121h-4l-117 -121q-20 -20 -43 -20h-129q-8 0 -11 6.5t3 13.5l201 256q15 21 37 21h123q21 0 36 -21l201 -256q6 -7 3 -13.5t-11 -6.5zM1163 0h-168q-18 0 -24 20l-191 631h-4l-192 -631q-6 -20 -25 -20h-168q-18 0 -24 20l-312 947
q-6 20 15 20h196q21 0 27 -20l190 -652h4l189 652q6 20 26 20h148q21 0 27 -20l200 -652h4l181 652q6 20 26 20h197q20 0 14 -20l-311 -947q-6 -20 -25 -20z" />
    <glyph glyph-name="Ycircumflex" unicode="&#x176;" horiz-adv-x="1097" 
d="M657 0h-200q-21 0 -21 20v549l-403 803q-9 21 16 21h207q20 0 29 -21l272 -541h6l275 541q9 21 28 21h199q25 0 16 -21l-403 -803v-549q0 -20 -21 -20zM846 1542h-129q-22 0 -43 21l-117 120h-4l-117 -120q-21 -21 -43 -21h-129q-10 0 -12 7t4 14l201 256q14 20 37 20
h122q23 0 37 -20l201 -256q6 -7 4 -14t-12 -7z" />
    <glyph glyph-name="ycircumflex" unicode="&#x177;" horiz-adv-x="993" 
d="M254 -369h-64q-20 0 -20 21v164q0 20 20 20h37q57 0 91 27t57 90l28 84l-360 930q-6 20 16 20h203q19 0 25 -20l223 -645h4l213 645q6 20 25 20h194q23 0 17 -20l-377 -1028q-65 -177 -137 -240q-71 -68 -195 -68zM801 1137h-129q-23 0 -43 20l-117 121h-4l-117 -121
q-20 -20 -43 -20h-129q-8 0 -11 6.5t3 13.5l201 256q15 21 37 21h122q22 0 37 -21l201 -256q6 -7 3 -13.5t-11 -6.5z" />
    <glyph glyph-name="Ydieresis" unicode="&#x178;" horiz-adv-x="1097" 
d="M657 0h-200q-21 0 -21 20v549l-403 803q-9 21 16 21h207q20 0 29 -21l272 -541h6l275 541q9 21 28 21h199q25 0 16 -21l-403 -803v-549q0 -20 -21 -20zM836 1575h-150q-20 0 -20 20v179q0 20 20 20h150q20 0 20 -20v-179q0 -20 -20 -20zM426 1575h-150q-20 0 -20 20v179
q0 20 20 20h150q20 0 20 -20v-179q0 -20 -20 -20z" />
    <glyph glyph-name="Zacute" unicode="&#x179;" horiz-adv-x="1089" 
d="M979 0h-866q-21 0 -21 20v177q0 10 6 22l629 952v5h-592q-20 0 -20 20v176q0 21 20 21h844q20 0 20 -21v-176q0 -11 -6 -20l-628 -955v-4h614q20 0 20 -20v-177q0 -20 -20 -20zM575 1559h-145q-8 0 -11 6.5t3 13.5l180 219q15 21 39 21h201q11 0 14 -6.5t-4 -14.5
l-240 -223q-16 -16 -37 -16z" />
    <glyph glyph-name="zacute" unicode="&#x17a;" horiz-adv-x="993" 
d="M866 0h-739q-21 0 -21 20v150q0 10 7 20l503 592v4h-462q-21 0 -21 21v160q0 20 21 20h712q21 0 21 -20v-160q0 -12 -6 -21l-498 -581v-4h483q21 0 21 -21v-160q0 -20 -21 -20zM543 1137h-140q-21 0 -12 20l154 256q12 21 37 21h186q10 0 13 -7t-3 -14l-194 -256
q-17 -20 -41 -20z" />
    <glyph glyph-name="Zdotaccent" unicode="&#x17b;" horiz-adv-x="1089" 
d="M979 0h-866q-21 0 -21 20v177q0 10 6 22l629 952v5h-592q-20 0 -20 20v176q0 21 20 21h844q20 0 20 -21v-176q0 -11 -6 -20l-628 -955v-4h614q20 0 20 -20v-177q0 -20 -20 -20zM639 1575h-190q-21 0 -21 20v179q0 20 21 20h190q20 0 20 -20v-179q0 -20 -20 -20z" />
    <glyph glyph-name="zdotaccent" unicode="&#x17c;" horiz-adv-x="993" 
d="M866 0h-739q-21 0 -21 20v150q0 10 7 20l503 592v4h-462q-21 0 -21 21v160q0 20 21 20h712q21 0 21 -20v-160q0 -12 -6 -21l-498 -581v-4h483q21 0 21 -21v-160q0 -20 -21 -20zM598 1174h-190q-21 0 -21 20v178q0 21 21 21h190q20 0 20 -21v-178q0 -20 -20 -20z" />
    <glyph glyph-name="Zcaron" unicode="&#x17d;" horiz-adv-x="1089" 
d="M606 1538h-123q-22 0 -37 21l-200 256q-6 7 -3 13.5t11 6.5h129q23 0 43 -20l117 -121h4l117 121q20 20 43 20h129q8 0 11 -6.5t-3 -13.5l-201 -256q-15 -21 -37 -21zM979 0h-866q-21 0 -21 20v177q0 10 6 22l629 952v5h-592q-20 0 -20 20v176q0 21 20 21h844
q20 0 20 -21v-176q0 -11 -6 -20l-628 -955v-4h614q20 0 20 -20v-177q0 -20 -20 -20z" />
    <glyph glyph-name="zcaron" unicode="&#x17e;" horiz-adv-x="993" 
d="M866 0h-739q-21 0 -21 20v150q0 10 7 20l503 592v4h-462q-21 0 -21 21v160q0 20 21 20h712q21 0 21 -20v-160q0 -12 -6 -21l-498 -581v-4h483q21 0 21 -21v-160q0 -20 -21 -20zM563 1133h-123q-23 0 -37 20l-200 256q-6 7 -4 14t12 7h129q22 0 43 -21l117 -121h4l117 121
q21 21 43 21h129q10 0 12 -7t-4 -14l-201 -256q-14 -20 -37 -20z" />
    <glyph glyph-name="florin" unicode="&#x192;" 
d="M899 664h-205l-106 -701q-29 -180 -109 -256t-241 -76h-58q-20 0 -20 21v158q0 20 20 20h35q75 0 107.5 26.5t44.5 102.5l106 705h-133q-21 0 -21 20v133q0 21 21 21h160l37 231q27 169 107.5 246.5t238.5 77.5h61q21 0 21 -21v-158q0 -20 -21 -20h-41q-66 0 -100.5 -29
t-44.5 -96l-37 -231h178q21 0 21 -21v-133q0 -20 -21 -20z" />
    <glyph glyph-name="Scommaaccent" unicode="&#x218;" horiz-adv-x="1202" 
d="M604 -23q-152 0 -289 52q-140 53 -223 133q-16 16 -4 31l127 147q15 16 29 2q188 -147 379 -147q122 0 192 54t70 146q0 82 -59 128.5t-195 64.5l-74 10q-420 58 -420 397q0 191 128 305.5t343 114.5q265 0 451 -139q14 -12 4 -29l-98 -151q-13 -16 -29 -6
q-166 108 -334 108q-103 0 -161 -50t-58 -136q0 -151 256 -189l74 -10q415 -59 415 -403q0 -196 -138.5 -314.5t-385.5 -118.5zM526 -467q-20 0 -20 23v313q0 20 20 20h170q21 0 21 -20v-141q0 -24 -15 -39l-145 -142q-14 -14 -31 -14z" />
    <glyph glyph-name="scommaaccent" unicode="&#x219;" horiz-adv-x="1019" 
d="M528 -23q-254 0 -424 156q-14 15 0 29l117 123q15 15 29 0q56 -50 135.5 -81.5t153.5 -31.5q87 0 134.5 31t47.5 86q0 49 -37 75t-127 33l-106 11q-304 30 -304 290q0 147 100.5 229.5t282.5 82.5q217 0 371 -121q17 -13 4 -29l-100 -121q-12 -14 -29 -4q-116 82 -258 82
q-70 0 -109.5 -28.5t-39.5 -73.5q0 -46 36.5 -72t124.5 -33l107 -10q150 -13 227.5 -88.5t77.5 -200.5q0 -154 -109 -244t-305 -90zM438 -467q-20 0 -20 23v313q0 20 20 20h170q21 0 21 -20v-141q0 -24 -15 -39l-145 -142q-14 -14 -31 -14z" />
    <glyph glyph-name="uni021A" unicode="&#x21a;" horiz-adv-x="1126" 
d="M477 -467q-20 0 -20 23v313q0 20 20 20h170q21 0 21 -20v-141q0 -24 -15 -39l-145 -142q-14 -14 -31 -14zM664 0h-201q-21 0 -21 20v1143q0 13 -12 13h-364q-21 0 -21 20v176q0 21 21 21h995q20 0 20 -21v-176q0 -20 -20 -20h-365q-12 0 -12 -13v-1143q0 -20 -20 -20z
" />
    <glyph glyph-name="uni021B" unicode="&#x21b;" horiz-adv-x="657" 
d="M285 -467q-21 0 -21 23v313q0 20 21 20h170q20 0 20 -20v-141q0 -25 -14 -39l-146 -142q-14 -14 -30 -14zM537 -12h-99q-145 0 -209.5 69.5t-64.5 218.5v521q0 12 -12 12h-66q-20 0 -20 20v138q0 20 20 20h66q12 0 12 12v271q0 20 20 20h189q20 0 20 -20v-271
q0 -12 13 -12h131q20 0 20 -20v-138q0 -20 -20 -20h-131q-13 0 -13 -12v-512q0 -51 21 -71.5t71 -20.5h52q20 0 20 -21v-164q0 -20 -20 -20z" />
    <glyph glyph-name="dotlessj" unicode="&#x237;" horiz-adv-x="528" 
d="M47 -369h-57q-21 0 -21 21v164q0 20 21 20h45q63 0 89 26t26 91v1014q0 20 20 20h188q21 0 21 -20v-1010q0 -326 -332 -326z" />
    <glyph glyph-name="circumflex" unicode="&#x2c6;" horiz-adv-x="864" 
d="M725 1137h-129q-23 0 -43 20l-117 121h-4l-117 -121q-20 -20 -43 -20h-129q-10 0 -12 6.5t4 13.5l201 256q15 21 37 21h123q21 0 36 -21l201 -256q6 -7 4 -13.5t-12 -6.5z" />
    <glyph glyph-name="caron" unicode="&#x2c7;" horiz-adv-x="864" 
d="M496 1133h-123q-23 0 -37 20l-201 256q-6 7 -4 14t12 7h129q22 0 43 -21l117 -121h4l117 121q21 21 43 21h129q10 0 12 -7t-4 -14l-201 -256q-14 -20 -36 -20z" />
    <glyph glyph-name="uni02C9" unicode="&#x2c9;" horiz-adv-x="864" 
d="M700 1602h-538q-21 0 -21 20v125q0 20 21 20h538q21 0 21 -20v-125q0 -20 -21 -20z" />
    <glyph glyph-name="breve" unicode="&#x2d8;" horiz-adv-x="864" 
d="M135 1382q0 21 19 21h100q19 0 25 -21q30 -92 153 -92q124 0 154 92q6 21 24 21h101q18 0 18 -21q-8 -111 -88.5 -179t-208.5 -68t-208.5 68t-88.5 179z" />
    <glyph glyph-name="dotaccent" unicode="&#x2d9;" horiz-adv-x="864" 
d="M526 1174h-190q-21 0 -21 20v178q0 21 21 21h190q21 0 21 -21v-178q0 -20 -21 -20z" />
    <glyph glyph-name="ring" unicode="&#x2da;" horiz-adv-x="864" 
d="M578 1141q-58 -58 -146 -58q-87 0 -145 58t-58 147q0 88 58 146q59 59 145 59q87 0 146 -59q57 -57 57 -146q0 -90 -57 -147zM360 1212q29 -29 72 -29t72 29q29 31 29 76t-29 74q-29 31 -72 31t-72 -31q-29 -29 -29 -74t29 -76z" />
    <glyph glyph-name="ogonek" unicode="&#x2db;" horiz-adv-x="864" 
d="M410 -389q-92 0 -144.5 47.5t-52.5 132.5q0 117 135 209q26 20 51 20h166q10 0 11 -8t-7 -12q-170 -99 -170 -170q0 -53 50 -53q14 0 51 16q16 8 26 -8l49 -102q11 -18 -8 -27q-62 -45 -157 -45z" />
    <glyph glyph-name="tilde" unicode="&#x2dc;" horiz-adv-x="864" 
d="M549 1149q-60 0 -137 41q-67 37 -115 37q-61 0 -137 -64q-19 -16 -19 4v125q0 19 17 39q64 70 147 70q60 0 137 -41q67 -37 117 -37q60 0 135 63q19 16 19 -4v-125q0 -18 -17 -38q-64 -70 -147 -70z" />
    <glyph glyph-name="hungarumlaut" unicode="&#x2dd;" horiz-adv-x="864" 
d="M592 1137h-133q-22 0 -13 20l134 256q9 21 32 21h160q22 0 10 -21l-157 -256q-11 -20 -33 -20zM268 1137h-133q-21 0 -12 20l133 256q9 21 33 21h160q22 0 10 -21l-158 -256q-11 -20 -33 -20z" />
    <glyph glyph-name="uni0394" unicode="&#x394;" horiz-adv-x="1280" 
d="M1225 0h-1157q-23 0 -17 20l477 1352q6 21 27 21h188q21 0 27 -21l471 -1352q6 -20 -16 -20zM362 195h566q13 0 10 12l-289 840h-6l-291 -840q-3 -12 10 -12z" />
    <glyph glyph-name="uni03A9" unicode="&#x3a9;" horiz-adv-x="1298" 
d="M1169 0h-413q-21 0 -21 20v175q0 20 21 26q186 55 186 475q0 225 -29 320q-59 182 -264 182t-264 -182q-29 -95 -29 -320q0 -420 187 -475q20 -6 20 -26v-175q0 -20 -20 -20h-414q-20 0 -20 20v177q0 20 20 20h135v4q-81 64 -119 166q-34 103 -34 309q0 261 39 377
q54 166 184 254t315 88t316 -88t184 -254q39 -116 39 -377q0 -205 -37 -309q-34 -101 -117 -166v-4h135q21 0 21 -20v-177q0 -20 -21 -20z" />
    <glyph glyph-name="uni03BC" unicode="&#x3bc;" horiz-adv-x="1185" 
d="M776 115h-2q-73 -138 -242 -138q-105 0 -149 62h-4v-387q0 -21 -21 -21h-188q-20 0 -20 21v1315q0 20 20 20h188q21 0 21 -20v-572q0 -99 48.5 -156t135.5 -57t139 59.5t52 153.5v572q0 20 20 20h189q20 0 20 -20v-682q0 -57 10.5 -74.5t48.5 -17.5q21 0 21 -21v-164
q0 -20 -21 -20h-51q-99 0 -147.5 29t-67.5 98z" />
    <glyph glyph-name="pi" unicode="&#x3c0;" horiz-adv-x="1214" 
d="M1087 -12h-69q-138 0 -199 67.5t-61 212.5v502q0 12 -13 12h-305q-12 0 -12 -12v-750q0 -20 -20 -20h-189q-20 0 -20 20v750q0 12 -13 12h-104q-21 0 -21 21v164q0 20 21 20h1030q21 0 21 -20v-164q0 -21 -21 -21h-113q-12 0 -12 -12v-496q0 -44 15.5 -62.5t52.5 -18.5
h32q21 0 21 -21v-164q0 -20 -21 -20z" />
    <glyph glyph-name="uni0400" unicode="&#x400;" horiz-adv-x="1167" 
d="M1047 0h-873q-20 0 -20 20v1352q0 21 20 21h873q20 0 20 -21v-176q0 -20 -20 -20h-639q-13 0 -13 -13v-340q0 -12 13 -12h538q21 0 21 -20v-177q0 -20 -21 -20h-538q-13 0 -13 -12v-353q0 -12 13 -12h639q20 0 20 -20v-177q0 -20 -20 -20zM725 1559h-147q-21 0 -37 16
l-238 223q-8 8 -5 14.5t13 6.5h201q24 0 39 -21l182 -219q6 -7 3 -13.5t-11 -6.5z" />
    <glyph glyph-name="uni0401" unicode="&#x401;" horiz-adv-x="1167" 
d="M1047 0h-873q-20 0 -20 20v1352q0 21 20 21h873q20 0 20 -21v-176q0 -20 -20 -20h-639q-13 0 -13 -13v-340q0 -12 13 -12h538q21 0 21 -20v-177q0 -20 -21 -20h-538q-13 0 -13 -12v-353q0 -12 13 -12h639q20 0 20 -20v-177q0 -20 -20 -20zM887 1575h-150q-20 0 -20 20
v179q0 20 20 20h150q20 0 20 -20v-179q0 -20 -20 -20zM477 1575h-149q-21 0 -21 20v179q0 20 21 20h149q21 0 21 -20v-179q0 -20 -21 -20z" />
    <glyph glyph-name="uni0402" unicode="&#x402;" horiz-adv-x="1527" 
d="M670 0h-201q-20 0 -20 20v1143q0 13 -11 13h-372q-21 0 -21 20v176q0 21 21 21h1007q21 0 21 -21v-176q0 -20 -21 -20h-371q-12 0 -12 -13v-340q0 -15 17 -12q170 51 337 51q175 0 291 -104q119 -101 119 -309q0 -216 -123.5 -332.5t-359.5 -116.5h-64q-16 0 -16 20v177
q0 20 20 20h54q247 0 247 217q0 103 -63.5 157t-171.5 54q-134 0 -270 -53q-17 -7 -17 -25v-547q0 -20 -20 -20z" />
    <glyph glyph-name="uni0403" unicode="&#x403;" horiz-adv-x="1024" 
d="M375 0h-201q-20 0 -20 20v1352q0 21 20 21h799q20 0 20 -21v-178q0 -18 -20 -18h-565q-13 0 -13 -13v-1143q0 -20 -20 -20zM610 1559h-145q-10 0 -12 6.5t4 13.5l180 219q15 21 39 21h201q10 0 13 -6.5t-3 -14.5l-240 -223q-16 -16 -37 -16z" />
    <glyph glyph-name="uni0404" unicode="&#x404;" horiz-adv-x="1175" 
d="M643 -23q-168 0 -290 73.5t-183 213.5q-57 132 -57 438q0 258 41 383q53 163 180 246.5t309 83.5q337 0 457 -278q6 -21 -8 -29l-166 -78q-17 -10 -27 10q-82 162 -252 162q-206 0 -264 -178q-24 -70 -27 -199q0 -14 15 -14h413q19 0 19 -18v-177q0 -18 -19 -18h-413
q-15 0 -15 -14q3 -157 37 -238q62 -156 254 -156q170 0 252 162q9 20 29 10l164 -77q17 -8 8 -29q-57 -131 -177 -205t-280 -74z" />
    <glyph glyph-name="uni0405" unicode="&#x405;" horiz-adv-x="1202" 
d="M604 -23q-152 0 -289 52q-140 53 -223 133q-16 16 -4 31l127 147q15 16 29 2q188 -147 379 -147q122 0 192 54t70 146q0 82 -59 128.5t-195 64.5l-74 10q-420 58 -420 397q0 191 128 305.5t343 114.5q265 0 451 -139q14 -12 4 -29l-98 -151q-13 -16 -29 -6
q-166 108 -334 108q-103 0 -161 -50t-58 -136q0 -151 256 -189l74 -10q415 -59 415 -403q0 -196 -138.5 -314.5t-385.5 -118.5z" />
    <glyph glyph-name="uni0406" unicode="&#x406;" horiz-adv-x="548" 
d="M375 0h-201q-20 0 -20 20v1352q0 21 20 21h201q20 0 20 -21v-1352q0 -20 -20 -20z" />
    <glyph glyph-name="uni0407" unicode="&#x407;" horiz-adv-x="548" 
d="M555 1575h-149q-21 0 -21 20v179q0 20 21 20h149q20 0 20 -20v-179q0 -20 -20 -20zM145 1575h-149q-21 0 -21 20v179q0 20 21 20h149q21 0 21 -20v-179q0 -20 -21 -20zM375 0h-201q-20 0 -20 20v1352q0 21 20 21h201q20 0 20 -21v-1352q0 -20 -20 -20z" />
    <glyph glyph-name="uni0408" unicode="&#x408;" horiz-adv-x="1038" 
d="M422 -23q-114 0 -214.5 47.5t-148.5 120.5q-10 17 4 29l150 113q16 9 31 -6q74 -86 186 -86q113 0 172.5 70t59.5 204v903q0 21 20 21h201q20 0 20 -21v-903q0 -232 -128.5 -362t-352.5 -130z" />
    <glyph glyph-name="uni0409" unicode="&#x409;" horiz-adv-x="2064" 
d="M133 -8h-96q-19 0 -19 20v178q0 19 19 19h24q45 0 80.5 13t69.5 49.5t56.5 97.5t36 162.5t13.5 238.5v604q0 19 21 19h856q20 0 20 -19v-495q0 -13 13 -13h293q219 0 345 -117.5t126 -314.5q0 -198 -126 -316t-345 -118h-529q-18 0 -18 20v1143q0 13 -12 13h-394
q-12 0 -12 -13v-422q0 -405 -106 -577q-105 -172 -316 -172zM1227 217h278q116 0 180 59.5t64 165.5q0 207 -244 207h-278q-13 0 -13 -12v-408q0 -12 13 -12z" />
    <glyph glyph-name="uni040A" unicode="&#x40a;" horiz-adv-x="2023" 
d="M375 0h-201q-20 0 -20 20v1352q0 21 20 21h201q20 0 20 -21v-522q0 -12 13 -12h530q12 0 12 12v522q0 21 21 21h200q21 0 21 -21v-522q0 -12 12 -12h307q197 0 318 -115t121 -303q0 -185 -121 -303q-120 -117 -318 -117h-540q-21 0 -21 20v588q0 13 -12 13h-530
q-13 0 -13 -13v-588q0 -20 -20 -20zM1204 217h283q105 0 163 53t58 150t-58 149t-163 52h-283q-12 0 -12 -13v-379q0 -12 12 -12z" />
    <glyph glyph-name="uni040B" unicode="&#x40b;" horiz-adv-x="1550" 
d="M670 0h-201q-20 0 -20 20v1143q0 9 -11 13h-372q-21 0 -21 20v176q0 21 21 21h1007q21 0 21 -21v-176q0 -20 -21 -20h-371q-9 0 -12 -9v-340q0 -11 6 -14.5t17 0.5q186 49 331 49q381 0 381 -360v-484q0 -18 -20 -18h-201q-20 0 -20 18v435q0 192 -207 192
q-114 0 -254 -41q-33 -9 -33 -35v-549q0 -20 -20 -20z" />
    <glyph glyph-name="uni040C" unicode="&#x40c;" horiz-adv-x="1296" 
d="M375 0h-201q-20 0 -20 20v1352q0 21 20 21h201q20 0 20 -21v-545q0 -12 13 -12h137q124 0 180 139l94 236q44 112 111 161.5t170 49.5h84q20 0 20 -21v-174q0 -18 -20 -18h-27q-56 0 -83 -21.5t-52 -83.5l-72 -182q-55 -144 -133 -174v-8q95 -21 148 -154l96 -246
q25 -68 50.5 -89t84.5 -21h31q20 0 20 -19v-178q0 -20 -20 -20h-101q-104 0 -172 51.5t-112 163.5l-105 264q-53 127 -180 127h-149q-13 0 -13 -12v-566q0 -20 -20 -20zM692 1559h-145q-10 0 -12 6.5t4 13.5l180 219q15 21 39 21h200q10 0 13.5 -6.5t-2.5 -14.5l-240 -223
q-16 -16 -37 -16z" />
    <glyph glyph-name="uni040D" unicode="&#x40d;" horiz-adv-x="1372" 
d="M362 0h-188q-20 0 -20 20v1354q0 19 20 19h203q18 0 18 -19v-956h6l584 962q7 13 25 13h188q21 0 21 -19v-1354q0 -20 -21 -20h-201q-20 0 -20 20v959h-6l-584 -965q-8 -14 -25 -14zM807 1559h-148q-20 0 -36 16l-238 223q-8 8 -5 14.5t13 6.5h201q24 0 39 -21l182 -219
q6 -7 3 -13.5t-11 -6.5z" />
    <glyph glyph-name="uni040E" unicode="&#x40e;" horiz-adv-x="1171" 
d="M358 -8h-143q-20 0 -20 20v178q0 19 20 19h92q106 0 152 110l37 87l-453 964q-10 23 10 23h217q20 0 29 -19l311 -690h6l277 690q9 19 29 19h215q17 0 8 -21l-490 -1143q-102 -237 -297 -237zM612 1528q-246 0 -295 229q-6 28 11 31l108 14q19 3 25 -12q38 -109 151 -109
q111 0 152 109q6 15 24 12l107 -14q18 -3 12 -31q-52 -229 -295 -229z" />
    <glyph glyph-name="uni040F" unicode="&#x40f;" horiz-adv-x="1331" 
d="M760 -291h-189q-18 0 -18 19v260q0 12 -12 12h-367q-20 0 -20 18v1354q0 21 20 21h203q18 0 18 -21v-1143q0 -12 13 -12h516q12 0 12 12v1143q0 21 18 21h205q19 0 19 -21v-1354q0 -18 -21 -18h-366q-13 0 -13 -12v-260q0 -19 -18 -19z" />
    <glyph glyph-name="uni0410" unicode="&#x410;" horiz-adv-x="1263" 
d="M256 0h-199q-20 0 -14 20l477 1352q6 21 27 21h188q21 0 27 -21l471 -1352q6 -20 -14 -20h-201q-21 0 -27 20l-92 271h-524l-92 -271q-6 -20 -27 -20zM635 1047l-186 -541h376l-184 541h-6z" />
    <glyph glyph-name="uni0411" unicode="&#x411;" horiz-adv-x="1245" 
d="M715 0h-541q-20 0 -20 20v1354q0 19 20 19h877q20 0 20 -19v-180q0 -18 -20 -18h-643q-13 0 -13 -13v-313q0 -12 13 -12h307q196 0 317 -115t121 -303q0 -185 -121 -303q-120 -117 -317 -117zM408 217h282q105 0 163 53t58 150t-58 149t-163 52h-282q-13 0 -13 -13v-379
q0 -12 13 -12z" />
    <glyph glyph-name="uni0412" unicode="&#x412;" horiz-adv-x="1243" 
d="M672 0h-498q-20 0 -20 20v1352q0 21 20 21h518q212 0 323 -98t111 -273q0 -209 -161 -293v-8q78 -31 132 -114.5t54 -196.5q0 -203 -123 -306.5t-356 -103.5zM408 213h290q99 0 155 53t56 142q0 88 -56 140t-155 52h-290q-13 0 -13 -12v-363q0 -12 13 -12zM408 813h278
q92 0 145.5 50t53.5 132q0 85 -53.5 135t-145.5 50h-278q-13 0 -13 -13v-342q0 -12 13 -12z" />
    <glyph glyph-name="uni0413" unicode="&#x413;" horiz-adv-x="1024" 
d="M375 0h-201q-20 0 -20 20v1352q0 21 20 21h799q20 0 20 -21v-178q0 -18 -20 -18h-565q-13 0 -13 -13v-1143q0 -20 -20 -20z" />
    <glyph glyph-name="uni0414" unicode="&#x414;" horiz-adv-x="1392" 
d="M227 -291h-190q-17 0 -17 19v471q0 18 19 18h82q25 0 31 16q87 164 122 375q37 209 37 635v131q0 19 21 19h854q18 0 18 -21v-1143q0 -12 13 -12h120q21 0 21 -18v-471q0 -19 -19 -19h-190q-16 0 -16 19v260q0 12 -13 12h-862q-12 0 -12 -12v-260q0 -19 -19 -19zM414 217
h536q13 0 13 12v934q0 13 -13 13h-391q-12 0 -12 -13v-16q0 -643 -144 -916q-8 -14 11 -14z" />
    <glyph glyph-name="uni0415" unicode="&#x415;" horiz-adv-x="1167" 
d="M1047 0h-873q-20 0 -20 20v1352q0 21 20 21h873q20 0 20 -21v-176q0 -20 -20 -20h-639q-13 0 -13 -13v-340q0 -12 13 -12h538q21 0 21 -20v-177q0 -20 -21 -20h-538q-13 0 -13 -12v-353q0 -12 13 -12h639q20 0 20 -20v-177q0 -20 -20 -20z" />
    <glyph glyph-name="uni0416" unicode="&#x416;" horiz-adv-x="1941" 
d="M168 -8h-98q-21 0 -21 20v178q0 19 21 19h28q60 0 86 21t52 89l96 246q28 69 62 105.5t89 48.5v8q-76 21 -139 174l-72 182q-26 63 -51.5 84t-83.5 21h-26q-21 0 -21 18v174q0 21 21 21h84q103 0 169.5 -49.5t110.5 -161.5l96 -236q59 -141 181 -141h86q12 0 12 12v547
q0 21 20 21h201q21 0 21 -21v-547q0 -12 12 -12h84q124 0 182 141l94 236q44 112 111 161.5t170 49.5h84q20 0 20 -21v-174q0 -18 -20 -18h-27q-58 0 -83.5 -21t-51.5 -84l-72 -182q-59 -151 -139 -174v-8q101 -21 154 -154l94 -246q27 -68 52.5 -89t84.5 -21h31
q20 0 20 -19v-178q0 -20 -20 -20h-100q-104 0 -172.5 51.5t-112.5 163.5l-105 264q-52 129 -180 129h-98q-12 0 -12 -12v-568q0 -20 -21 -20h-201q-20 0 -20 20v568q0 12 -12 12h-99q-127 0 -180 -129l-106 -264q-44 -115 -111 -165t-174 -50z" />
    <glyph glyph-name="uni0417" unicode="&#x417;" horiz-adv-x="1146" 
d="M567 -23q-326 0 -506 168q-12 9 0 31l101 143q9 15 24 3q169 -132 367 -132q113 0 186.5 57.5t73.5 149.5q0 203 -246 203h-149q-21 0 -21 21v172q0 20 21 20h151q105 0 164.5 53.5t59.5 149.5q0 91 -65.5 138.5t-182.5 47.5q-179 0 -320 -112q-21 -15 -30 0l-97 143
q-13 20 2 29q199 153 461 153q221 0 348 -103t127 -282q0 -107 -45 -187t-129 -116v-8q92 -31 144.5 -117t52.5 -209q0 -187 -135 -301q-136 -115 -357 -115z" />
    <glyph glyph-name="uni0418" unicode="&#x418;" horiz-adv-x="1372" 
d="M362 0h-188q-20 0 -20 20v1354q0 19 20 19h203q18 0 18 -19v-956h6l584 962q7 13 25 13h188q21 0 21 -19v-1354q0 -20 -21 -20h-201q-20 0 -20 20v959h-6l-584 -965q-8 -14 -25 -14z" />
    <glyph glyph-name="uni0419" unicode="&#x419;" horiz-adv-x="1372" 
d="M362 0h-188q-20 0 -20 20v1354q0 19 20 19h203q18 0 18 -19v-956h6l584 962q7 13 25 13h188q21 0 21 -19v-1354q0 -20 -21 -20h-201q-20 0 -20 20v959h-6l-584 -965q-8 -14 -25 -14zM688 1528q-246 0 -295 229q-6 28 10 31l109 14q19 3 25 -12q38 -109 151 -109
q111 0 152 109q6 15 24 12l107 -14q18 -3 12 -31q-52 -229 -295 -229z" />
    <glyph glyph-name="uni041A" unicode="&#x41a;" horiz-adv-x="1296" 
d="M375 0h-201q-20 0 -20 20v1352q0 21 20 21h201q20 0 20 -21v-545q0 -12 13 -12h137q124 0 180 139l94 236q44 112 111 161.5t170 49.5h84q20 0 20 -21v-174q0 -18 -20 -18h-27q-56 0 -83 -21.5t-52 -83.5l-72 -182q-55 -144 -133 -174v-8q95 -21 148 -154l96 -246
q25 -68 50.5 -89t84.5 -21h31q20 0 20 -19v-178q0 -20 -20 -20h-101q-104 0 -172 51.5t-112 163.5l-105 264q-53 127 -180 127h-149q-13 0 -13 -12v-566q0 -20 -20 -20z" />
    <glyph glyph-name="uni041B" unicode="&#x41b;" horiz-adv-x="1368" 
d="M133 -8h-96q-19 0 -19 20v178q0 19 19 19h24q45 0 80.5 13t69.5 49.5t56.5 97.5t36 162.5t13.5 238.5v604q0 19 21 19h856q20 0 20 -19v-1354q0 -20 -18 -20h-205q-18 0 -18 20v1143q0 13 -12 13h-394q-12 0 -12 -13v-422q0 -405 -106 -577q-105 -172 -316 -172z" />
    <glyph glyph-name="uni041C" unicode="&#x41c;" horiz-adv-x="1548" 
d="M352 0h-178q-20 0 -20 20v1352q0 21 20 21h182q26 0 35 -21l383 -858h8l377 858q9 21 35 21h180q21 0 21 -21v-1352q0 -20 -21 -20h-178q-20 0 -20 20v852h-9l-295 -655q-12 -27 -38 -27h-119q-27 0 -39 27l-295 655h-8v-852q0 -20 -21 -20z" />
    <glyph glyph-name="uni041D" unicode="&#x41d;" horiz-adv-x="1345" 
d="M375 0h-201q-20 0 -20 20v1352q0 21 20 21h201q20 0 20 -21v-549q0 -12 13 -12h530q12 0 12 12v549q0 21 21 21h200q21 0 21 -21v-1352q0 -20 -21 -20h-200q-21 0 -21 20v562q0 12 -12 12h-530q-13 0 -13 -12v-562q0 -20 -20 -20z" />
    <glyph glyph-name="uni041E" unicode="&#x41e;" horiz-adv-x="1284" 
d="M641 -23q-184 0 -310.5 86t-180.5 250q-37 110 -37 383t37 383q54 164 180.5 250t310.5 86q185 0 312.5 -86t181.5 -250q36 -107 36 -383t-36 -383q-54 -164 -181.5 -250t-312.5 -86zM641 195q195 0 260 182q25 80 25 319q0 240 -25 320q-65 182 -260 182
q-193 0 -258 -182q-25 -80 -25 -320q0 -239 25 -319q65 -182 258 -182z" />
    <glyph glyph-name="uni041F" unicode="&#x41f;" horiz-adv-x="1331" 
d="M377 0h-203q-20 0 -20 20v1354q0 19 20 19h983q21 0 21 -19v-1354q0 -20 -19 -20h-205q-18 0 -18 20v1143q0 13 -12 13h-516q-13 0 -13 -13v-1143q0 -20 -18 -20z" />
    <glyph glyph-name="uni0420" unicode="&#x420;" horiz-adv-x="1224" 
d="M375 0h-201q-20 0 -20 20v1352q0 21 20 21h522q203 0 330 -121q129 -120 129 -311q0 -196 -129 -316q-125 -119 -330 -119h-288q-13 0 -13 -12v-494q0 -20 -20 -20zM408 745h274q106 0 168.5 59t62.5 157q0 97 -63 156t-168 59h-274q-13 0 -13 -13v-405q0 -13 13 -13z
" />
    <glyph glyph-name="uni0421" unicode="&#x421;" horiz-adv-x="1177" 
d="M633 -23q-181 0 -305 87.5t-178 254.5q-37 110 -37 377t37 377q54 167 178 254.5t305 87.5q165 0 287 -78.5t184 -220.5q6 -18 -10 -24l-174 -84q-19 -9 -27 10q-82 180 -260 180q-186 0 -250 -184q-25 -80 -25 -318q0 -237 25 -317q64 -184 250 -184q178 0 260 180
q8 19 27 10l174 -84q16 -6 10 -25q-62 -142 -184 -220.5t-287 -78.5z" />
    <glyph glyph-name="uni0422" unicode="&#x422;" horiz-adv-x="1126" 
d="M664 0h-201q-21 0 -21 20v1143q0 13 -12 13h-364q-21 0 -21 20v176q0 21 21 21h995q20 0 20 -21v-176q0 -20 -20 -20h-365q-12 0 -12 -13v-1143q0 -20 -20 -20z" />
    <glyph glyph-name="uni0423" unicode="&#x423;" horiz-adv-x="1171" 
d="M358 -8h-143q-20 0 -20 20v178q0 19 20 19h92q106 0 152 110l37 87l-453 964q-10 23 10 23h217q20 0 29 -19l311 -690h6l277 690q9 19 29 19h215q17 0 8 -21l-490 -1143q-102 -237 -297 -237z" />
    <glyph glyph-name="uni0424" unicode="&#x424;" horiz-adv-x="1599" 
d="M901 -23h-205q-18 0 -18 21v152q0 12 -12 12q-588 27 -588 565q0 259 149 397t439 150q12 0 12 12v111q0 18 20 18h203q19 0 19 -18v-111q0 -12 12 -12q290 -12 440 -150t150 -397q0 -538 -590 -565q-12 0 -12 -12v-152q0 -21 -19 -21zM666 377q12 0 12 12v660
q0 10 -12 10q-177 -4 -262 -89t-85 -253q0 -325 347 -340zM934 377q346 15 346 340q0 168 -84.5 253t-261.5 89q-14 0 -14 -10v-660q0 -12 14 -12z" />
    <glyph glyph-name="uni0425" unicode="&#x425;" horiz-adv-x="1171" 
d="M283 0h-222q-27 0 -12 27l416 694l-385 645q-15 27 12 27h221q21 0 33 -21l252 -422h4l252 422q12 21 33 21h221q27 0 12 -27l-385 -645l416 -694q15 -27 -12 -27h-224q-21 0 -32 20l-281 474h-4l-283 -474q-11 -20 -32 -20z" />
    <glyph glyph-name="uni0426" unicode="&#x426;" horiz-adv-x="1366" 
d="M1313 -291h-191q-16 0 -16 19v260q0 12 -12 12h-920q-20 0 -20 18v1354q0 21 20 21h203q18 0 18 -21v-1143q0 -12 13 -12h516q12 0 12 12v1143q0 21 18 21h205q19 0 19 -21v-1143q0 -12 12 -12h121q20 0 20 -18v-471q0 -19 -18 -19z" />
    <glyph glyph-name="uni0427" unicode="&#x427;" horiz-adv-x="1251" 
d="M1079 0h-205q-18 0 -18 20v506q0 16 -18 13q-174 -52 -338 -52q-381 0 -381 363v524q0 19 20 19h201q20 0 20 -19v-473q0 -192 205 -192q132 0 266 41q25 6 25 26v598q0 19 18 19h203q21 0 21 -19v-1354q0 -20 -19 -20z" />
    <glyph glyph-name="uni0428" unicode="&#x428;" horiz-adv-x="1941" 
d="M1767 0h-1593q-20 0 -20 18v1354q0 21 20 21h203q18 0 18 -21v-1143q0 -12 13 -12h430q12 0 12 12v1143q0 21 16 21h207q19 0 19 -21v-1143q0 -12 12 -12h430q12 0 12 12v1143q0 21 17 21h204q21 0 21 -21v-1354q0 -18 -21 -18z" />
    <glyph glyph-name="uni0429" unicode="&#x429;" horiz-adv-x="1974" 
d="M1921 -291h-188q-19 0 -19 19v260q0 12 -12 12h-1528q-20 0 -20 18v1354q0 21 20 21h203q18 0 18 -21v-1143q0 -12 13 -12h430q12 0 12 12v1143q0 21 16 21h207q19 0 19 -21v-1143q0 -12 12 -12h430q12 0 12 12v1143q0 21 17 21h204q21 0 21 -21v-1143q0 -12 12 -12h119
q20 0 20 -18v-471q0 -19 -18 -19z" />
    <glyph glyph-name="uni042A" unicode="&#x42a;" horiz-adv-x="1439" 
d="M895 0h-526q-21 0 -21 20v1143q0 13 -12 13h-285q-18 0 -18 18v178q0 21 18 21h518q21 0 21 -21v-493q0 -13 12 -13h293q219 0 345 -117.5t126 -314.5q0 -198 -126 -316t-345 -118zM602 217h279q117 0 180 56t63 161q0 104 -63 159.5t-180 55.5h-279q-12 0 -12 -12v-408
q0 -12 12 -12z" />
    <glyph glyph-name="uni042B" unicode="&#x42b;" horiz-adv-x="1732" 
d="M700 0h-526q-20 0 -20 20v1352q0 21 20 21h201q20 0 20 -21v-493q0 -13 13 -13h292q219 0 345 -117.5t126 -314.5q0 -198 -126 -316t-345 -118zM408 217h278q117 0 180.5 56t63.5 161q0 104 -63.5 159.5t-180.5 55.5h-278q-13 0 -13 -12v-408q0 -12 13 -12zM1559 0h-201
q-21 0 -21 20v1352q0 21 21 21h201q20 0 20 -21v-1352q0 -20 -20 -20z" />
    <glyph glyph-name="uni042C" unicode="&#x42c;" horiz-adv-x="1245" 
d="M700 0h-526q-20 0 -20 20v1352q0 21 20 21h201q20 0 20 -21v-493q0 -13 13 -13h292q219 0 345 -117.5t126 -314.5q0 -198 -126 -316t-345 -118zM408 217h278q116 0 180 59.5t64 165.5q0 207 -244 207h-278q-13 0 -13 -12v-408q0 -12 13 -12z" />
    <glyph glyph-name="uni042D" unicode="&#x42d;" horiz-adv-x="1175" 
d="M543 -23q-160 0 -280 74t-177 205q-9 21 8 29l164 77q20 10 29 -10q82 -162 252 -162q193 0 254 156q33 79 36 238q0 14 -14 14h-399q-19 0 -19 18v177q0 18 19 18h399q14 0 14 14q-3 132 -26 199q-58 178 -264 178q-170 0 -252 -162q-10 -20 -27 -10l-166 78
q-14 8 -8 29q120 278 457 278q182 0 309 -83.5t180 -246.5q41 -125 41 -383q0 -306 -57 -438q-61 -140 -183 -213.5t-290 -73.5z" />
    <glyph glyph-name="uni042E" unicode="&#x42e;" horiz-adv-x="1744" 
d="M1128 -23q-171 0 -291 82.5t-171 237.5q-34 100 -37 289q0 12 -13 12h-208q-13 0 -13 -12v-566q0 -20 -18 -20h-203q-20 0 -20 20v1352q0 21 20 21h203q18 0 18 -21v-545q0 -12 13 -12h208q13 0 13 12q9 180 37 269q49 154 169 236.5t293 82.5t293.5 -82.5t171.5 -236.5
q39 -121 39 -400q0 -278 -39 -399q-51 -155 -172 -237.5t-293 -82.5zM1364 362q27 83 27 334q0 252 -27 332q-53 170 -234 170q-180 0 -233 -170q-27 -80 -27 -332t27 -334q52 -167 233 -167q182 0 234 167z" />
    <glyph glyph-name="uni042F" unicode="&#x42f;" horiz-adv-x="1296" 
d="M164 -8h-76q-20 0 -20 20v178q0 19 20 19h29q56 0 84 21t53 79l72 164q36 79 96 119v8q-134 25 -213.5 126t-79.5 259q0 180 119 293q121 115 321 115h553q21 0 21 -19v-1354q0 -20 -21 -20h-200q-21 0 -21 20v506q0 13 -12 13h-158q-66 0 -104 -23t-66 -88l-92 -221
q-47 -117 -116.5 -166t-188.5 -49zM596 754h293q12 0 12 12v397q0 13 -12 13h-293q-103 0 -164 -54.5t-61 -156.5t61 -156.5t164 -54.5z" />
    <glyph glyph-name="uni0430" unicode="&#x430;" horiz-adv-x="1071" 
d="M436 -23q-147 0 -239.5 79t-92.5 223q0 156 102 234.5t294 78.5h200q13 0 13 12v47q0 88 -49.5 126t-169.5 38q-141 0 -226 -67q-18 -15 -28 4l-76 135q-10 17 4 26q135 97 350 97q222 0 317 -80t95 -264v-646q0 -20 -21 -20h-172q-20 0 -20 20v72h-2q-80 -115 -279 -115
zM494 164q219 0 219 168v76q0 12 -13 12h-163q-213 0 -213 -133q0 -123 170 -123z" />
    <glyph glyph-name="uni0431" unicode="&#x431;" horiz-adv-x="1099" 
d="M565 -23q-241 0 -356 160q-52 74 -69 180.5t-17 307.5q0 248 24 374q28 132 125 222q51 51 158 79q57 17 123 23q39 6 63 8q47 3 56 6q83 12 86 60q3 18 22 18h170q19 0 19 -18q-5 -124 -60 -185t-176 -73l-74 -6q-16 -1 -31 -2.5t-29 -3.5t-19 -3q-51 -3 -109 -22.5
t-88 -50.5q-74 -68 -74 -224h6q74 148 283 148q210 0 308 -122.5t98 -365.5q0 -249 -113.5 -379.5t-325.5 -130.5zM770 485q0 165 -50 231t-157 66q-105 0 -156 -66.5t-51 -230.5q0 -171 50 -238t157 -67t157 68.5t50 236.5z" />
    <glyph glyph-name="uni0432" unicode="&#x432;" horiz-adv-x="1071" 
d="M643 0h-473q-20 0 -20 18v951q0 18 20 18h473q150 0 231.5 -69t81.5 -189q0 -154 -139 -213v-8q71 -24 113.5 -84.5t42.5 -144.5q0 -135 -85.5 -207t-244.5 -72zM389 188h227q129 0 129 115q0 111 -129 111h-227q-10 0 -10 -11v-204q0 -11 10 -11zM389 592h219
q121 0 121 106q0 103 -121 103h-219q-10 0 -10 -10v-191q0 -8 10 -8z" />
    <glyph glyph-name="uni0433" unicode="&#x433;" horiz-adv-x="839" 
d="M360 0h-192q-18 0 -18 18v951q0 18 18 18h635q20 0 20 -18v-164q0 -19 -20 -19h-412q-12 0 -12 -12v-756q0 -18 -19 -18z" />
    <glyph glyph-name="uni0434" unicode="&#x434;" horiz-adv-x="1167" 
d="M223 -233h-178q-16 0 -16 18v397q0 19 18 19h62q26 0 38 26q57 137 76 242q25 125 25 346v154q0 18 20 18h713q18 0 18 -18v-756q0 -12 13 -12h98q18 0 18 -19v-397q0 -18 -16 -18h-176q-18 0 -18 18v203q0 12 -13 12h-653q-12 0 -12 -12v-203q0 -18 -17 -18zM383 201
h375q12 0 12 12v561q0 12 -12 12h-281q-12 0 -12 -12v-80q0 -299 -88 -479q-8 -14 6 -14z" />
    <glyph glyph-name="uni0435" unicode="&#x435;" horiz-adv-x="1067" 
d="M543 -23q-154 0 -262.5 72.5t-149.5 202.5q-35 110 -35 242q0 145 33 243q41 129 148 201t255 72q151 0 257.5 -72.5t148.5 -200.5q33 -98 33 -297q0 -20 -23 -20h-608q-12 0 -12 -12q0 -38 14 -76q52 -150 221 -150q147 0 232 94q16 16 30 5l121 -107q15 -12 2 -29
q-143 -168 -405 -168zM340 592h387q12 0 12 12q0 46 -12 84q-20 60 -71.5 93.5t-120.5 33.5q-151 0 -195 -127q-12 -38 -12 -84q0 -12 12 -12z" />
    <glyph glyph-name="uni0436" unicode="&#x436;" horiz-adv-x="1576" 
d="M180 -8h-92q-20 0 -20 18v158q0 18 20 18h8q45 0 66.5 21.5t46.5 81.5l45 114q41 97 100 111v8q-49 21 -80 109l-34 92q-31 84 -109 84h-18q-21 0 -21 20v150q0 18 21 18h84q89 0 142 -35.5t83 -119.5l51 -133q40 -107 143 -107h46q12 0 12 12v357q0 18 20 18h191
q18 0 18 -18v-357q0 -12 12 -12h46q105 0 145 107l49 133q32 84 84 119.5t141 35.5h84q21 0 21 -18v-150q0 -20 -21 -20h-16q-80 0 -111 -84l-34 -92q-31 -88 -80 -109v-8q59 -14 100 -111l45 -114q25 -60 46.5 -81.5t66.5 -21.5h10q18 0 18 -18v-158q0 -18 -18 -18h-92
q-92 0 -145 39.5t-85 132.5l-55 147q-27 59 -61 78t-82 17h-56q-12 0 -12 -13v-375q0 -18 -18 -18h-191q-20 0 -20 18v375q0 13 -12 13h-54q-49 2 -84.5 -17t-60.5 -78l-55 -147q-32 -93 -84 -132.5t-144 -39.5z" />
    <glyph glyph-name="uni0437" unicode="&#x437;" horiz-adv-x="978" 
d="M489 -23q-254 0 -413 129q-15 12 -2 29l94 131q10 10 29 -2q121 -92 260 -92q202 0 202 123q0 121 -165 121h-129q-19 0 -19 20v135q0 21 19 21h127q151 0 151 121q0 104 -188 104q-121 0 -234 -76q-20 -12 -26 0l-78 129q-13 19 4 29q147 111 371 111q185 0 286 -70.5
t101 -202.5q0 -74 -37 -130.5t-103 -82.5v-8q68 -20 111 -84.5t43 -144.5q0 -140 -112 -225t-292 -85z" />
    <glyph glyph-name="uni0438" unicode="&#x438;" horiz-adv-x="1167" 
d="M367 0h-197q-20 0 -20 18v951q0 18 20 18h190q19 0 19 -18v-617h6l387 623q9 12 25 12h200q21 0 21 -18v-951q0 -18 -21 -18h-190q-19 0 -19 18v629h-6l-389 -631q-10 -16 -26 -16z" />
    <glyph glyph-name="uni0439" unicode="&#x439;" horiz-adv-x="1167" 
d="M367 0h-197q-20 0 -20 18v951q0 18 20 18h190q19 0 19 -18v-617h6l387 623q9 12 25 12h200q21 0 21 -18v-951q0 -18 -21 -18h-190q-19 0 -19 18v629h-6l-389 -631q-10 -16 -26 -16zM584 1126q-238 0 -287 230q-6 27 12 30l103 17q18 3 24 -12q41 -115 148 -115
q105 0 149 115q6 15 25 12l100 -17q18 -3 12 -30q-52 -230 -286 -230z" />
    <glyph glyph-name="uni043A" unicode="&#x43a;" horiz-adv-x="1067" 
d="M360 0h-190q-20 0 -20 18v951q0 18 20 18h190q19 0 19 -18v-357q0 -12 12 -12h60q47 0 85.5 29.5t57.5 77.5l49 133q32 85 87 120t153 35h71q19 0 19 -18v-150q0 -20 -19 -20h-18q-78 0 -109 -84l-28 -78q-38 -103 -86 -123v-8q62 -17 100 -111l45 -114
q25 -60 46.5 -81.5t66.5 -21.5h10q18 0 18 -18v-158q0 -18 -18 -18h-72q-104 0 -159 39t-88 133l-56 147q-27 59 -65.5 78t-94.5 17h-55q-12 0 -12 -13v-375q0 -18 -19 -18z" />
    <glyph glyph-name="uni043B" unicode="&#x43b;" horiz-adv-x="1148" 
d="M129 -8h-78q-18 0 -18 18v158q0 18 18 18h17q184 0 184 332v451q0 18 18 18h711q18 0 18 -18v-951q0 -18 -18 -18h-190q-21 0 -21 18v756q0 12 -12 12h-275q-12 0 -12 -12v-274q0 -272 -83.5 -390t-258.5 -118z" />
    <glyph glyph-name="uni043C" unicode="&#x43c;" horiz-adv-x="1327" 
d="M350 0h-180q-20 0 -20 18v951q0 18 20 18h201q14 0 22 -14l269 -559h6l266 559q8 14 24 14h201q19 0 19 -18v-951q0 -18 -19 -18h-180q-21 0 -21 18v549h-6l-204 -420q-9 -18 -27 -18h-115q-16 0 -22 18l-209 420h-6v-549q0 -18 -19 -18z" />
    <glyph glyph-name="uni043D" unicode="&#x43d;" horiz-adv-x="1134" 
d="M360 0h-190q-20 0 -20 18v951q0 18 20 18h190q19 0 19 -18v-357q0 -12 12 -12h352q13 0 13 12v357q0 18 20 18h189q20 0 20 -18v-951q0 -18 -20 -18h-189q-20 0 -20 18v375q0 13 -13 13h-352q-12 0 -12 -13v-375q0 -18 -19 -18z" />
    <glyph glyph-name="uni043E" unicode="&#x43e;" horiz-adv-x="1071" 
d="M537 -23q-152 0 -259.5 72t-148.5 201q-33 98 -33 244q0 145 33 243q41 129 148.5 201t259.5 72q149 0 256.5 -72t148.5 -201q33 -98 33 -243q0 -146 -33 -244q-41 -129 -148.5 -201t-256.5 -72zM537 182q137 0 184 129q20 61 20 183q0 121 -20 182q-41 129 -184 129
q-147 0 -187 -129q-20 -61 -20 -182q0 -122 20 -183q46 -129 187 -129z" />
    <glyph glyph-name="uni043F" unicode="&#x43f;" horiz-adv-x="1128" 
d="M360 0h-190q-20 0 -20 18v951q0 18 20 18h791q18 0 18 -18v-951q0 -18 -18 -18h-191q-20 0 -20 18v756q0 12 -13 12h-346q-12 0 -12 -12v-756q0 -18 -19 -18z" />
    <glyph glyph-name="uni0440" unicode="&#x440;" horiz-adv-x="1116" 
d="M358 -369h-188q-20 0 -20 21v1315q0 20 20 20h188q21 0 21 -20v-74h2q83 117 262 117q265 0 342 -238q35 -110 35 -278q0 -169 -35 -279q-77 -238 -342 -238q-179 0 -262 117h-2v-442q0 -21 -21 -21zM584 182q141 0 182 127q20 61 20 185q0 123 -20 184q-41 127 -182 127
q-144 0 -185 -127q-20 -61 -20 -184q0 -124 20 -185q41 -127 185 -127z" />
    <glyph glyph-name="uni0441" unicode="&#x441;" horiz-adv-x="972" 
d="M535 -23q-150 0 -257.5 71.5t-150.5 201.5q-31 95 -31 244q0 148 31 243q43 130 150.5 201.5t257.5 71.5q215 0 342 -154q13 -16 -3 -29l-129 -112q-15 -12 -28 4q-77 86 -182 86q-141 0 -185 -129q-20 -59 -20 -182q0 -126 20 -185q44 -127 185 -127q105 0 182 86
q12 15 28 2l129 -112q13 -10 3 -29q-128 -152 -342 -152z" />
    <glyph glyph-name="uni0442" unicode="&#x442;" horiz-adv-x="882" 
d="M532 0h-188q-20 0 -20 18v756q0 12 -13 12h-266q-20 0 -20 19v164q0 18 20 18h795q18 0 18 -18v-164q0 -19 -18 -19h-275q-12 0 -12 -12v-756q0 -18 -21 -18z" />
    <glyph glyph-name="uni0443" unicode="&#x443;" horiz-adv-x="993" 
d="M254 -369h-64q-20 0 -20 21v164q0 20 20 20h37q56 0 90 27.5t58 89.5l28 84l-360 930q-6 20 16 20h203q19 0 25 -20l223 -645h4l213 645q6 20 25 20h194q23 0 17 -20l-377 -1028q-65 -177 -137 -240q-71 -68 -195 -68z" />
    <glyph glyph-name="uni0444" unicode="&#x444;" horiz-adv-x="1433" 
d="M813 -369h-192q-19 0 -19 19v327q0 13 -12 13q-245 12 -375.5 140.5t-130.5 369.5q0 473 506 497q12 0 12 13v364q0 19 19 19h192q18 0 18 -19v-364q0 -13 13 -13q506 -24 506 -497q0 -241 -130.5 -369.5t-375.5 -140.5q-13 0 -13 -13v-327q0 -19 -18 -19zM590 186
q12 0 12 13v592q0 12 -12 12q-143 -6 -209 -79t-66 -226t68.5 -228.5t206.5 -83.5zM844 186q138 8 206 83.5t68 228.5t-65.5 226t-208.5 79q-13 0 -13 -12v-592q0 -13 13 -13z" />
    <glyph glyph-name="uni0445" unicode="&#x445;" horiz-adv-x="1013" 
d="M279 0h-203q-28 0 -17 20l334 492l-309 455q-11 20 16 20h205q24 0 35 -20l178 -267h2l180 267q14 20 33 20h205q27 0 16 -20l-309 -455l334 -492q11 -20 -16 -20h-205q-19 0 -33 20l-205 302h-2l-205 -302q-14 -20 -34 -20z" />
    <glyph glyph-name="uni0446" unicode="&#x446;" horiz-adv-x="1146" 
d="M1092 -233h-177q-18 0 -18 18v203q0 12 -12 12h-715q-20 0 -20 18v951q0 18 20 18h190q19 0 19 -18v-756q0 -12 12 -12h346q13 0 13 12v756q0 18 20 18h191q18 0 18 -18v-756q0 -12 12 -12h99q18 0 18 -19v-397q0 -18 -16 -18z" />
    <glyph glyph-name="uni0447" unicode="&#x447;" horiz-adv-x="1069" 
d="M901 0h-190q-21 0 -21 18v336q0 17 -16 11q-144 -39 -252 -39q-313 0 -313 297v346q0 18 20 18h190q19 0 19 -18v-303q0 -140 147 -140q95 0 193 33q12 6 12 16v394q0 18 21 18h190q19 0 19 -18v-951q0 -18 -19 -18z" />
    <glyph glyph-name="uni0448" unicode="&#x448;" horiz-adv-x="1611" 
d="M1444 0h-1274q-20 0 -20 18v951q0 18 20 18h190q19 0 19 -18v-756q0 -12 12 -12h289q12 0 12 12v756q0 18 21 18h188q21 0 21 -18v-756q0 -12 12 -12h287q12 0 12 12v756q0 18 20 18h191q18 0 18 -18v-951q0 -18 -18 -18z" />
    <glyph glyph-name="uni0449" unicode="&#x449;" horiz-adv-x="1632" 
d="M1575 -233h-176q-17 0 -17 18v203q0 12 -12 12h-1200q-20 0 -20 18v951q0 18 20 18h190q19 0 19 -18v-756q0 -12 12 -12h289q12 0 12 12v756q0 18 21 18h188q21 0 21 -18v-756q0 -12 12 -12h287q12 0 12 12v756q0 18 20 18h191q18 0 18 -18v-756q0 -12 13 -12h98
q20 0 20 -19v-397q0 -18 -18 -18z" />
    <glyph glyph-name="uni044A" unicode="&#x44a;" horiz-adv-x="1159" 
d="M768 0h-485q-19 0 -19 18v756q0 12 -12 12h-209q-18 0 -18 19v164q0 18 18 18h430q21 0 21 -18v-322q0 -12 12 -12h250q148 0 238.5 -88t90.5 -230q0 -141 -87.5 -229t-229.5 -88zM506 197h217q133 0 133 122q0 121 -133 121h-217q-12 0 -12 -12v-219q0 -12 12 -12z" />
    <glyph glyph-name="uni044B" unicode="&#x44b;" horiz-adv-x="1464" 
d="M653 0h-483q-20 0 -20 18v951q0 18 20 18h190q19 0 19 -18v-322q0 -12 12 -12h250q149 0 239.5 -88t90.5 -230q0 -141 -88 -229t-230 -88zM391 197h217q133 0 133 122q0 121 -133 121h-217q-12 0 -12 -12v-219q0 -12 12 -12zM1294 0h-188q-21 0 -21 20v947q0 20 21 20
h188q21 0 21 -20v-947q0 -20 -21 -20z" />
    <glyph glyph-name="uni044C" unicode="&#x44c;" horiz-adv-x="1044" 
d="M643 0h-473q-20 0 -20 18v951q0 18 20 18h190q19 0 19 -18v-322q0 -12 12 -12h250q149 0 239.5 -88t90.5 -230t-90 -229.5t-238 -87.5zM391 197h217q133 0 133 122q0 121 -133 121h-217q-12 0 -12 -12v-219q0 -12 12 -12z" />
    <glyph glyph-name="uni044D" unicode="&#x44d;" horiz-adv-x="995" 
d="M469 -23q-263 0 -381 183q-10 16 8 28l125 101q15 12 29 -8q42 -56 89.5 -80.5t119.5 -24.5q99 0 154.5 58.5t60.5 162.5q0 13 -12 13h-291q-19 0 -19 18v147q0 21 19 21h291q12 0 12 12q-2 34 -23 94q-43 113 -192 113q-135 0 -201 -100q-15 -21 -31 -8l-121 94
q-16 10 -6 26q118 183 369 183q238 0 358 -170q82 -116 82 -346q0 -211 -63 -316q-118 -201 -377 -201z" />
    <glyph glyph-name="uni044E" unicode="&#x44e;" horiz-adv-x="1492" 
d="M975 -23q-232 0 -346 179q-62 95 -74 237q0 13 -12 13h-152q-12 0 -12 -13v-375q0 -18 -19 -18h-190q-20 0 -20 18v951q0 18 20 18h190q19 0 19 -18v-357q0 -12 12 -12h154q12 0 12 12q15 110 53 187q108 211 365 211q147 0 250 -71.5t141 -201.5q31 -109 31 -243
q0 -138 -31 -246q-38 -130 -141 -200.5t-250 -70.5zM973 182q127 0 168 127q22 77 22 185q0 116 -20 180q-40 131 -170 131q-128 0 -168 -131q-21 -68 -21 -180q0 -104 23 -185q41 -127 166 -127z" />
    <glyph glyph-name="uni044F" unicode="&#x44f;" horiz-adv-x="1079" 
d="M178 -8h-69q-19 0 -19 18v158q0 18 19 18h20q39 0 59 16t45 60l33 62q39 74 66 84v6q-93 24 -152 97.5t-59 172.5q0 146 93.5 224.5t264.5 78.5h432q19 0 19 -18v-951q0 -18 -19 -18h-190q-21 0 -21 18v324q0 12 -12 12h-63q-53 0 -84 -19t-56 -71l-61 -123
q-44 -89 -92 -118q-51 -31 -154 -31zM487 543h203q10 0 10 10v229q0 13 -10 13h-203q-139 0 -139 -121q0 -62 36.5 -96.5t102.5 -34.5z" />
    <glyph glyph-name="uni0450" unicode="&#x450;" horiz-adv-x="1067" 
d="M543 -23q-154 0 -262.5 72.5t-149.5 202.5q-35 110 -35 242q0 145 33 243q41 129 148 201t255 72q151 0 257.5 -72.5t148.5 -200.5q33 -98 33 -297q0 -20 -23 -20h-608q-12 0 -12 -12q0 -38 14 -76q52 -150 221 -150q147 0 232 94q16 16 30 5l121 -107q15 -12 2 -29
q-143 -168 -405 -168zM340 592h387q12 0 12 12q0 46 -12 84q-20 60 -71.5 93.5t-120.5 33.5q-151 0 -195 -127q-12 -38 -12 -84q0 -12 12 -12zM639 1137h-137q-24 0 -41 20l-195 256q-6 7 -3 14t13 7h187q25 0 37 -21l151 -256q9 -20 -12 -20z" />
    <glyph glyph-name="uni0451" unicode="&#x451;" horiz-adv-x="1067" 
d="M543 -23q-154 0 -262.5 72.5t-149.5 202.5q-35 110 -35 242q0 145 33 243q41 129 148 201t255 72q151 0 257.5 -72.5t148.5 -200.5q33 -98 33 -297q0 -20 -23 -20h-608q-12 0 -12 -12q0 -38 14 -76q52 -150 221 -150q147 0 232 94q16 16 30 5l121 -107q15 -12 2 -29
q-143 -168 -405 -168zM340 592h387q12 0 12 12q0 46 -12 84q-20 60 -71.5 93.5t-120.5 33.5q-151 0 -195 -127q-12 -38 -12 -84q0 -12 12 -12zM817 1174h-158q-20 0 -20 20v178q0 21 20 21h158q21 0 21 -21v-178q0 -20 -21 -20zM416 1174h-158q-20 0 -20 20v178q0 21 20 21
h158q20 0 20 -21v-178q0 -20 -20 -20z" />
    <glyph glyph-name="uni0452" unicode="&#x452;" horiz-adv-x="1122" 
d="M651 -369h-57q-21 0 -21 21v164q0 20 21 20h45q63 0 89 26t26 91v635q0 217 -187 217q-87 0 -137.5 -55.5t-50.5 -151.5v-578q0 -20 -21 -20h-188q-20 0 -20 20v1059q0 13 -13 13h-135q-20 0 -20 20v139q0 21 20 21h135q13 0 13 12v88q0 21 20 21h188q21 0 21 -21v-88
q0 -12 12 -12h211q21 0 21 -21v-139q0 -20 -21 -20h-211q-12 0 -12 -13v-207h2q79 138 266 138q163 0 249.5 -97.5t86.5 -275.5v-680q0 -326 -332 -326z" />
    <glyph glyph-name="uni0453" unicode="&#x453;" horiz-adv-x="839" 
d="M360 0h-192q-18 0 -18 18v951q0 18 18 18h635q20 0 20 -18v-164q0 -19 -20 -19h-412q-12 0 -12 -12v-756q0 -18 -19 -18zM483 1137h-139q-21 0 -12 20l153 256q12 21 37 21h187q10 0 13 -7t-3 -14l-195 -256q-17 -20 -41 -20z" />
    <glyph glyph-name="uni0454" unicode="&#x454;" horiz-adv-x="995" 
d="M537 -23q-259 0 -377 201q-64 107 -64 316q0 230 82 346q120 170 359 170q250 0 368 -183q10 -16 -6 -26l-121 -94q-15 -12 -30 8q-66 100 -201 100q-150 0 -193 -113q-19 -57 -22 -94q0 -12 12 -12h291q18 0 18 -21v-147q0 -18 -18 -18h-291q-12 0 -12 -13
q3 -62 30 -121q51 -100 185 -100q72 0 119.5 24.5t89.5 80.5q14 19 28 8l125 -101q18 -12 9 -28q-118 -183 -381 -183z" />
    <glyph glyph-name="uni0455" unicode="&#x455;" horiz-adv-x="1019" 
d="M528 -23q-254 0 -424 156q-14 15 0 29l117 123q15 15 29 0q56 -50 135.5 -81.5t153.5 -31.5q87 0 134.5 31t47.5 86q0 49 -37 75t-127 33l-106 11q-304 30 -304 290q0 147 100.5 229.5t282.5 82.5q217 0 371 -121q17 -13 4 -29l-100 -121q-12 -14 -29 -4q-116 82 -258 82
q-70 0 -109.5 -28.5t-39.5 -73.5q0 -46 36.5 -72t124.5 -33l107 -10q150 -13 227.5 -88.5t77.5 -200.5q0 -154 -109 -244t-305 -90z" />
    <glyph glyph-name="uni0456" unicode="&#x456;" horiz-adv-x="528" 
d="M358 0h-188q-20 0 -20 20v947q0 20 20 20h188q21 0 21 -20v-947q0 -20 -21 -20zM358 1174h-188q-20 0 -20 20v178q0 21 20 21h188q21 0 21 -21v-178q0 -20 -21 -20z" />
    <glyph glyph-name="uni0457" unicode="&#x457;" horiz-adv-x="528" 
d="M545 1174h-158q-20 0 -20 20v178q0 21 20 21h158q20 0 20 -21v-178q0 -20 -20 -20zM143 1174h-157q-21 0 -21 20v178q0 21 21 21h157q21 0 21 -21v-178q0 -20 -21 -20zM358 0h-188q-20 0 -20 20v947q0 20 20 20h188q21 0 21 -20v-947q0 -20 -21 -20z" />
    <glyph glyph-name="uni0458" unicode="&#x458;" horiz-adv-x="528" 
d="M47 -369h-57q-21 0 -21 21v164q0 20 21 20h45q63 0 89 26t26 91v1014q0 20 20 20h188q21 0 21 -20v-1010q0 -326 -332 -326zM358 1174h-188q-20 0 -20 20v178q0 21 20 21h188q21 0 21 -21v-178q0 -20 -21 -20z" />
    <glyph glyph-name="uni0459" unicode="&#x459;" horiz-adv-x="1665" 
d="M123 -8h-72q-18 0 -18 18v158q0 18 18 18h17q184 0 184 332v451q0 18 18 18h711q18 0 18 -18v-322q0 -12 13 -12h250q148 0 238.5 -88t90.5 -230q0 -141 -87.5 -229t-229.5 -88h-483q-21 0 -21 18v756q0 12 -12 12h-275q-12 0 -12 -12v-274q0 -272 -85 -390t-263 -118z
M1012 197h217q133 0 133 122q0 121 -133 121h-217q-13 0 -13 -12v-219q0 -12 13 -12z" />
    <glyph glyph-name="uni045A" unicode="&#x45a;" horiz-adv-x="1650" 
d="M360 0h-190q-20 0 -20 18v951q0 18 20 18h190q19 0 19 -18v-330q0 -12 12 -12h352q13 0 13 12v330q0 18 20 18h189q20 0 20 -18v-330q0 -12 12 -12h250q149 0 239.5 -86.5t90.5 -227.5t-87 -227t-230 -86h-484q-20 0 -20 18v402q0 12 -13 12h-352q-12 0 -12 -12v-402
q0 -18 -19 -18zM997 197h217q134 0 134 118q0 117 -134 117h-217q-12 0 -12 -12v-211q0 -12 12 -12z" />
    <glyph glyph-name="uni045B" unicode="&#x45b;" horiz-adv-x="1122" 
d="M358 0h-188q-20 0 -20 20v1059q0 13 -13 13h-135q-20 0 -20 20v139q0 21 20 21h135q13 0 13 12v88q0 21 20 21h188q21 0 21 -21v-88q0 -12 12 -12h211q21 0 21 -21v-139q0 -20 -21 -20h-211q-12 0 -12 -13v-207h2q79 138 266 138q163 0 249.5 -97.5t86.5 -275.5v-617
q0 -20 -20 -20h-189q-20 0 -20 20v568q0 217 -187 217q-87 0 -137.5 -55.5t-50.5 -151.5v-578q0 -20 -21 -20z" />
    <glyph glyph-name="uni045C" unicode="&#x45c;" horiz-adv-x="1067" 
d="M360 0h-190q-20 0 -20 18v951q0 18 20 18h190q19 0 19 -18v-357q0 -12 12 -12h60q47 0 85.5 29.5t57.5 77.5l49 133q32 85 87 120t153 35h71q19 0 19 -18v-150q0 -20 -19 -20h-18q-78 0 -109 -84l-28 -78q-38 -103 -86 -123v-8q62 -17 100 -111l45 -114
q25 -60 46.5 -81.5t66.5 -21.5h10q18 0 18 -18v-158q0 -18 -18 -18h-72q-104 0 -159 39t-88 133l-56 147q-27 59 -65.5 78t-94.5 17h-55q-12 0 -12 -13v-375q0 -18 -19 -18zM571 1137h-139q-21 0 -12 20l153 256q12 21 37 21h187q10 0 13 -7t-3 -14l-195 -256
q-17 -20 -41 -20z" />
    <glyph glyph-name="uni045D" unicode="&#x45d;" horiz-adv-x="1167" 
d="M367 0h-197q-20 0 -20 18v951q0 18 20 18h190q19 0 19 -18v-617h6l387 623q9 12 25 12h200q21 0 21 -18v-951q0 -18 -21 -18h-190q-19 0 -19 18v629h-6l-389 -631q-10 -16 -26 -16zM682 1137h-137q-24 0 -41 20l-195 256q-6 7 -3 14t13 7h187q25 0 37 -21l151 -256
q9 -20 -12 -20z" />
    <glyph glyph-name="uni045E" unicode="&#x45e;" horiz-adv-x="993" 
d="M254 -369h-64q-20 0 -20 21v164q0 20 20 20h37q56 0 90 27.5t58 89.5l28 84l-360 930q-6 20 16 20h203q19 0 25 -20l223 -645h4l213 645q6 20 25 20h194q23 0 17 -20l-377 -1028q-65 -177 -137 -240q-71 -68 -195 -68zM510 1126q-238 0 -287 230q-6 27 13 30l102 17
q18 3 24 -12q41 -115 148 -115q105 0 149 115q6 15 25 12l100 -17q19 -3 13 -30q-52 -230 -287 -230z" />
    <glyph glyph-name="uni045F" unicode="&#x45f;" horiz-adv-x="1128" 
d="M651 -233h-176q-16 0 -16 18v203q0 12 -13 12h-276q-20 0 -20 18v951q0 18 20 18h190q19 0 19 -18v-756q0 -12 12 -12h346q13 0 13 12v756q0 18 20 18h191q18 0 18 -18v-951q0 -18 -18 -18h-279q-12 0 -12 -12v-203q0 -18 -19 -18z" />
    <glyph glyph-name="uni0490" unicode="&#x490;" horiz-adv-x="1024" 
d="M375 0h-201q-20 0 -20 20v1352q0 21 20 21h588q16 0 16 14v227q0 19 19 19h178q18 0 18 -19v-440q0 -18 -20 -18h-565q-13 0 -13 -13v-1143q0 -20 -20 -20z" />
    <glyph glyph-name="uni0491" unicode="&#x491;" horiz-adv-x="839" 
d="M358 0h-190q-18 0 -18 18v951q0 18 18 18h438q12 0 12 12v172q0 21 19 21h168q18 0 18 -21v-364q0 -21 -20 -21h-412q-12 0 -12 -12v-756q0 -18 -21 -18z" />
    <glyph glyph-name="Wgrave" unicode="&#x1e80;" horiz-adv-x="1693" 
d="M1300 0h-155q-19 0 -25 20l-266 953h-4l-268 -953q-6 -20 -25 -20h-154q-18 0 -24 20l-342 1352q-3 21 16 21h193q21 0 24 -21l222 -938h4l260 938q6 21 24 21h144q18 0 24 -21l266 -938h5l215 938q3 21 24 21h191q19 0 16 -21l-340 -1352q-3 -20 -25 -20zM918 1559h-148
q-21 0 -37 16l-237 223q-8 8 -5 14.5t13 6.5h201q23 0 38 -21l183 -219q6 -7 3 -13.5t-11 -6.5z" />
    <glyph glyph-name="wgrave" unicode="&#x1e81;" horiz-adv-x="1542" 
d="M1163 0h-168q-18 0 -24 20l-191 631h-4l-192 -631q-6 -20 -25 -20h-168q-18 0 -24 20l-312 947q-6 20 15 20h196q21 0 27 -20l190 -652h4l189 652q6 20 26 20h148q21 0 27 -20l200 -652h4l181 652q6 20 26 20h197q20 0 14 -20l-311 -947q-6 -20 -25 -20zM846 1137h-137
q-24 0 -41 20l-195 256q-6 7 -3 14t13 7h187q25 0 37 -21l151 -256q9 -20 -12 -20z" />
    <glyph glyph-name="Wacute" unicode="&#x1e82;" horiz-adv-x="1693" 
d="M936 1559h-145q-8 0 -11.5 6.5t2.5 13.5l181 219q15 21 38 21h201q11 0 14 -6.5t-4 -14.5l-239 -223q-16 -16 -37 -16zM1300 0h-155q-19 0 -25 20l-266 953h-4l-268 -953q-6 -20 -25 -20h-154q-18 0 -24 20l-342 1352q-3 21 16 21h193q21 0 24 -21l222 -938h4l260 938
q6 21 24 21h144q18 0 24 -21l266 -938h5l215 938q3 21 24 21h191q19 0 16 -21l-340 -1352q-3 -20 -25 -20z" />
    <glyph glyph-name="wacute" unicode="&#x1e83;" horiz-adv-x="1542" 
d="M1163 0h-168q-18 0 -24 20l-191 631h-4l-192 -631q-6 -20 -25 -20h-168q-18 0 -24 20l-312 947q-6 20 15 20h196q21 0 27 -20l190 -652h4l189 652q6 20 26 20h148q21 0 27 -20l200 -652h4l181 652q6 20 26 20h197q20 0 14 -20l-311 -947q-6 -20 -25 -20zM854 1137h-139
q-22 0 -13 20l154 256q12 21 37 21h186q10 0 13.5 -7t-2.5 -14l-195 -256q-17 -20 -41 -20z" />
    <glyph glyph-name="Wdieresis" unicode="&#x1e84;" horiz-adv-x="1693" 
d="M1300 0h-155q-19 0 -25 20l-266 953h-4l-268 -953q-6 -20 -25 -20h-154q-18 0 -24 20l-342 1352q-3 21 16 21h193q21 0 24 -21l222 -938h4l260 938q6 21 24 21h144q18 0 24 -21l266 -938h5l215 938q3 21 24 21h191q19 0 16 -21l-340 -1352q-3 -20 -25 -20zM1128 1575
h-149q-21 0 -21 20v179q0 20 21 20h149q21 0 21 -20v-179q0 -20 -21 -20zM719 1575h-150q-20 0 -20 20v179q0 20 20 20h150q20 0 20 -20v-179q0 -20 -20 -20z" />
    <glyph glyph-name="wdieresis" unicode="&#x1e85;" horiz-adv-x="1542" 
d="M1163 0h-168q-18 0 -24 20l-191 631h-4l-192 -631q-6 -20 -25 -20h-168q-18 0 -24 20l-312 947q-6 20 15 20h196q21 0 27 -20l190 -652h4l189 652q6 20 26 20h148q21 0 27 -20l200 -652h4l181 652q6 20 26 20h197q20 0 14 -20l-311 -947q-6 -20 -25 -20zM1055 1174h-158
q-20 0 -20 20v178q0 21 20 21h158q20 0 20 -21v-178q0 -20 -20 -20zM653 1174h-157q-21 0 -21 20v178q0 21 21 21h157q21 0 21 -21v-178q0 -20 -21 -20z" />
    <glyph glyph-name="Ygrave" unicode="&#x1ef2;" horiz-adv-x="1097" 
d="M657 0h-200q-21 0 -21 20v549l-403 803q-9 21 16 21h207q20 0 29 -21l272 -541h6l275 541q9 21 28 21h199q25 0 16 -21l-403 -803v-549q0 -20 -21 -20zM643 1559h-147q-21 0 -37 16l-238 223q-8 8 -5 14.5t13 6.5h201q24 0 39 -21l182 -219q6 -7 3 -13.5t-11 -6.5z" />
    <glyph glyph-name="ygrave" unicode="&#x1ef3;" horiz-adv-x="993" 
d="M254 -369h-64q-20 0 -20 21v164q0 20 20 20h37q57 0 91 27t57 90l28 84l-360 930q-6 20 16 20h203q19 0 25 -20l223 -645h4l213 645q6 20 25 20h194q23 0 17 -20l-377 -1028q-65 -177 -137 -240q-71 -68 -195 -68zM606 1137h-137q-24 0 -41 20l-195 256q-6 7 -2.5 14
t13.5 7h186q25 0 37 -21l151 -256q9 -20 -12 -20z" />
    <glyph glyph-name="uni2010" unicode="&#x2010;" horiz-adv-x="788" 
d="M676 442h-563q-21 0 -21 21v162q0 20 21 20h563q20 0 20 -20v-162q0 -21 -20 -21z" />
    <glyph glyph-name="endash" unicode="&#x2013;" horiz-adv-x="1062" 
d="M1001 449h-940q-20 0 -20 20v149q0 21 20 21h940q21 0 21 -21v-149q0 -20 -21 -20z" />
    <glyph glyph-name="emdash" unicode="&#x2014;" horiz-adv-x="1775" 
d="M1714 449h-1653q-20 0 -20 20v149q0 21 20 21h1653q21 0 21 -21v-149q0 -20 -21 -20z" />
    <glyph glyph-name="quoteleft" unicode="&#x2018;" horiz-adv-x="456" 
d="M311 999h-166q-20 0 -20 21v192q0 27 16 43l142 127q12 15 28 15q21 0 21 -21v-356q0 -21 -21 -21z" />
    <glyph glyph-name="quoteright" unicode="&#x2019;" horiz-adv-x="456" 
d="M145 995q-20 0 -20 21v356q0 21 20 21h166q21 0 21 -21v-192q0 -26 -17 -43l-139 -127q-15 -15 -31 -15z" />
    <glyph glyph-name="quotesinglbase" unicode="&#x201a;" horiz-adv-x="456" 
d="M145 -184q-20 0 -20 20v357q0 20 20 20h166q21 0 21 -20v-193q0 -26 -17 -43l-139 -127q-14 -14 -31 -14z" />
    <glyph glyph-name="quotedblleft" unicode="&#x201c;" horiz-adv-x="811" 
d="M666 999h-166q-21 0 -21 21v192q0 26 17 43l139 127q15 15 31 15q20 0 20 -21v-356q0 -21 -20 -21zM311 999h-166q-20 0 -20 21v192q0 27 16 43l142 127q12 15 28 15q21 0 21 -21v-356q0 -21 -21 -21z" />
    <glyph glyph-name="quotedblright" unicode="&#x201d;" horiz-adv-x="811" 
d="M500 995q-21 0 -21 21v356q0 21 21 21h166q20 0 20 -21v-192q0 -27 -16 -43l-142 -127q-12 -15 -28 -15zM145 995q-20 0 -20 21v356q0 21 20 21h166q21 0 21 -21v-192q0 -26 -17 -43l-139 -127q-15 -15 -31 -15z" />
    <glyph glyph-name="quotedblbase" unicode="&#x201e;" horiz-adv-x="811" 
d="M500 -184q-21 0 -21 20v357q0 20 21 20h166q20 0 20 -20v-193q0 -27 -16 -43l-142 -127q-11 -14 -28 -14zM145 -184q-20 0 -20 20v357q0 20 20 20h166q21 0 21 -20v-193q0 -26 -17 -43l-139 -127q-14 -14 -31 -14z" />
    <glyph glyph-name="dagger" unicode="&#x2020;" horiz-adv-x="1095" 
d="M637 -369h-178q-21 0 -21 21v1065q0 12 -12 12h-295q-20 0 -20 21v153q0 21 20 21h295q12 0 12 12v436q0 21 21 21h178q20 0 20 -21v-436q0 -12 13 -12h295q20 0 20 -21v-153q0 -21 -20 -21h-295q-13 0 -13 -12v-1065q0 -21 -20 -21z" />
    <glyph glyph-name="daggerdbl" unicode="&#x2021;" horiz-adv-x="1095" 
d="M637 -369h-178q-21 0 -21 21v375q0 12 -12 12h-295q-20 0 -20 20v154q0 20 20 20h295q12 0 12 13v532q0 13 -12 13h-295q-20 0 -20 20v154q0 20 20 20h295q12 0 12 12v375q0 21 21 21h178q20 0 20 -21v-375q0 -12 13 -12h295q20 0 20 -20v-154q0 -20 -20 -20h-295
q-13 0 -13 -13v-532q0 -13 13 -13h295q20 0 20 -20v-154q0 -20 -20 -20h-295q-13 0 -13 -12v-375q0 -21 -20 -21z" />
    <glyph glyph-name="bullet" unicode="&#x2022;" horiz-adv-x="937" 
d="M674 426q-80 -80 -205 -80t-205 80t-80 205t80 205q79 79 205 79t205 -79q80 -80 80 -205t-80 -205z" />
    <glyph glyph-name="ellipsis" unicode="&#x2026;" horiz-adv-x="1554" 
d="M1397 0h-205q-21 0 -21 20v209q0 21 21 21h205q20 0 20 -21v-209q0 -20 -20 -20zM879 0h-205q-21 0 -21 20v209q0 21 21 21h205q20 0 20 -21v-209q0 -20 -20 -20zM360 0h-204q-21 0 -21 20v209q0 21 21 21h204q21 0 21 -21v-209q0 -20 -21 -20z" />
    <glyph glyph-name="perthousand" unicode="&#x2030;" horiz-adv-x="2230" 
d="M455 -23h-136q-22 0 -10 21l809 1397q11 20 33 20h133q21 0 10 -20l-809 -1397q-12 -21 -30 -21zM143 840q-16 53 -16 202q0 150 16 203q25 74 92.5 119t157.5 45t157.5 -45t92.5 -119q16 -53 16 -203q0 -149 -16 -202q-25 -74 -92.5 -119t-157.5 -45t-157.5 45
t-92.5 119zM393 823q70 0 88 60q8 19 8 159q0 141 -8 162q-18 58 -88 58q-69 0 -90 -58q-8 -21 -8 -162q0 -140 8 -159q22 -60 90 -60zM1837 -18q-90 0 -157.5 44.5t-92.5 118.5q-16 53 -16 203t16 203q25 74 92.5 119t157.5 45q91 0 159 -45t91 -119q16 -53 16 -203
t-16 -203q-23 -74 -90.5 -118.5t-159.5 -44.5zM1208 -18q-91 0 -159 44.5t-93 118.5q-16 62 -16 203t16 203q25 74 93 119t159 45q90 0 157.5 -45t92.5 -119q17 -56 17 -203t-17 -203q-25 -74 -92.5 -118.5t-157.5 -44.5zM1837 129q69 0 90 59q8 19 8 160t-8 162
q-20 57 -90 57t-88 -57q-8 -21 -8 -162t8 -160q18 -59 88 -59zM1208 129q70 0 88 59q9 21 9 160q0 138 -9 162q-18 57 -88 57t-90 -57q-8 -21 -8 -162t8 -160q21 -59 90 -59z" />
    <glyph glyph-name="guilsinglleft" unicode="&#x2039;" horiz-adv-x="645" 
d="M504 106l-418 420q-14 14 0 29l418 420q6 6 13 3t7 -11v-197q0 -23 -20 -43l-178 -178q-8 -9 0 -17l178 -178q20 -20 20 -43v-196q0 -8 -7 -11.5t-13 2.5z" />
    <glyph glyph-name="guilsinglright" unicode="&#x203a;" horiz-adv-x="645" 
d="M573 526l-417 -420q-6 -6 -13.5 -2.5t-7.5 11.5v196q0 21 19 43l180 178q8 8 0 17l-180 178q-19 22 -19 43v197q0 8 7.5 11t13.5 -3l417 -420q15 -15 0 -29z" />
    <glyph glyph-name="interrobang" unicode="&#x203d;" horiz-adv-x="950" 
d="M369 389h-2q-21 0 -21 21l-47 579q0 21 20 21h201q21 0 21 -21l-6 -211h6l49 78q40 61 52.5 103t12.5 104q0 71 -45 114.5t-129 43.5q-141 0 -182 -109q-6 -19 -23 -16l-184 24q-22 3 -16 25q80 270 413 270q178 0 285 -92.5t107 -251.5q0 -128 -95 -264l-165 -238
q-41 -59 -41 -129v-30q0 -21 -21 -21h-190zM340 20v209q0 21 20 21h205q21 0 21 -21v-209q0 -20 -21 -20h-205q-20 0 -20 20z" />
    <glyph glyph-name="fraction" unicode="&#x2044;" horiz-adv-x="325" 
d="M-172 -23h-135q-22 0 -10 21l809 1397q11 20 32 20h133q10 0 14 -6.5t-1 -13.5l-809 -1397q-12 -21 -33 -21z" />
    <glyph glyph-name="zero.superior" unicode="&#x2070;" horiz-adv-x="714" 
d="M356 864q-209 0 -268 176q-18 58 -18 256t18 256q59 177 268 177q212 0 271 -177q18 -59 18 -256q0 -198 -18 -256q-59 -176 -271 -176zM356 1022q77 0 95 63q8 21 8 211t-8 211q-18 64 -95 64q-74 0 -92 -64q-8 -21 -8 -211t8 -211q18 -63 92 -63z" />
    <glyph glyph-name="four.superior" unicode="&#x2074;" horiz-adv-x="714" 
d="M561 881h-131q-20 0 -20 20v90q0 13 -13 13h-331q-21 0 -21 20v113q0 17 8 30l254 525q9 20 29 20h147q22 0 13 -20l-250 -533v-2h151q13 0 13 12v168q0 21 20 21h131q21 0 21 -21v-168q0 -12 12 -12h35q20 0 20 -20v-113q0 -20 -20 -20h-35q-12 0 -12 -13v-90
q0 -20 -21 -20z" />
    <glyph glyph-name="five.superior" unicode="&#x2075;" horiz-adv-x="714" 
d="M354 864q-101 0 -174 45t-90 119q-3 24 10 27l131 45q16 7 23 -10q34 -64 102 -64q75 0 93 57q8 24 8 64q0 42 -8 63q-18 58 -89 58q-47 0 -73 -29q-12 -12 -25 -12h-141q-21 0 -21 20v445q0 20 21 20h481q21 0 21 -20v-117q0 -21 -21 -21h-319q-13 0 -13 -12v-145h2
q54 28 119 28q184 0 230 -143q16 -53 16 -135q0 -63 -16 -119q-56 -164 -267 -164z" />
    <glyph glyph-name="six.superior" unicode="&#x2076;" horiz-adv-x="714" 
d="M356 864q-129 0 -209.5 73t-80.5 193q0 91 67 213l195 349q9 20 32 20h158q21 0 10 -20l-168 -303l2 -3q10 7 39 7q109 0 178.5 -73t69.5 -190q0 -120 -81.5 -193t-211.5 -73zM356 1022q69 -6 98 50t0 112.5t-98 50.5q-49 0 -79.5 -30t-30.5 -77t30.5 -76.5t79.5 -29.5z
" />
    <glyph glyph-name="seven.superior" unicode="&#x2077;" horiz-adv-x="714" 
d="M332 881h-144q-19 0 -10 22l273 647v4h-179q-12 0 -12 -12v-88q0 -20 -20 -20h-134q-20 0 -20 20v238q0 20 20 20h510q21 0 21 -20v-129q0 -5 -4 -21l-273 -643q-9 -18 -28 -18z" />
    <glyph glyph-name="eight.superior" unicode="&#x2078;" horiz-adv-x="714" 
d="M61 1124q0 118 99 195v2q-78 69 -78 158q0 106 74.5 178t199.5 72q126 0 201.5 -72t75.5 -178q0 -89 -78 -158v-2q98 -76 98 -195q0 -115 -83.5 -187.5t-213.5 -72.5q-129 0 -212 72.5t-83 187.5zM356 1389q42 0 69.5 26.5t27.5 63.5q0 39 -27.5 65.5t-69.5 26.5
q-41 0 -67.5 -26.5t-26.5 -65.5q0 -37 26.5 -63.5t67.5 -26.5zM473 1130q0 47 -33.5 79t-83.5 32q-49 0 -81.5 -32t-32.5 -79t32 -77.5t82 -30.5q49 0 83 31.5t34 76.5z" />
    <glyph glyph-name="nine.superior" unicode="&#x2079;" horiz-adv-x="714" 
d="M354 881h-157q-22 0 -11 20l168 303l-2 2q-9 -6 -39 -6q-109 0 -178 72.5t-69 189.5q0 121 80.5 194t209.5 73q130 0 211.5 -73t81.5 -194q0 -91 -67 -213l-195 -348q-11 -20 -33 -20zM356 1358q69 -6 98 50t0 112.5t-98 50.5q-49 0 -79.5 -30t-30.5 -77t30.5 -76.5
t79.5 -29.5z" />
    <glyph glyph-name="zero.inferior" unicode="&#x2080;" horiz-adv-x="714" 
d="M356 -336q-209 0 -268 176q-18 58 -18 256t18 256q59 176 268 176q212 0 271 -176q18 -58 18 -256t-18 -256q-59 -176 -271 -176zM356 -178q77 0 95 63q8 21 8 211t-8 211q-18 64 -95 64q-74 0 -92 -64q-8 -21 -8 -211t8 -211q18 -63 92 -63z" />
    <glyph glyph-name="one.inferior" unicode="&#x2081;" horiz-adv-x="714" 
d="M477 -319h-137q-21 0 -21 20v602h-4l-129 -84q-8 -5 -14 -0.5t-6 14.5v148q0 21 16 31l127 86q20 14 35 14h133q21 0 21 -20v-791q0 -20 -21 -20z" />
    <glyph glyph-name="two.inferior" unicode="&#x2082;" horiz-adv-x="714" 
d="M610 -319h-501q-21 0 -21 20v117q0 16 12 28l295 324q56 59 56 113q0 41 -24 64.5t-65 23.5q-85 0 -100 -86q-3 -20 -22 -17l-134 29q-19 3 -16 22q9 75 82 142q70 67 193 67q118 0 192 -69t74 -176q0 -101 -90 -205l-224 -238v-2h293q21 0 21 -20v-117q0 -20 -21 -20z
" />
    <glyph glyph-name="three.inferior" unicode="&#x2083;" horiz-adv-x="714" 
d="M365 -336q-113 0 -188.5 47t-98.5 139q-3 24 14 27l131 33q15 3 25 -16q35 -72 112 -72q47 0 77 29t30 73q0 48 -31 75.5t-86 27.5h-41q-20 0 -20 20v117q0 20 20 20h31q106 0 106 92q0 95 -94 95q-70 0 -98 -60q-9 -15 -27 -12l-123 29q-17 3 -14 24q19 79 90.5 127.5
t175.5 48.5q127 0 199 -64t72 -173q0 -101 -84 -170v-2q41 -19 72.5 -72.5t31.5 -118.5q0 -121 -76.5 -192.5t-205.5 -71.5z" />
    <glyph glyph-name="four.inferior" unicode="&#x2084;" horiz-adv-x="714" 
d="M561 -319h-131q-20 0 -20 20v90q0 12 -13 12h-331q-21 0 -21 21v113q0 17 8 30l254 525q9 20 29 20h147q22 0 13 -20l-250 -533v-2h151q13 0 13 12v168q0 21 20 21h131q21 0 21 -21v-168q0 -12 12 -12h35q20 0 20 -20v-113q0 -21 -20 -21h-35q-12 0 -12 -12v-90
q0 -20 -21 -20z" />
    <glyph glyph-name="five.inferior" unicode="&#x2085;" horiz-adv-x="714" 
d="M354 -336q-101 0 -174 45t-90 119q-3 24 10 27l131 45q16 6 23 -11q34 -63 102 -63q75 0 93 57q8 24 8 64q0 42 -8 63q-18 58 -89 58q-47 0 -73 -29q-12 -12 -25 -12h-141q-21 0 -21 20v445q0 20 21 20h481q21 0 21 -20v-117q0 -21 -21 -21h-319q-13 0 -13 -12v-145h2
q54 28 119 28q184 0 230 -143q16 -53 16 -135q0 -63 -16 -119q-56 -164 -267 -164z" />
    <glyph glyph-name="six.inferior" unicode="&#x2086;" horiz-adv-x="714" 
d="M356 -336q-129 0 -209.5 73t-80.5 193q0 91 67 213l195 349q9 20 32 20h158q21 0 10 -20l-168 -304l2 -2q10 7 39 7q109 0 178.5 -73t69.5 -190q0 -120 -81.5 -193t-211.5 -73zM356 -178q69 -6 98 50t0 112.5t-98 50.5q-49 0 -79.5 -30t-30.5 -77t30.5 -76.5t79.5 -29.5z
" />
    <glyph glyph-name="seven.inferior" unicode="&#x2087;" horiz-adv-x="714" 
d="M332 -319h-144q-19 0 -10 22l273 647v4h-179q-12 0 -12 -12v-88q0 -21 -20 -21h-134q-20 0 -20 21v238q0 20 20 20h510q21 0 21 -20v-130q0 -4 -4 -20l-273 -643q-9 -18 -28 -18z" />
    <glyph glyph-name="eight.inferior" unicode="&#x2088;" horiz-adv-x="714" 
d="M61 -76q0 118 99 195v2q-78 69 -78 158q0 106 74.5 177.5t199.5 71.5q126 0 201.5 -71.5t75.5 -177.5q0 -89 -78 -158v-2q98 -76 98 -195q0 -115 -83.5 -187.5t-213.5 -72.5q-129 0 -212 72.5t-83 187.5zM356 188q42 0 69.5 26.5t27.5 64.5q0 39 -27.5 65.5t-69.5 26.5
q-41 0 -67.5 -26.5t-26.5 -65.5q0 -37 27 -64t67 -27zM473 -70q0 47 -33.5 79t-83.5 32q-49 0 -81.5 -32t-32.5 -79t32 -77.5t82 -30.5q49 0 83 31.5t34 76.5z" />
    <glyph glyph-name="nine.inferior" unicode="&#x2089;" horiz-adv-x="714" 
d="M354 -319h-157q-22 0 -11 20l168 303l-2 2q-9 -6 -39 -6q-109 0 -178 72.5t-69 189.5q0 120 80.5 193t209.5 73q130 0 211.5 -73t81.5 -193q0 -91 -67 -213l-195 -348q-11 -20 -33 -20zM356 158q69 -6 98 50t0 112.5t-98 50.5q-49 0 -79.5 -30t-30.5 -77t30.5 -76.5
t79.5 -29.5z" />
    <glyph glyph-name="Euro" unicode="&#x20ac;" 
d="M190 475q0 12 -12 12h-76q-20 0 -20 21v119q0 20 20 20h76q12 0 12 12v84q0 13 -12 13h-76q-20 0 -20 20v119q0 20 20 20h76q12 0 12 13q0 104 27 192q94 295 418 295q280 0 397 -246q10 -16 -10 -26l-150 -72q-18 -9 -28 8q-76 131 -209 131q-149 0 -195 -143
q-18 -49 -18 -139q0 -13 12 -13h373q20 0 20 -20l-20 -119q-3 -20 -21 -20h-352q-12 0 -12 -13v-84q0 -12 12 -12h332q20 0 20 -20l-20 -119q-3 -21 -21 -21h-311q-12 0 -12 -12q0 -99 18 -149q46 -144 195 -144q133 0 209 131q11 18 28 9l150 -72q20 -10 10 -27
q-117 -246 -397 -246q-324 0 -418 295q-27 89 -27 203z" />
    <glyph glyph-name="afii61248" unicode="&#x2105;" horiz-adv-x="1601" 
d="M295 -2l809 1397q11 20 33 20h133q21 0 10 -20l-809 -1397q-12 -21 -31 -21h-135q-22 0 -10 21zM399 676q-104 0 -178 50.5t-100 141.5q-21 64 -21 172t21 172q26 91 100 142t178 51q144 0 236 -109q3 -10 -2 -18l-96 -86q-10 -7 -19 2q-47 53 -115 53q-87 0 -114 -86
q-15 -47 -15 -121q0 -76 15 -120q30 -86 114 -86q68 0 115 53q10 9 19 0l96 -84q6 -3 2 -21q-90 -106 -236 -106zM1202 -23q-106 0 -181 50.5t-101 142.5q-20 74 -20 174t20 174q26 92 101 142.5t181 50.5q102 0 175 -51t102 -142q25 -75 25 -174t-25 -174
q-29 -91 -102 -142t-175 -51zM1319 221q12 53 12 123t-12 123q-27 88 -117 88t-117 -88q-12 -41 -12 -123t12 -123q27 -88 117 -88t117 88z" />
    <glyph glyph-name="afii61289" unicode="&#x2113;" horiz-adv-x="913" 
d="M250 354l-70 -51q-17 -10 -28 4l-80 115q-10 20 4 29l174 131v417q0 199 79.5 307.5t231.5 108.5q128 0 203.5 -81t75.5 -220q0 -157 -88 -306t-273 -310v-195q0 -121 90 -121q53 0 119 54q19 16 29 -5l78 -112q8 -14 -7 -29q-113 -113 -268 -113q-270 0 -270 324v53z
M479 1028v-285q166 172 166 369q0 123 -78 123q-46 0 -67 -46.5t-21 -160.5z" />
    <glyph glyph-name="uni2116" unicode="&#x2116;" horiz-adv-x="1939" 
d="M365 0h-191q-20 0 -20 20v1354q0 19 20 19h178q15 0 25 -13l524 -919h6v913q0 19 21 19h192q19 0 19 -19v-1354q0 -20 -19 -20h-180q-19 0 -25 14l-524 922h-6v-916q0 -20 -20 -20zM1794 281h-475q-21 0 -21 18v119q0 18 21 18h475q21 0 21 -18v-119q0 -18 -21 -18z
M1559 537q-295 0 -295 311t295 311q290 0 290 -311t-290 -311zM1559 674q63 0 92.5 41t29.5 133t-29.5 133t-92.5 41q-66 0 -95.5 -41t-29.5 -133t29.5 -133t95.5 -41z" />
    <glyph glyph-name="published" unicode="&#x2117;" horiz-adv-x="1691" 
d="M1358 184q-207 -207 -512 -207t-512 207q-207 210 -207 512q0 303 207 510q206 209 512 209t512 -209q207 -207 207 -510q0 -302 -207 -512zM449 293q160 -160 397 -160q238 0 395 160q160 165 160 403q0 242 -160 402q-155 162 -395 162q-239 0 -397 -162
q-158 -161 -158 -402q0 -237 158 -403zM739 287h-133q-18 0 -18 18v754q0 18 18 18h254q328 0 328 -248q0 -276 -328 -276h-92q-10 0 -10 -10v-238q0 -18 -19 -18zM766 694h63q101 0 146 28t45 101q0 66 -45.5 92.5t-145.5 26.5h-63q-8 0 -8 -6v-234q0 -8 8 -8z" />
    <glyph glyph-name="trademark" unicode="&#x2122;" horiz-adv-x="1736" 
d="M1606 586h-119q-21 0 -21 20v418h-4l-139 -301q-9 -21 -27 -21h-94q-15 0 -24 21l-142 301h-4v-418q0 -20 -20 -20h-119q-21 0 -21 20v766q0 21 21 21h108q20 0 29 -21l219 -475h6l213 475q9 21 29 21h109q20 0 20 -21v-766q0 -20 -20 -20zM473 586h-129q-20 0 -20 20
v625q0 12 -13 12h-205q-20 0 -20 21v108q0 21 20 21h605q20 0 20 -21v-108q0 -21 -20 -21h-205q-12 0 -12 -12v-625q0 -20 -21 -20z" />
    <glyph glyph-name="Omega" unicode="&#x2126;" horiz-adv-x="1298" 
d="M1169 0h-413q-21 0 -21 20v175q0 20 21 26q186 55 186 475q0 225 -29 320q-59 182 -264 182t-264 -182q-29 -95 -29 -320q0 -420 187 -475q20 -6 20 -26v-175q0 -20 -20 -20h-414q-20 0 -20 20v177q0 20 20 20h135v4q-81 64 -119 166q-34 103 -34 309q0 261 39 377
q54 166 184 254t315 88t316 -88t184 -254q39 -116 39 -377q0 -205 -37 -309q-34 -101 -117 -166v-4h135q21 0 21 -20v-177q0 -20 -21 -20z" />
    <glyph glyph-name="estimated" unicode="&#x212e;" horiz-adv-x="1226" 
d="M610 -23q-215 0 -348 148q-131 149 -131 371q0 223 131 366q133 148 348 148q219 0 351 -144q132 -141 135 -370h-756v-340q110 -107 270 -107q234 0 359 223l67 -43q-89 -135 -187 -193.5t-239 -58.5zM340 563h545v271q-121 112 -275 112q-164 0 -270 -112v-271z" />
    <glyph glyph-name="onethird" unicode="&#x2153;" horiz-adv-x="1828" 
d="M498 561h-138q-20 0 -20 21v602h-4l-129 -84q-7 -5 -14 -0.5t-7 14.5v148q0 20 17 30l127 86q21 15 35 15h133q20 0 20 -21v-790q0 -21 -20 -21zM1362 -16q-113 0 -188.5 47t-98.5 139q-3 24 15 27l131 32q15 3 24 -16q35 -72 113 -72q47 0 76.5 29t29.5 74
q0 48 -30.5 75t-85.5 27h-41q-21 0 -21 21v116q0 21 21 21h30q107 0 107 92q0 94 -94 94q-69 0 -99 -59q-9 -16 -26 -13l-123 29q-18 3 -15 25q19 79 91 127.5t176 48.5q127 0 198.5 -64t71.5 -174q0 -101 -84 -170v-2q41 -19 73 -72t32 -118q0 -121 -77 -192.5t-206 -71.5z
M489 -23h-135q-22 0 -10 21l809 1397q11 20 33 20h133q10 0 13.5 -6.5t-1.5 -13.5l-809 -1397q-12 -21 -33 -21z" />
    <glyph glyph-name="twothirds" unicode="&#x2154;" horiz-adv-x="2035" 
d="M1571 -16q-113 0 -188.5 47t-98.5 139q-3 24 14 27l132 32q15 3 24 -16q35 -72 113 -72q47 0 76.5 29t29.5 74q0 48 -31 75t-86 27h-40q-21 0 -21 21v116q0 21 21 21h30q107 0 107 92q0 94 -94 94q-72 0 -99 -59q-9 -16 -26 -13l-123 29q-18 3 -15 25q19 79 91 127.5
t176 48.5q127 0 198.5 -64t71.5 -174q0 -101 -84 -170v-2q41 -19 72.5 -72t31.5 -118q0 -121 -76.5 -192.5t-205.5 -71.5zM709 561h-502q-21 0 -21 21v116q0 16 13 29l295 324q55 58 55 112q0 41 -23.5 64.5t-64.5 23.5q-86 0 -101 -86q-3 -19 -22 -16l-133 29q-20 3 -17 22
q9 74 82 141q71 68 193 68q118 0 192 -69.5t74 -176.5q0 -101 -90 -205l-223 -237v-2h293q20 0 20 -21v-116q0 -21 -20 -21zM698 -23h-135q-22 0 -10 21l809 1397q11 20 33 20h133q10 0 13.5 -6.5t-1.5 -13.5l-809 -1397q-12 -21 -33 -21z" />
    <glyph glyph-name="oneeighth" unicode="&#x215b;" horiz-adv-x="1830" 
d="M1055 244q0 118 98 194v2q-78 69 -78 158q0 106 75 178t200 72t200.5 -72t75.5 -178q0 -89 -78 -158v-2q99 -76 99 -194q0 -115 -83.5 -187.5t-213.5 -72.5q-129 0 -212 72.5t-83 187.5zM1350 508q42 0 69 26t27 64q0 39 -27 65.5t-69 26.5q-41 0 -68 -26.5t-27 -65.5
q0 -37 27 -63.5t68 -26.5zM1466 250q0 47 -33 78.5t-83 31.5q-49 0 -82 -31.5t-33 -78.5t32.5 -78t82.5 -31q49 0 82.5 32t33.5 77zM489 -23h-135q-22 0 -10 21l809 1397q11 20 33 20h133q10 0 13.5 -6.5t-1.5 -13.5l-809 -1397q-12 -21 -33 -21zM498 561h-138q-20 0 -20 21
v602h-4l-129 -84q-7 -5 -14 -0.5t-7 14.5v148q0 20 17 30l127 86q21 15 35 15h133q20 0 20 -21v-790q0 -21 -20 -21z" />
    <glyph glyph-name="threeeighths" unicode="&#x215c;" horiz-adv-x="1984" 
d="M1212 244q0 118 99 194v2q-78 69 -78 158q0 106 74.5 178t199.5 72q126 0 201.5 -72t75.5 -178q0 -89 -78 -158v-2q98 -76 98 -194q0 -115 -83.5 -187.5t-213.5 -72.5q-129 0 -212 72.5t-83 187.5zM1507 508q42 0 69.5 26.5t27.5 63.5q0 39 -27.5 65.5t-69.5 26.5
q-41 0 -67.5 -26.5t-26.5 -65.5q0 -37 26.5 -63.5t67.5 -26.5zM1624 250q0 47 -33.5 78.5t-83.5 31.5q-49 0 -81.5 -31.5t-32.5 -78.5t32.5 -78t81.5 -31t83 32t34 77zM477 545q-113 0 -188.5 47t-98.5 139q-3 24 15 27l131 33q14 3 24 -17q35 -72 113 -72q47 0 77 29t30 74
q0 48 -31 75t-86 27h-41q-21 0 -21 21v116q0 21 21 21h31q106 0 106 92q0 94 -94 94q-68 0 -98 -59q-9 -15 -27 -12l-123 28q-17 3 -14 25q19 79 90.5 127.5t175.5 48.5q127 0 198.5 -64t71.5 -174q0 -101 -84 -170v-2q41 -19 73 -72t32 -118q0 -121 -77 -192.5t-206 -71.5z
M647 -23h-135q-22 0 -10 21l809 1397q11 20 32 20h134q10 0 13.5 -6.5t-1.5 -13.5l-809 -1397q-12 -21 -33 -21z" />
    <glyph glyph-name="fiveeighths" unicode="&#x215d;" horiz-adv-x="1968" 
d="M1196 244q0 118 98 194v2q-77 68 -77 158q0 106 74.5 178t199.5 72t200.5 -72t75.5 -178q0 -90 -77 -158v-2q98 -76 98 -194q0 -115 -83.5 -187.5t-213.5 -72.5q-129 0 -212 72.5t-83 187.5zM1491 508q42 0 69 26t27 64q0 39 -27 65.5t-69 26.5q-41 0 -67.5 -26.5
t-26.5 -65.5q0 -37 26.5 -63.5t67.5 -26.5zM1608 250q0 47 -33.5 78.5t-83.5 31.5q-49 0 -82 -31.5t-33 -78.5t32.5 -78t82.5 -31q49 0 83 32t34 77zM455 545q-101 0 -174.5 45t-90.5 119q-3 23 11 26l131 45q16 6 22 -10q29 -63 103 -63t92 57q8 24 8 63q0 43 -8 64
q-18 57 -88 57q-49 0 -74 -28q-13 -13 -25 -13h-141q-20 0 -20 21v444q0 21 20 21h481q21 0 21 -21v-117q0 -20 -21 -20h-319q-12 0 -12 -12v-146h2q56 29 119 29q183 0 229 -143q16 -53 16 -136q0 -62 -16 -118q-56 -164 -266 -164zM631 -23h-135q-23 0 -11 21l809 1397
q11 20 33 20h133q10 0 14 -6.5t-1 -13.5l-809 -1397q-12 -21 -33 -21z" />
    <glyph glyph-name="seveneighths" unicode="&#x215e;" horiz-adv-x="1837" 
d="M1059 244q0 118 98 194v2q-78 69 -78 158q0 106 75 178t200 72t200.5 -72t75.5 -178q0 -89 -78 -158v-2q99 -76 99 -194q0 -115 -83.5 -187.5t-213.5 -72.5q-129 0 -212 72.5t-83 187.5zM1354 508q42 0 69 26t27 64q0 39 -27 65.5t-69 26.5q-41 0 -67.5 -26.5
t-26.5 -65.5q0 -37 26.5 -63.5t67.5 -26.5zM1470 250q0 47 -33 78.5t-83 31.5q-49 0 -82 -31.5t-33 -78.5t32.5 -78t82.5 -31q49 0 82.5 32t33.5 77zM430 561h-143q-21 0 -11 23l273 647v4h-178q-13 0 -13 -12v-88q0 -21 -20 -21h-133q-21 0 -21 21v237q0 21 21 21h510
q20 0 20 -21v-129q0 -4 -4 -20l-272 -643q-9 -19 -29 -19zM494 -23h-136q-22 0 -10 21l809 1397q11 20 33 20h133q8 0 12 -6.5t0 -13.5l-809 -1397q-12 -21 -32 -21z" />
    <glyph glyph-name="partialdiff" unicode="&#x2202;" horiz-adv-x="1118" 
d="M514 -23q-190 0 -303 119q-115 121 -115 307q0 195 119 326t307 131q178 0 287 -112h2q-2 214 -78.5 341.5t-214.5 127.5q-109 0 -219 -82q-16 -10 -29 6l-84 127q-9 15 7 28q143 119 331 119q235 0 366.5 -176t131.5 -500q0 -336 -127 -549t-381 -213zM535 184
q116 0 183.5 102t84.5 296q-110 90 -244 90q-114 0 -179 -68.5t-65 -191.5q0 -103 60 -165.5t160 -62.5z" />
    <glyph glyph-name="increment" unicode="&#x2206;" horiz-adv-x="1280" 
d="M1225 0h-1157q-23 0 -17 20l477 1352q6 21 27 21h188q21 0 27 -21l471 -1352q6 -20 -16 -20zM362 195h566q13 0 10 12l-289 840h-6l-291 -840q-3 -12 10 -12z" />
    <glyph glyph-name="product" unicode="&#x220f;" horiz-adv-x="1366" 
d="M1182 -369h-201q-20 0 -20 21v1634q0 12 -13 12h-530q-12 0 -12 -12v-1634q0 -21 -21 -21h-201q-20 0 -20 21v1843q0 21 20 21h998q20 0 20 -21v-1843q0 -21 -20 -21z" />
    <glyph glyph-name="summation" unicode="&#x2211;" horiz-adv-x="1101" 
d="M997 -369h-893q-20 0 -20 21v168q0 6 4 18l365 813l-355 645q-6 12 -6 23v176q0 21 21 21h864q20 0 20 -21v-176q0 -21 -20 -21h-610l333 -616q6 -14 0 -29l-358 -805h655q21 0 21 -20v-176q0 -21 -21 -21z" />
    <glyph glyph-name="minus" unicode="&#x2212;" 
d="M991 465h-858q-20 0 -20 20v160q0 21 20 21h858q21 0 21 -21v-160q0 -20 -21 -20z" />
    <glyph glyph-name="uni2215" unicode="&#x2215;" horiz-adv-x="325" 
d="M-172 -23h-135q-22 0 -10 21l809 1397q11 20 32 20h133q10 0 14 -6.5t-1 -13.5l-809 -1397q-12 -21 -33 -21z" />
    <glyph glyph-name="uni2219" unicode="&#x2219;" horiz-adv-x="516" 
d="M360 418h-204q-21 0 -21 20v209q0 21 21 21h204q21 0 21 -21v-209q0 -20 -21 -20z" />
    <glyph glyph-name="radical" unicode="&#x221a;" horiz-adv-x="1312" 
d="M748 -369h-154q-18 0 -27 21l-268 541q-6 12 -18 6l-117 -56q-18 -9 -27 9l-61 124q-9 18 8 27l291 139q20 8 28 -8l246 -514h6l424 1575q6 21 25 21h162q22 0 16 -21l-510 -1843q-6 -21 -24 -21z" />
    <glyph glyph-name="infinity" unicode="&#x221e;" horiz-adv-x="1562" 
d="M1155 172q-186 0 -373 205q-193 -205 -376 -205q-141 0 -236 92q-92 95 -92 240q0 148 94 239q95 95 238 95q174 0 370 -211q108 115 193.5 163t179.5 48q141 0 236 -95q96 -93 96 -239t-94 -240q-95 -92 -236 -92zM1147 330q76 0 124 51.5t48 126.5t-47 123.5t-125 48.5
q-55 0 -112.5 -40t-143.5 -138q92 -98 146.5 -135t109.5 -37zM418 330q98 0 254 176q-84 96 -141 135t-113 39q-78 0 -126 -48.5t-48 -123.5q0 -77 48 -127.5t126 -50.5z" />
    <glyph glyph-name="integral" unicode="&#x222b;" horiz-adv-x="909" 
d="M244 -369q-50 0 -101 7q-20 3 -20 20v162q0 10 6 16t14 4q30 -6 66 -6q70 0 100.5 41.5t30.5 138.5v1073q0 228 77.5 328.5t248.5 100.5q46 0 100 -7q20 -3 20 -20v-160q0 -10 -6 -16t-14 -4q-54 4 -68 4q-69 0 -100 -41.5t-31 -138.5v-1074q0 -227 -77 -327.5
t-246 -100.5z" />
    <glyph glyph-name="approxequal" unicode="&#x2248;" 
d="M743 610q-98 0 -213 74q-80 51 -137 51q-83 0 -141 -102q-10 -19 -31 -4l-106 63q-16 9 -6 29q41 92 117.5 145.5t168.5 53.5t215 -72q80 -51 135 -51q85 0 144 102q10 19 31 4l106 -63q16 -9 6 -29q-41 -92 -119 -146.5t-170 -54.5zM530 283q-80 51 -137 51
q-82 0 -141 -103q-10 -19 -31 -4l-106 64q-15 9 -6 28q41 93 117.5 147t168.5 54q100 0 215 -74q80 -51 135 -51q85 0 144 103q10 19 31 4l106 -64q15 -9 6 -28q-34 -69 -84 -116t-113.5 -69.5t-142.5 -8.5t-162 67z" />
    <glyph glyph-name="notequal" unicode="&#x2260;" 
d="M377 35h-146q-19 0 -10 20l98 205h-186q-20 0 -20 21v159q0 21 20 21h285l100 209h-385q-20 0 -20 20v160q0 20 20 20h483l101 205q9 21 31 21h143q19 0 10 -21l-98 -205h188q21 0 21 -20v-160q0 -20 -21 -20h-286l-101 -209h387q21 0 21 -21v-159q0 -21 -21 -21h-485
l-98 -205q-9 -20 -31 -20z" />
    <glyph glyph-name="lessequal" unicode="&#x2264;" 
d="M991 319l-858 353q-20 6 -20 28v136q0 22 20 28l858 353q21 6 21 -13v-182q0 -18 -21 -27l-585 -225v-4l585 -225q21 -9 21 -27v-182q0 -19 -21 -13zM991 0h-858q-20 0 -20 20v162q0 21 20 21h858q21 0 21 -21v-162q0 -20 -21 -20z" />
    <glyph glyph-name="greaterequal" unicode="&#x2265;" 
d="M991 672l-858 -353q-20 -6 -20 13v182q0 18 20 27l586 225v4l-586 225q-20 9 -20 27v182q0 19 20 13l858 -353q21 -6 21 -28v-136q0 -22 -21 -28zM991 0h-858q-20 0 -20 20v162q0 21 20 21h858q21 0 21 -21v-162q0 -20 -21 -20z" />
    <glyph glyph-name="lozenge" unicode="&#x25ca;" horiz-adv-x="1148" 
d="M664 -106h-166q-22 0 -31 20l-356 745q-6 14 0 29l356 746q9 20 31 20h166q21 0 30 -20l357 -746q6 -14 0 -29l-357 -745q-9 -20 -30 -20zM584 106h4l252 568l-258 567h-4l-256 -567z" />
    <glyph glyph-name="f_i" unicode="&#xf001;" horiz-adv-x="1200" 
d="M389 0h-188q-21 0 -21 20v777q0 12 -12 12h-66q-20 0 -20 20v138q0 20 20 20h66q12 0 12 12v64q0 330 328 330h90q20 0 20 -21v-164q0 -20 -20 -20h-63q-75 0 -100 -24t-25 -97v-68q0 -12 12 -12h176q20 0 20 -20v-138q0 -20 -20 -20h-176q-12 0 -12 -12v-777
q0 -20 -21 -20zM1030 1174h-188q-21 0 -21 20v178q0 21 21 21h188q21 0 21 -21v-178q0 -20 -21 -20zM1030 0h-188q-21 0 -21 20v947q0 20 21 20h188q21 0 21 -20v-947q0 -20 -21 -20z" />
    <glyph glyph-name="f_l" unicode="&#xf002;" horiz-adv-x="1267" 
d="M389 0h-188q-21 0 -21 20v777q0 12 -12 12h-66q-20 0 -20 20v138q0 20 20 20h66q12 0 12 12v64q0 330 328 330h90q20 0 20 -21v-164q0 -20 -20 -20h-63q-75 0 -100 -24t-25 -97v-68q0 -12 12 -12h176q20 0 20 -20v-138q0 -20 -20 -20h-176q-12 0 -12 -12v-777
q0 -20 -21 -20zM1178 -12h-91q-142 0 -206 67.5t-64 214.5v1102q0 21 21 21h188q21 0 21 -21v-1089q0 -49 20.5 -69.5t65.5 -20.5h45q20 0 20 -21v-164q0 -20 -20 -20z" />
    </font>
</defs>
</svg>
